<?xml version="1.0" encoding="UTF-8" standalone="no"?>
<!-- Created with Inkscape (http://www.inkscape.org/) -->

<svg
   xmlns:dc="http://purl.org/dc/elements/1.1/"
   xmlns:cc="http://creativecommons.org/ns#"
   xmlns:rdf="http://www.w3.org/1999/02/22-rdf-syntax-ns#"
   xmlns:svg="http://www.w3.org/2000/svg"
   xmlns="http://www.w3.org/2000/svg"
   xmlns:sodipodi="http://sodipodi.sourceforge.net/DTD/sodipodi-0.dtd"
   xmlns:inkscape="http://www.inkscape.org/namespaces/inkscape"
   id="svg2"
   version="1.1"
   inkscape:version="0.48.4 r9939"
   width="520.25128"
   height="401.31061"
   sodipodi:docname="art.svg"
   inkscape:export-filename="/home/jordan/websites/Foundations/assets/art.png"
   inkscape:export-xdpi="90"
   inkscape:export-ydpi="90">
  <metadata
     id="metadata8">
    <rdf:RDF>
      <cc:Work
         rdf:about="">
        <dc:format>image/svg+xml</dc:format>
        <dc:type
           rdf:resource="http://purl.org/dc/dcmitype/StillImage" />
        <dc:title />
      </cc:Work>
    </rdf:RDF>
  </metadata>
  <defs
     id="defs6" />
  <sodipodi:namedview
     pagecolor="#ffffff"
     bordercolor="#666666"
     borderopacity="1"
     objecttolerance="10"
     gridtolerance="10"
     guidetolerance="10"
     inkscape:pageopacity="0"
     inkscape:pageshadow="2"
     inkscape:window-width="1366"
     inkscape:window-height="744"
     id="namedview4"
     showgrid="false"
     inkscape:zoom="1.4402809"
     inkscape:cx="260.12564"
     inkscape:cy="200.6553"
     inkscape:window-x="0"
     inkscape:window-y="24"
     inkscape:window-maximized="1"
     inkscape:current-layer="svg2"
     fit-margin-top="0"
     fit-margin-left="0"
     fit-margin-right="0"
     fit-margin-bottom="0" />
  <path
     style="fill:#000000"
     d="m 0.37281,109.875 c 1.7195,-10.3011 7.6442,-20.0496 15.9383,-26.2951 11.9249,-8.0508 23.2455,-17.2554 36.1376,-23.8257 6.9157,-4.1867 15.3403,-5.2796 22.7748,-9.0712 9.0522,-4.1495 19.4504,-3.2751 28.789,-6.7322 9.9348,-0.8683 19.7951,-3.0654 29.6943,-3.914 9.9428,0.096 9.6175,12.6764 6.6621,16.7515 10.6612,5.344 19.3928,13.7398 27.185,22.646 10.3231,14.5877 8.8268,34.8868 -0.7374,49.4444 -2.2303,6.2715 -13.5899,21.2742 -11.9652,21.0925 10.0475,-5.9057 21.9486,-9.0085 31.2263,-16.1572 6.3156,-8.3349 7.3053,12.7588 14.6335,2.2857 6.0238,-6.6951 24.715,-11.5179 18.0809,-22.2806 -8.3731,-6.2701 -0.8705,-17.4026 7.0225,-13.7634 -0.5977,-9.269 1.2277,-11.7473 -6.6258,-12.0608 -7.9928,-8.9351 -3.5323,-21.7014 0.5733,-31.2919 3.6252,-8.4685 1.662,-20.6061 6.4232,-27.3409 5.2845,7.1577 3.1029,19.4941 5.7811,28.594 3.057,9.4097 8.6163,18.6711 3.7595,28.8127 -6.2273,5.9602 1.3138,16.473 6.2989,21.7387 4.905,6.684 6.7485,18.0063 -1.2216,23.214 0.064,5.4148 3.5711,23.2012 -4.7522,11.5637 -3.4813,-5.4362 -9.8933,-17.4587 -13.272,-17.3779 -8.038,5.5708 -16.0806,11.5975 -24.2026,17.2066 -5.0694,2.7371 -2.6706,15.5884 3.2558,13.6343 -0.3686,9.4172 -12.2186,7.5439 -17.9923,13.7019 -10.8096,4.4195 -19.9409,10.8942 -12.3235,23.4002 2.1819,15.5914 2.5256,31.5126 1.6587,47.2242 -1.8659,9.9063 -0.6613,22.5614 -7.6452,30.2822 -6.7168,7.4258 -19.3815,7.1442 -28.2436,10.2282 -3.2527,14.3481 -6.0799,28.8162 -11.2877,42.6305 -6.5901,15.1087 13.3316,-0.9439 20.4886,3.9214 11.706,-0.3473 13.9943,11.3659 15.5498,19.4569 -2.6588,11.8665 -19.9852,2.6728 -28.5494,1.5809 -4.8485,-2.8132 -23.1649,-6.639 -16.6866,-12.2311 3.5861,-4.513 4.3221,-18.5662 8.2747,-26.6665 3.1297,-9.5409 5.2826,-19.3146 7.2263,-29.1583 -11.8815,0.3761 -23.6436,2.5362 -35.5157,2.949 -6.0822,0.2114 -18.7523,-3.1455 -17.8258,5.1419 -2.4738,16.6392 -10.3684,31.9638 -12.9255,48.4815 l -4.0952,14.47 c -4.9798,15.3821 -11.6385,20.9158 -17.6897,21.3977 -3.9934,-0.4435 -9.7608,-1.7423 -11.4366,-12.2843 -0.1214,-14.4531 10.4953,-26.3148 21.2169,-34.5364 8.4839,-6.5058 14.7423,-16.3935 17.8248,-27.077 2.0757,-7.1476 7.4141,-15.7694 -5.4839,-15.6875 -9.4525,0.06 -23.6084,8.201 -22.8949,-7.1528 -2.7414,-12.5058 -4.1995,-25.4382 -5.3089,-38.0526 5.125,-7.7199 -10.3295,-8.4091 -15.5818,-8.9231 -10.6333,-4.4783 15.2699,-16.186 0.7682,-22.9579 -10.9725,-9.7995 10.386,-14.6157 15.1156,-22.1841 5.63,-5.4788 22.102,-12.9432 6.7503,-17.6082 -11.5277,-7.651 -17.2064,-21.2127 -18.3567,-34.6174 -2.0124,-6.5862 1.0973,-19.2935 -8.9611,-11.3013 -9.1604,3.2728 -20.0653,0.7832 -17.5291,-11.3012 z m 5.1871,5.6579 c 3.255,3.4858 8.1855,0.8972 12.4979,-0.5126 6.9332,-1.8309 12.2192,-5.8601 18.6096,-8.8892 11.4278,-5.1138 23.7872,-8.3719 34.7598,-14.6839 16.8356,-8.7862 35.2193,-15.0567 50.0756,-27.3369 4.3601,-5.7673 20.018,-9.2758 15.6443,-17.9944 -11.26,-3.1839 -23.1169,2.738 -34.6136,3.4247 -10.0383,2.3982 -20.9075,1.5038 -30.1455,6.8473 3.1998,8.8186 -9.6586,12.8783 -16.555,13.1081 -8.5674,0.8617 -13.4828,-1.6651 -20.5753,5.8673 -7.8607,5.6018 -15.5173,11.4623 -22.3154,18.2554 -2.752,2.7499 -4.3067,6.8536 -5.9758,10.5271 -0.8752,1.926 -4.4625,8.1145 -1.4066,11.3871 z m 19.8827,110.1076 c 4.4199,1.2465 17.1055,4.4854 14.7723,-0.8655 -5.9729,-3.1455 -10.0771,-12.802 -13.9999,-1.5036 l -1.0304,1.8656 z m 1.3894,-22.0706 c 4.5665,7.4866 15.7592,21.3213 19.3812,5.5551 2.933,-5.8011 5.0624,-22.2185 12.9695,-18.4616 -0.3764,6.4413 -9.586,17.4643 -6.4622,20.7962 12.4387,-3.5094 2.4849,13.3175 13.2707,13.9489 10.3049,3.6361 14.0506,19.3142 3.3185,24.9217 -7.9552,7.9443 -19.2308,2.3172 -24.6655,-5.4989 0.083,11.4149 1.7624,22.9746 4.9297,33.9162 25.2894,0.9742 50.7849,-0.3414 76.0791,-2.307 10.6434,-1.5666 23.5947,1.3389 32.5002,-5.3658 8.7086,-5.4469 9.4264,-16.1898 9.82,-25.6242 -0.3955,-4.3894 2.3563,-19.1834 0.7431,-27.3741 -0.1374,-16.7173 -2.9485,-33.6144 -8.8856,-49.2334 -3.7591,-4.6888 -6.2488,-21.7942 -13.4256,-10.3216 -4.0618,5.2892 -4.5136,12.5579 -14.2546,12.2237 -19.2102,3.7116 -38.999,3.7069 -58.1702,7.1904 -10.4432,-3.922 -19.6014,-3.7335 -26.5808,5.9479 -6.6268,6.1812 -17.1979,11.7119 -20.5675,19.6865 z m 56.6186,23.0105 c 1.8264,-8.6921 5.8056,-21.3002 14.3845,-24.0031 11.404,0.6376 20.8081,16.8999 8.9928,24.4364 -4.9558,8.384 8.4353,13.792 11.034,21.2515 -2.5882,7.2837 -18.0291,14.9389 -26.022,8.5633 -8.4559,-7.6864 -9.3961,-19.5518 -8.3893,-30.2481 z m 4.7352,11.4132 c -1.0718,12.579 11.8482,22.2583 21.5257,11.9336 10.3602,-5.7567 -15.4736,-14.1042 -7.7462,-23.8618 10.1323,-4.6325 5.7697,-21.2989 -4.8724,-17.9048 -6.8108,8.3659 -10.46,19.0446 -8.9071,29.833 z m 35.4744,-14.8242 c 0.2518,-7.1684 11.5353,-7.6484 8.4516,-2.6053 11.6337,5.1199 -10.1377,23.5869 -8.4516,2.6053 z m 4.2929,4.4411 c 7.5202,-2.4939 -2.6959,-9.5536 0,0 z m 2.5755,-38.2908 c 1.2809,-8.2196 7.8667,-0.042 11.5781,0.8672 1.9054,11.3326 -13.692,10.2448 -11.5781,-0.8672 z m 5.0208,4.4466 c 7.2069,-2.6123 -2.2082,-6.1947 0,0 z m 10.0398,20.4137 c 4.3019,-0.5366 5.0856,7.5909 9.5195,7.5926 -3.0046,6.9442 -13.2072,-2.5875 -9.5195,-7.5926 z M 30.48891,125.0925 c 2.3884,12.3423 3.6685,26.722 15.0786,34.4622 8.6839,6.6354 19.0853,12.5307 30.4065,12.4563 12.9467,-0.3196 25.9019,-2.261 38.8978,-2.959 12.4632,-3.8391 15.5123,-3.2883 18.3492,-6.0253 6.4078,-5.2056 13.4929,-11.4241 18.5457,-18.5995 6.4971,-10.0023 13.6687,-20.3256 16.2584,-32.0092 1.6397,-7.3971 0.6122,-18.9092 -0.7659,-22.7171 -0.8922,-2.2055 -1.8731,-7.8374 -5.9666,-10.8789 -7.5139,-7.936 -15.9969,-15.797 -26.4481,-19.4603 -15.6902,13.7474 -33.9956,23.9371 -53.229,31.8238 -15.6844,9.3682 -33.5587,14.0509 -49.5041,22.7541 -3.5548,2.3978 -1.4285,7.5862 -1.6225,11.1529 z m 47.3485,17.839 c 5.4571,-1.2544 6.7625,13.5427 15.482,9.7509 -4.484,10.7926 -18.0186,-1.499 -15.482,-9.7509 z m 6.4149,-29.601 c 6.0753,-9.8917 7.3826,11.1554 -0.065,1.5796 z m 27.2687,14.0502 c 4.258,-1.8122 18.2926,-13.6787 12.5068,-2.2869 -2.4234,1.723 -13.3386,10.4425 -12.5068,2.2869 z m 23.7718,-29.667 c 3.2806,-10.3871 9.7701,8.4985 0.3479,2.5897 l -0.4297,-1.3149 z m -97.2708,264.3001 c 3.897,14.672 18.2925,-2.9408 19.2383,-11.3159 1.3096,-5.4207 7.2831,-19.9019 2.8762,-20.9562 -10.5061,4.9063 -17.8988,15.4339 -21.8237,26.0843 -0.6466,2.0073 -0.4258,4.1274 -0.2908,6.1878 z m 5.296,-140.2603 c 0.851,-1.5853 -1.4634,0.8892 0,0 z m 0.4979,10.4216 c 3.4027,7.418 9.4412,20.2375 19.4956,16.7863 13.2661,-4.4861 6.7785,-19.4369 -3.6038,-22.3773 -10.3212,2.176 0.5662,-19.8802 -9.2896,-8.2367 -2.2708,4.3396 -7.6365,8.4834 -6.6022,13.8277 z m 7.107,-166.4983 c 0.8474,-0.9815 -1.136,-0.4857 0,0 z m 0.7748,0 c 4.1127,0.6948 22.2368,-4.2496 12.975,-6.4317 -6.1758,1.9022 -9.7988,4.4257 -12.975,6.4317 z m 71.7414,274.3601 c 9.8291,4.1734 20.3228,7.3881 31.0482,7.5785 5.7767,-9.7476 -6.7261,-17.8666 -15.632,-14.2921 -5.3347,0.7115 -12.9858,1.85 -15.4162,6.7136 z m 36.4881,-181.082 c 5.0261,5.4299 4.6255,21.788 14.3952,12.0415 7.3076,-6.0794 23.8634,-8.3084 17.5908,-21.0719 0.3781,-8.1931 -4.1154,-14.9394 -11.7189,-6.8232 -4.6157,5.1951 -27.8543,6.1676 -20.2671,15.8536 z m 58.5325,-82.0927 c -0.7321,7.2698 11.8709,11.8866 13.6623,6.9188 3.5592,-7.1993 -8.8032,-2.2493 -9.4189,-10.1894 -3.2745,-5.8977 -3.4446,-0.5067 -4.2434,3.2706 z m 1.4361,30.1537 c 2.1786,6.8475 9.7635,7.0852 5.955,-0.045 -0.8125,-2.2124 -7.8739,-4.5047 -5.955,0.045 z m 2.2412,-43.3101 c 0.2146,6.2448 14.1619,19.0701 8.8089,5.9972 -3.8379,-7.1384 -4.0649,-10.9399 -4.5361,-17.6735 -1.447,3.4194 -5.4635,8.0885 -4.2728,11.6763 z m 6.2453,40.1926 c 8.5003,1.5699 -0.9911,-18.4096 0.2963,-5.1832 0.3755,1.7185 -1.4256,3.6482 -0.2963,5.1832 z m 0.8837,19.2911 c 4.7565,10.808 18.215,-0.5538 10.1094,-8.9388 -2.6603,-7.9816 -9.6221,-7.5744 -9.7191,1.1768 -0.9895,2.4505 -0.8535,5.2162 -0.3903,7.762 z M 51.11911,45.4329 c 6.7629,-1.9457 7.1725,17.7524 1.5125,6.8126 -0.6331,-2.0141 -2.7626,-4.6432 -1.5125,-6.8126 z m 145.4778,316.4234 c 2.3063,-17.3014 9.2091,-33.641 11.1012,-51.0237 3.5242,-16.1571 9.7983,-31.5608 13.8767,-47.6001 8.0825,-24.1115 14.1659,-48.3745 21.3056,-72.545 17.8966,-60.5874 38.6226,-126.7123 53.9734,-181.6782 5.3876,-4.183 16.5205,0.5269 23.8324,-2.0563 13.8879,-0.5805 27.5798,-3.3394 41.5126,-3.6138 32.7087,-2.9413 65.5649,-2.5772 98.3628,-2.1614 4.9813,-1.2567 19.0046,-0.2266 10.8467,5.1755 -1.0391,13.6628 1.4594,27.0796 2.504,40.6395 3.1429,30.6046 10.0449,61.8967 11.6785,90.2215 3.5135,30.5025 5.8561,61.134 10.6545,91.4881 3.953,32.2667 11.0504,64.0368 15.4502,96.2196 2.6938,15.9454 4.1189,32.1869 8.3727,47.7987 -0.023,5.6166 1.1812,24.409 -2.3014,10.2836 -3.7594,-12.5965 -7.4892,-25.2123 -8.6833,-38.3714 -2.5346,-18.6114 -5.5719,-37.1332 -8.8148,-55.6332 -2.2756,-8.0168 -19.4556,-4.1084 -26.2614,-6.2054 -31.8088,-2.3961 -63.7754,-2.0975 -95.5513,-4.8807 -9.0372,-0.7915 -8.6341,6.1213 -10.3335,12.2528 2.2135,13.2199 5.2921,26.3285 6.9087,39.6882 2.1263,19.6995 7.119,38.9126 10.7389,58.3487 -6.1681,10.0944 -6.3255,-10.4134 -8.1035,-14.8024 -4.1507,-16.5479 -7.3994,-33.3743 -8.7364,-50.43 -1.8693,-5.1324 -1.4689,-19.7116 -4.8808,-19.0911 -4.4314,18.4302 -6.6832,37.3016 -11.9294,55.5247 -1.9821,12.489 -1.8584,25.3743 -4.4674,37.719 -1.4722,8.2453 -10.9855,2.6731 -4.6354,-2.713 2.9038,-16.78 2.3031,-34.16 7.747,-50.4573 3.5721,-18.2035 6.8729,-36.5309 11.9852,-54.3658 l -12.2998,-19.2355 -33.533,-0.7862 c -25.6372,-0.9786 -51.2615,0.2774 -76.8872,1.0318 -9.396,-0.7388 -15.6005,-1.1375 -18.9277,11.2345 -4.6338,14.6258 -9.3697,29.1932 -11.2686,44.4933 -3.0324,12.5514 -6.6836,25.011 -9.5342,37.5752 -1.7589,1.2558 -4.1089,0.4738 -3.702,-2.0442 z m 29.1471,-94.7269 c 19.3833,-1.6211 38.7329,-3.9123 58.2386,-3.1969 27.0037,0.075 54.0099,0.6275 80.9971,1.2534 10.1636,3.437 7.2418,-15.3428 11.3879,-21.2995 4.0875,-13.9907 7.6863,-28.1218 13.6767,-41.4791 7.8569,-21.9155 16.8888,-43.3748 23.6202,-65.6818 8.1663,-24.1733 16.2832,-48.3879 26.2562,-71.8486 5.7561,-14.6759 11.4013,-29.3656 18.507,-43.4577 1.7766,-5.9969 11.6617,-19.6569 -1.6784,-16.5459 -14.9595,-0.1438 -29.8851,-0.5548 -44.8155,-0.5184 -10.8481,0.8026 -23.5936,0.3378 -35.0862,1.5816 -24.7423,0.7757 -49.2274,5.4579 -74.0352,5.819 -6.8858,8.0805 -6.7938,21.9845 -11.3422,32.2098 -16.5755,67.0567 -40.2216,126.2917 -55.2484,187.2984 -2.7923,12.1045 -7.9636,24.0017 -10.4778,35.8657 z m 45.4794,-82.0657 c 0.9126,-5.4209 10.974,-17.837 14.1921,-11.207 -9.9374,3.3514 -15.1575,17.6072 -4.0634,23.1797 4.052,4.929 -7.0106,15.7061 -3.6759,4.8541 1.858,-7.0087 -10.5195,-9.1695 -6.4528,-16.8268 z M 299.33461,81.338 c 2.6897,-11.3661 11.2001,-25.9031 24.7886,-23.9861 8.772,1.98 11.8197,15.9895 22.035,8.6119 12.4049,-2.79 18.7373,12.8743 8.6719,19.1117 -3.7749,7.7754 -10.9061,1.9509 -3.4599,-2.9045 9.9979,-6.0766 -1.3283,-16.6482 -9.1309,-9.7335 -11.4823,3.8843 -13.9552,-17.0229 -25.6932,-10.0573 -12.4524,7.0315 -18.1294,25.3349 -10.5096,37.7698 7.2864,8.6995 19.6731,14.0133 27.0909,2.6428 8.8445,-4.891 17.5772,-16.3438 26.1818,-17.6242 7.1205,12.8571 18.2054,-8.5517 28.2578,2.2912 11.6889,9.2705 17.3444,26.4183 10.6151,40.3142 -5.1019,14.9491 -18.5031,25.8073 -33.0478,31.0451 -14.1848,4.7014 -6.2264,18.9727 -9.0909,29.068 -2.2755,12.0836 -13.5444,18.9487 -22.9206,25.3379 -9.321,3.8351 -22.9696,-0.3287 -26.2165,-10.3159 0.1946,-11.8807 8.255,-21.8468 14.7306,-31.2168 5.9708,-9.3152 2.9436,-20.559 -4.2678,-28.104 -5.7508,-8.8941 -5.5284,-20.8729 2.3168,-28.4652 0.3119,-5.8491 -18.9316,-7.4201 -18.865,-18.2319 -1.7445,-4.9783 -2.3088,-10.3324 -1.4863,-15.5532 z m 12.3379,123.0834 c 6.5199,9.7816 20.8156,8.473 27.7,-0.2172 9.8,-6.0394 16.2472,-18.48 12.6084,-29.884 -3.0161,-11.4948 8.2578,-18.7796 17.6473,-21.6072 16.0838,-7.6552 29.1683,-25.0892 27.0883,-43.473 -2.8193,-9.1337 -8.8317,-23.0758 -20.5012,-21.0594 -6.0601,3.0789 -12.8639,8.8773 -18.2684,1.224 -14.4551,10.8942 -32.737,19.5115 -40.428,36.932 -3.3298,11.2716 6.8042,19.4858 10.5416,28.9633 3.558,12.1086 -5.696,21.9697 -11.7672,31.2311 -2.293,5.3731 -7.077,11.8467 -4.6208,17.8904 z m 23.5214,32.7371 c 1.8171,-5.782 8.9829,-3.2986 3.6997,1.3119 -0.9502,7.4669 5.0289,-0.1442 1.3319,-2.6861 14.4889,-0.3766 -3.2138,18.548 -5.3009,5.373 l -0.2325,-2.0488 z m 29.8126,-199.1236 c 1.4421,-7.6926 9.3632,-8.5804 5.8388,-0.8828 9.9741,-9.0716 19.3167,0.015 23.5021,9.7001 4.8532,9.0645 19.3587,16.854 11.0496,28.5808 -12.5111,5.9934 -7.2049,-17.6266 -17.1103,-20.4875 -7.082,-5.3529 -19.8631,-9.5353 -23.2802,-16.9106 z m 9.0959,4.0987 c 8.6966,7.4808 24.7665,10.2783 24.247,24.4206 -0.2077,8.4042 5.5765,8.3146 5.6739,0.206 -4.7255,-9.6812 -14.0004,-16.3366 -18.6284,-26.3755 -0.6207,-6.6031 -12.6607,-1.4438 -11.2925,1.7489 z m -9.0775,230.4918 c 9.3532,-0.4084 -5.8189,-3.7108 0,0 z m 13.9964,0.081 c 33.6097,1.185 67.2955,2.3402 100.7781,5.6722 8.0583,0.1782 23.8126,6.4295 17.5683,-7.1478 -5.525,-29.9599 -8.7066,-60.1361 -12.5192,-90.307 -1.0771,-14.0941 -1.8486,-28.23 -4.0502,-42.1384 -0.3346,-10.6603 -1.5535,-21.2592 -3.3506,-31.7053 -1.6748,-11.2419 -3.0289,-22.4669 -4.8631,-33.6312 -2.1091,-10.643 -1.741,-21.4109 -3.6843,-32.1955 -0.4689,-8.9713 -2.3738,-18.666 -1.9826,-27.2017 -3.651,6.6174 -6.1604,14.5884 -9.9493,21.413 -4.1758,7.4662 -5.2272,15.8577 -9.3945,23.2701 -11.001,25.7267 -20.945,51.896 -29.1674,78.6727 -6.8341,20.6145 -14.3514,41.0928 -21.9244,61.4891 -7.5811,18.7268 -13.1792,38.0583 -18.4458,57.555 -0.2651,5.1404 -10.27,19.0863 0.985,16.2548 z m -22.1934,101.9053 c 0.7972,0.5519 -0.8182,0.2706 0,0 z M 472.06331,0 c 1.1022,0.082 -0.7445,0.7134 0,0 z"
     id="path3754"
     inkscape:connector-curvature="0"
     sodipodi:nodetypes="cccccccccccccccsccccccccccccaccccccccscccccscscccccccccscccccccccssscccccccccccccccccccccccccccccccccccccccccccccccccccccacccccccccccccccccccccccccccccccccccccccccccccccccccccccccccccccccccccaccccccccccccccscccccccccccccccccccccccccccccccccccccccccccccccccccccccccccccccccccccccccccccccccccccccccccccccccccccccccccc" />
  <path
     style="fill:#ffffff;fill-opacity:1;stroke:none"
     d="m 128.80143,45.611763 c -13.2985,1.475924 -26.36204,4.677722 -39.65358,6.337393 -5.34163,1.386751 -12.20839,1.10598 -16.12981,5.400768 0.43474,4.822157 -3.04395,8.843009 -7.6157,10.089178 -7.93708,3.163286 -16.91933,1.431149 -24.84325,4.187551 -9.39226,6.977997 -19.08506,13.832798 -27.25162,22.261283 -4.19382,5.585177 -7.9637,12.287444 -8.46189,19.353864 1.25297,4.87787 7.52322,4.09065 10.97876,2.23481 13.09969,-4.78619 25.15384,-11.9865 38.31717,-16.66342 19.81345,-9.024184 40.03164,-17.488947 58.64742,-28.857218 7.39582,-4.972339 14.27519,-10.664567 21.60571,-15.717569 2.2053,-1.535382 4.82821,-6.698497 1.43667,-8.105909 -2.29343,-0.559359 -4.68082,-0.631677 -7.02988,-0.520731 z"
     id="path3013"
     inkscape:connector-curvature="0" />
  <path
     style="fill:#ffffff;fill-opacity:1;stroke:none"
     d="M 129.12689,64.271317 C 114.07995,76.42834 96.58704,84.870419 79.11494,92.889867 63.78508,101.21329 46.82962,106.24095 31.66326,114.80399 c -2.80928,5.40733 -0.17182,12.00055 0.47734,17.72658 1.70347,10.30129 5.16397,21.28974 14.40691,27.27333 9.93128,7.39749 22.12291,13.51701 34.86733,11.54288 16.52919,-1.45102 33.7067,-1.31859 49.40443,-7.29024 16.55894,-11.10197 28.00559,-28.44992 35.43281,-46.69287 3.2583,-10.62266 3.12082,-22.763264 -1.36756,-32.994969 -7.35348,-10.762926 -17.97368,-19.339147 -29.79091,-24.78397 -1.98891,1.562196 -3.97782,3.124391 -5.96672,4.686586 z m 8.70056,30.224139 c 4.06126,0.634788 3.52237,9.221074 -1.17165,6.639334 -2.30884,-1.517804 -1.54509,-6.134591 1.17165,-6.639334 z M 87.27307,110.44287 c 2.96307,0.88714 3.05452,7.60917 -0.45564,6.98648 -2.36895,-1.01165 -4.13551,-4.14979 -1.25843,-5.83653 0.52672,-0.40006 0.98986,-1.12151 1.71407,-1.14995 z m 37.25402,9.76372 c 2.5602,1.67592 -0.90965,5.16928 -2.49517,6.40066 -2.76909,1.72397 -6.51224,5.32111 -9.87221,3.71021 -2.62958,-3.82192 3.56297,-5.33095 5.72757,-7.0576 2.13975,-1.08634 4.22336,-2.69845 6.63981,-3.05327 z m -45.8027,22.67353 c 5.35048,1.81075 6.85318,11.04872 13.51733,9.93729 3.00537,-0.86002 -1.1707,3.64102 -2.23481,3.8621 -4.26827,1.82651 -8.90733,-2.51291 -10.91367,-6.05351 -0.75016,-1.83932 -3.50163,-6.84528 -0.36885,-7.74588 z"
     id="path3015"
     inkscape:connector-curvature="0" />
  <path
     style="fill:#ffffff;fill-opacity:1;stroke:none"
     d="m 150.25992,155.63804 c -5.38819,3.06395 -6.72286,10.67321 -12.06362,13.97297 -20.84909,4.47554 -42.26262,5.45972 -63.3557,8.28832 -7.2117,-1.49577 -15.54827,-3.60245 -22.08438,1.22402 -6.06515,5.29816 -12.12333,10.67304 -18.37364,15.80182 -2.23169,2.74662 -7.41998,5.30834 -6.51632,9.3796 3.38821,4.75188 7.42991,11.73455 14.03806,11.4344 3.8663,-2.42532 3.94677,-8.16017 5.97812,-11.98272 2.28757,-4.84108 2.98927,-13.38251 9.77401,-13.66332 3.13915,0.89082 0.0187,5.1371 -0.41974,7.04121 -1.36129,4.29239 -5.03166,8.66253 -4.26684,13.24563 2.45243,0.6371 6.29886,0.10753 6.63933,3.75361 1.06865,4.15431 0.65062,10.24898 6.18369,11.15234 10.44823,2.94473 13.90051,19.40566 3.93235,25.05983 -4.18092,3.6017 -10.11926,5.68088 -15.21487,2.60404 -3.68769,-1.47821 -6.61489,-4.21919 -9.48166,-6.878 -0.0822,11.08519 2.05875,22.08873 4.90356,32.76271 32.27822,0.34495 64.54575,-1.47797 96.70422,-4.07907 9.69852,-0.3947 18.33695,-7.84617 19.68826,-17.53412 2.78038,-16.494 1.77692,-33.37574 1.47786,-50.03008 -1.37225,-17.56071 -5.66512,-35.31634 -14.63527,-50.59851 -0.65401,-0.94003 -1.83924,-1.13991 -2.90742,-0.95468 z m -16.66342,30.28923 c 3.79391,1.0833 10.37263,3.38347 8.31001,8.52699 -1.66823,5.36127 -9.33819,4.4848 -11.19573,-0.26037 -0.37109,-2.4874 -1.08219,-8.5163 2.88572,-8.26662 z M 98.40372,202.5473 c 9.66853,0.93598 18.40127,13.7714 11.34761,22.21788 -3.85579,2.45538 -4.87274,7.74693 -1.5405,11.13065 3.11764,4.0721 8.30328,7.41038 9.41657,12.58435 -2.54086,6.54849 -10.20271,9.82636 -16.77191,10.74009 -9.45595,1.53825 -15.13739,-8.44623 -16.90208,-16.33796 -2.20432,-13.63351 0.13119,-29.50202 10.84858,-39.11997 1.03589,-0.77013 2.29471,-1.28087 3.60173,-1.21504 z m 48.0158,11.71646 c 3.58793,1.58023 5.34609,5.95175 8.85244,7.55061 -1.29692,2.99482 -4.65141,3.38725 -6.96479,1.21504 -2.2472,-1.68174 -5.53489,-6.47841 -2.51687,-8.67886 0.20156,-0.0631 0.418,-0.0943 0.62922,-0.0868 z m -16.18608,2.73384 c 3.08377,0.42001 2.87996,4.84129 5.09884,6.61764 1.77866,4.99863 -5.33858,11.85334 -10.02409,8.39679 -3.21036,-4.61985 -2.8885,-13.51843 3.73191,-14.90594 0.39162,-0.0643 0.79521,-0.16334 1.19334,-0.10849 z"
     id="path3017"
     inkscape:connector-curvature="0" />
  <path
     style="fill:#ffffff;fill-opacity:1;stroke:none"
     d="m 54.09812,215.67408 c -4.4625,3.83258 -8.99977,9.10057 -9.74202,15.16631 1.30381,6.55068 5.38329,12.87596 10.74009,16.88039 6.43406,3.78085 16.8946,-1.61934 14.97104,-9.69863 -1.27168,-6.53022 -7.53194,-10.92498 -13.7777,-11.71647 -2.75769,-2.71105 -0.56011,-7.69735 -2.19141,-10.6316 z"
     id="path3021"
     inkscape:connector-curvature="0" />
  <path
     style="fill:#ffffff;fill-opacity:1;stroke:none"
     d="m 150.25992,155.63804 c -5.3144,2.78459 -6.54463,10.23572 -11.60798,13.45224 -16.62711,4.49574 -34.05818,4.93524 -51.07511,7.24685 -6.67824,0.77022 -13.46143,2.44421 -20.02647,0.10849 -7.72519,-1.55426 -15.70995,1.57136 -20.63158,7.66543 -6.44482,6.10845 -14.55042,10.92678 -19.29119,18.56643 0.60169,4.19335 4.60166,7.46138 7.39873,10.47973 2.45568,2.32853 7.6533,4.70313 9.1345,0.0434 4.03272,-7.35569 4.74219,-16.83622 11.00046,-22.78201 2.92136,-1.72109 4.54239,1.96425 2.95081,4.20924 -1.3649,5.26422 -5.51411,10.10841 -5.25071,15.64365 2.18686,0.88224 5.74854,0.21844 6.42236,3.47155 1.50957,4.20926 0.83133,10.52772 6.48745,11.67307 9.47011,3.15503 13.50383,17.02587 5.44599,23.71499 -5.38795,5.49905 -14.60429,6.85635 -20.6557,1.64899 -2.36996,-1.10673 -6.60507,-7.69654 -5.53277,-1.69238 0.39974,10.12915 2.28055,20.18098 4.96865,29.94207 32.90401,-0.51128 65.8742,-1.22951 98.63527,-4.46961 9.61413,-1.24694 17.30065,-9.49266 18.05204,-19.13689 2.13391,-17.52037 1.83626,-35.30579 0.78109,-52.89767 -2.0374,-16.13399 -5.86189,-32.70557 -14.81915,-46.45361 -0.62674,-0.57476 -1.60211,-0.51268 -2.38669,-0.43395 z m -16.44645,30.37602 c 4.08034,0.74312 10.81423,5.02487 7.42043,9.78542 -3.5195,5.37645 -11.57621,0.92851 -10.80518,-4.81677 -0.0855,-2.1139 0.55302,-5.39002 3.38475,-4.96865 z m -35.12769,16.55493 c 9.11893,1.28515 17.00374,12.48071 11.89004,21.02455 -2.32942,2.67576 -6.15077,5.70034 -3.8187,9.72032 2.62386,5.60576 8.95057,9.00112 10.76179,14.92765 -2.51897,7.04129 -10.95277,10.20927 -17.87846,11.00046 -8.59272,0.49676 -13.82626,-8.65519 -15.49177,-15.94741 -0.87545,-10.01698 -1.69236,-20.8036 3.58678,-29.86878 2.39931,-4.37304 5.5629,-10.01282 10.95032,-10.85679 z m 47.66865,11.84665 c 3.21829,2.05326 6.70859,5.1083 8.07134,8.65717 -4.2087,4.49269 -12.29892,-4.9973 -8.07134,-8.65717 z m -15.9908,2.88572 c 2.86867,0.13869 2.07075,3.84026 4.20924,5.14223 3.30228,5.28658 -3.91309,12.9536 -9.06941,9.50335 -3.5134,-4.52981 -2.66485,-15.01605 4.86017,-14.64558 z"
     id="path3023"
     inkscape:connector-curvature="0" />
  <path
     style="fill:#ffffff;fill-opacity:1;stroke:none"
     d="m 378.70928,88.680618 c -6.3897,0.04366 -12.55094,7.74319 -18.72465,3.059299 -3.52666,-3.93079 -6.98783,2.542789 -10.48146,3.858171 -11.59387,8.519742 -25.09655,16.695012 -31.13368,30.358242 -4.03124,10.40253 5.39016,18.93089 9.04771,27.83746 4.91391,10.52302 -3.15352,20.87233 -8.49951,29.42975 -3.53196,6.38329 -9.08304,13.78153 -6.58001,21.40668 5.89063,8.54518 19.21222,7.67477 25.81961,0.43395 8.3619,-6.33764 16.21711,-16.00494 14.00479,-27.20399 -1.25779,-7.15153 -0.523,-15.98334 6.60751,-19.85715 8.21276,-5.31514 18.22557,-8.05831 24.5748,-15.98272 11.53032,-10.37903 17.29345,-28.80095 8.88222,-42.794874 -2.81263,-4.997567 -7.03978,-10.956028 -13.51733,-10.544818 z"
     id="path3025"
     inkscape:connector-curvature="0" />
  <path
     style="fill:#ffffff;fill-opacity:1;stroke:none"
     d="m 418.74053,4.9729883 c -29.61645,-0.3427607 -59.13844,2.1583712 -88.56779,5.2073177 -8.98702,1.204287 -18.27075,0.608134 -27.09975,2.581961 -5.20242,4.703171 -5.52841,12.638325 -7.6374,18.985012 -7.67136,26.489942 -14.47349,53.241025 -22.95696,79.500441 -12.95277,41.75689 -26.65696,83.30062 -37.69902,125.62079 -2.60588,10.08789 -6.23239,19.89295 -8.62304,30.03255 45.31207,-5.44091 91.02369,-2.38396 136.51185,-2.00556 3.31172,0.15397 7.47196,1.00715 8.57704,-3.07157 3.257,-12.23757 6.25758,-24.60758 10.50918,-36.58301 11.63539,-34.34595 25.35554,-67.95134 36.48887,-102.47636 12.26679,-37.290601 27.30759,-73.603245 43.23171,-109.456048 0.73454,-2.302308 2.90907,-6.4707547 0.37756,-8.1836436 C 447.48644,4.8300541 433.1105,4.9784695 418.74053,4.9729883 z M 370.22569,31.725582 c 2.98224,0.284172 -0.45572,6.63643 3.16229,3.576367 5.61951,-4.549371 13.17184,-0.768763 16.7557,4.451581 4.68802,7.4754 10.05083,14.466472 15.44838,21.436791 3.30631,4.370783 3.56318,12.85318 -2.14802,15.253101 -5.91207,1.353736 -7.08159,-6.472314 -8.58562,-10.490437 -1.31433,-4.832099 -3.34367,-9.719341 -8.33697,-11.754826 -7.02527,-4.941164 -16.06999,-7.942344 -21.11253,-15.182332 -1.16351,-2.975516 1.91612,-6.857369 4.81677,-7.290245 z m -48.21108,25.320582 c 8.13543,-0.03078 11.63298,10.319977 19.48405,10.523121 5.06078,-1.550514 12.48389,-3.538108 15.79553,2.039533 4.99343,4.840319 2.05184,12.476955 -2.49518,16.381353 2.1184,-0.175438 4.98823,-1.470706 6.57424,1.215041 4.52123,4.7052 10.49219,-1.051941 15.40498,-2.148019 6.38346,-3.317235 11.78454,2.605235 15.51347,7.073273 9.07647,9.839394 11.33761,24.901274 5.61956,36.993654 -5.3021,13.53442 -17.0617,23.30373 -30.19929,28.85363 -4.58033,2.15647 -10.59612,4.52152 -10.50457,10.5701 -1.47221,9.66421 1.46233,20.62688 -5.31581,28.83552 -5.26017,7.18203 -12.83883,12.56975 -20.65569,16.66342 -9.35745,2.71693 -22.27967,-1.91994 -24.34421,-12.25889 0.36567,-13.80856 12.04892,-23.40263 16.66342,-35.64843 2.82845,-8.82562 -1.99812,-17.30786 -7.24685,-24.06215 -4.66293,-8.30395 -3.77538,-19.79519 2.69045,-26.90447 -0.35939,-3.7767 -5.6772,-4.64819 -8.24492,-6.74782 -6.00892,-2.81931 -10.66379,-8.21038 -11.15833,-15.022645 -2.77751,-13.10945 3.40782,-28.13048 15.1723,-34.728934 2.26225,-1.042745 4.75346,-1.621748 7.24685,-1.627287 z M 283.1767,172.06279 c 3.92113,0.47094 0.32122,3.92785 -1.69238,4.38283 -5.7353,3.9704 -8.3789,13.1035 -2.66875,18.269 2.83349,2.12239 5.07892,6.15767 2.08293,9.1996 -0.35984,1.3291 -4.26061,4.36569 -3.90549,1.21504 1.18512,-4.44977 -0.22866,-9.10503 -4.01397,-11.84665 -5.31873,-4.74568 -0.75524,-11.68217 2.2999,-16.20778 1.94335,-2.38484 4.54894,-5.16298 7.89776,-5.01204 z m 55.76169,61.68502 c 1.75772,0.16085 2.24757,2.63169 4.40453,2.16971 3.50705,1.06762 3.18128,5.42319 0.54242,7.33364 -2.17361,2.94256 -7.5818,4.4853 -8.61377,-0.28206 -1.26267,-3.35251 -0.52115,-8.51972 3.66682,-9.22129 z"
     id="path3027"
     inkscape:connector-curvature="0" />
  <path
     style="fill:#ffffff;fill-opacity:1;stroke:none"
     d="m 320.5609,61.407293 c -7.66912,1.589089 -12.62244,9.134264 -15.75213,15.79553 -2.52599,9.054063 -2.6366,21.363795 6.0969,27.229927 5.97755,4.88302 16.11838,6.37373 21.15472,-0.62921 5.6317,-5.05992 12.53006,-9.143829 17.63979,-14.537098 -1.82112,-0.983014 -2.56424,-3.130422 -0.67261,-4.686586 2.60057,-3.016601 8.30831,-7.516402 4.27434,-11.629676 -3.74322,-4.13895 -9.22231,-1.23125 -13.49563,0.04339 -7.93529,-0.224418 -11.33574,-11.301143 -19.24538,-11.586281 z"
     id="path3029"
     inkscape:connector-curvature="0" />
  <path
     style="fill:#ffffff;fill-opacity:1;stroke:none"
     d="m 380.77051,37.648906 c -2.01722,0.765332 -6.2123,1.236224 -6.24878,3.862094 7.13508,7.293722 19.99212,9.518461 23.25935,20.351933 1.42981,3.247311 -0.28227,8.843689 3.44985,10.631607 3.51489,-1.481954 2.4718,-7.013943 0.26036,-9.351475 -5.8648,-8.212535 -12.53048,-15.898468 -17.76997,-24.517787 -0.75687,-0.787524 -1.87746,-1.123199 -2.95081,-0.976372 z"
     id="path3031"
     inkscape:connector-curvature="0" />
  <path
     style="fill:#ffffff;fill-opacity:1;stroke:none"
     d="m 466.17052,17.01491 c -4.70099,8.974678 -8.99029,18.308244 -12.75828,27.751619 -9.10182,23.043077 -19.01077,45.784988 -26.8507,69.314341 -11.42402,34.0265 -23.70091,67.75352 -35.80526,101.53978 -6.23515,17.70672 -10.97916,35.92194 -16.45152,53.84068 -1.01553,4.84872 5.58419,2.23326 8.49857,3.11172 34.82272,1.51326 69.73673,2.55389 104.39173,6.41333 3.38084,0.54182 8.0989,1.54748 10.87028,-0.99807 0.35394,-5.70873 -2.00996,-11.48181 -2.51687,-17.22754 -6.31087,-37.1814 -10.5199,-74.6776 -13.7958,-112.23439 -2.31832,-26.21784 -6.11287,-52.263289 -9.77144,-78.320322 -2.46295,-17.640659 -3.5583,-35.663674 -5.81071,-53.191148 z"
     id="path3033"
     inkscape:connector-curvature="0" />
  <path
     style="fill:#ffffff;fill-opacity:1;stroke:none"
     d="m 142.68761,333.09909 c -6.11157,1.01231 -13.63749,1.17178 -18.09543,5.96672 0.39913,2.88306 5.20768,2.67401 7.33364,3.92718 7.32093,2.0341 15.02041,4.25178 22.54335,4.27434 3.93168,-7.95102 -4.00241,-14.99632 -11.78156,-14.16824 z"
     id="path3035"
     inkscape:connector-curvature="0" />
  <path
     style="fill:#ffffff;fill-opacity:1;stroke:none"
     d="m 60.04314,330.40864 c -10.74552,4.82987 -17.92577,15.69357 -21.50188,26.60071 -1.34157,4.04522 0.8201,11.83904 6.33557,9.76372 10.8212,-5.52952 12.94535,-18.81075 15.77383,-29.46473 -0.0888,-1.54558 1.98675,-6.69883 -0.60752,-6.8997 z"
     id="path3037"
     inkscape:connector-curvature="0" />
  <path
     style="fill:#ffffff;fill-opacity:1;stroke:none"
     d="m 233.5553,108.90237 c -4.25179,2.38885 -4.24581,8.69441 -3.99227,13.06169 0.17172,5.33343 7.49672,6.99274 10.24105,2.58196 3.85903,-5.18275 -0.72548,-12.15262 -4.96864,-15.47007 -0.38745,-0.18704 -0.85845,-0.26215 -1.28014,-0.17358 z"
     id="path3039"
     inkscape:connector-curvature="0" />
  <path
     style="fill:#ffffff;fill-opacity:1;stroke:none"
     d="m 220.51531,104.71482 c -1.60694,2.01519 1.25934,5.61783 3.16779,6.74781 3.91981,1.76059 2.7625,-4.81545 0.28206,-5.64126 -0.99897,-0.67238 -2.22648,-1.19467 -3.44985,-1.10655 z"
     id="path3041"
     inkscape:connector-curvature="0" />
  <path
     style="fill:#ffffff;fill-opacity:1;stroke:none"
     d="m 229.13259,94.508738 c -0.55509,2.736001 -0.23775,5.650322 -0.91128,8.396802 0.49001,1.68953 3.53322,0.44136 3.39561,-1.17165 0.23741,-2.316256 -0.13102,-6.166325 -2.48433,-7.225152 z"
     id="path3043"
     inkscape:connector-curvature="0" />
  <path
     style="fill:#ffffff;fill-opacity:1;stroke:none"
     d="m 220.41033,71.075809 c -1.64053,1.909875 -1.51666,4.886532 -1.57304,7.301093 0.90566,4.954009 6.81858,8.174349 11.56458,6.953939 1.87282,-0.955381 3.37741,-4.689323 0.64007,-5.521926 -3.12641,-1.116622 -7.4184,-1.591688 -8.36081,-5.443721 -0.53727,-1.148873 -0.99002,-2.799602 -2.2708,-3.289385 z"
     id="path3045"
     inkscape:connector-curvature="0" />
  <path
     style="fill:#ffffff;fill-opacity:1;stroke:none"
     d="m 224.16394,56.57126 c -1.59342,2.46469 -2.45877,5.36352 -1.62728,8.266617 1.39529,4.121351 4.3196,7.943877 8.07134,10.186815 1.69795,0.478945 1.12124,-2.278546 0.86788,-3.178634 -1.84945,-5.071296 -4.49997,-9.957391 -4.77703,-15.475005 -0.20972,-2.612302 -0.46422,-4.966692 -1.76432,-1.299983 -0.25686,0.500063 -0.51372,1.000126 -0.77059,1.50019 z"
     id="path3047"
     inkscape:connector-curvature="0" />
  <path
     style="fill:#ffffff;fill-opacity:1;stroke:none"
     d="m 129.0653,45.408073 c -9.10689,0.498972 -17.87812,3.330838 -26.91532,4.415371 -8.71004,1.77594 -17.86159,1.787168 -26.21016,5.066286 -1.704,0.802299 -4.12613,1.190024 -3.0593,3.612577 0.21585,5.651193 -5.72767,8.72197 -10.45263,9.912402 -6.59574,1.735767 -13.58197,0.872835 -20.20545,2.346491 -5.01588,2.125074 -8.67745,6.388036 -13.17441,9.356651 -6.09255,4.871612 -12.57422,9.501181 -17.54877,15.562534 -2.65246,4.838565 -5.55677,9.737585 -6.81291,15.155465 -0.95201,3.36537 2.04775,6.76082 5.48895,6.16635 8.32595,-1.25395 15.77235,-5.59253 23.31403,-9.09547 12.52173,-6.45685 26.23786,-10.204268 38.629,-16.947383 14.9176,-7.601604 30.74896,-13.654207 44.50388,-23.351021 4.79692,-3.536494 9.25624,-7.513585 14.39703,-10.5783 3.02888,-2.218443 7.72177,-4.957814 6.45371,-9.441389 0.0746,-2.375347 -2.85075,-1.559386 -4.44548,-2.058874 -1.3147,-0.137428 -2.64159,-0.175392 -3.96217,-0.12169 z"
     id="path3049"
     inkscape:connector-curvature="0" />
  <path
     style="fill:#ffffff;fill-opacity:1;stroke:none"
     d="M 131.90763,61.930458 C 117.14853,74.209316 100.12636,83.43038 82.57005,91.035771 70.46333,97.262743 57.93313,102.58642 45.38229,107.83943 c -4.83895,2.34233 -10.19084,4.05359 -14.33389,7.56367 -1.57349,2.60089 -0.40531,5.87992 -0.36885,8.74395 1.38113,9.22353 2.76497,18.80699 7.38788,27.05636 4.61576,7.43597 12.50385,11.99849 20.02648,16.02335 6.14479,3.14239 13.00611,5.02759 19.95053,4.44792 11.89031,-0.46598 23.74393,-1.6921 35.58334,-2.82063 6.15251,-1.12433 12.32007,-2.6189 18.10628,-5.0012 6.97016,-5.09779 13.3542,-11.13169 18.6487,-17.97609 7.07778,-10.05527 14.04398,-20.61978 17.26498,-32.62298 1.73542,-8.12552 1.26908,-16.734326 -0.92831,-24.726491 -1.06871,-4.276322 -3.56161,-7.978434 -6.83331,-10.88809 -7.34473,-7.248711 -15.09817,-14.738027 -25.08192,-18.127974 -0.96552,0.806411 -1.93104,1.612822 -2.89657,2.419233 z m 5.95587,32.903738 c 2.15454,0.02324 2.82737,3.045239 2.56027,4.795071 -0.3639,2.633223 -4.06439,2.273673 -4.83847,0.08679 -0.87067,-1.647807 0.12759,-4.163636 1.74662,-4.860163 0.1771,-0.0093 0.35386,-0.03132 0.53158,-0.0217 z M 87.4827,110.66227 c 2.17473,0.88821 2.19946,4.29023 1.19335,6.0969 -1.55356,1.98526 -3.64564,-0.67997 -4.43707,-2.08292 -0.58323,-1.79097 1.6295,-3.82801 3.24372,-4.01398 z m 37.05875,9.72033 c 1.7291,0.57593 0.3981,3.14182 -0.41225,4.02482 -2.69339,3.02496 -6.3391,5.58106 -10.36039,6.31387 -2.32595,0.15118 -3.24096,-3.59008 -0.76423,-4.22938 3.6822,-2.17239 7.14388,-5.12327 11.36329,-6.12016 l 0.17358,0.0108 z m -45.91119,22.49995 c 3.84279,1.3257 5.20754,5.83697 8.11474,8.38595 1.47387,2.00474 3.97853,1.65825 6.12945,1.71408 0.59345,0.99873 -1.1887,2.05489 -1.81172,2.75553 -2.20777,2.25827 -5.53399,1.16568 -7.72418,-0.50988 -3.59847,-2.58983 -6.61846,-7.2669 -5.55447,-11.8141 0.14195,-0.32495 0.48724,-0.55745 0.84618,-0.53158 z"
     id="path3051"
     inkscape:connector-curvature="0" />
  <path
     style="fill:#ffffff;fill-opacity:1;stroke:none"
     d="m 128.60966,222.95591 c -1.20064,0.84019 -1.01831,3.09188 -0.44479,4.25264 2.18636,0.16813 3.42388,-3.51763 0.97637,-4.1984 -0.17278,-0.0549 -0.35069,-0.0893 -0.53158,-0.0542 z"
     id="path3053"
     inkscape:connector-curvature="0" />
  <path
     style="fill:#ffffff;fill-opacity:1;stroke:none"
     d="m 136.64846,190.45356 c -1.17402,0.23812 -1.7227,2.51709 -0.83534,3.081 1.42989,-0.2057 3.3955,-2.38405 1.23674,-3.09184 -0.13206,-0.0109 -0.27231,-0.0288 -0.4014,0.0108 z"
     id="path3055"
     inkscape:connector-curvature="0" />
  <path
     style="fill:#ffffff;fill-opacity:1;stroke:none"
     d="m 99.53547,207.88723 c -3.35296,-0.15765 -4.4162,3.69211 -6.0854,5.86634 -4.62519,7.59879 -6.10591,16.71729 -5.1368,25.48429 -0.0678,5.50577 2.67263,11.1102 7.67472,13.68182 4.31013,2.19522 9.79333,0.83767 13.09195,-2.57368 1.43192,-1.24028 3.92509,-3.01832 2.38897,-5.13966 -3.01873,-4.83513 -8.46736,-7.95935 -10.63161,-13.3329 -1.03218,-2.94377 0.51607,-6.12468 3.29797,-7.38789 5.51721,-4.2799 3.96924,-15.23554 -3.33051,-16.53323 -0.41782,-0.0698 -0.84652,-0.091 -1.26929,-0.0651 z"
     id="path3057"
     inkscape:connector-curvature="0" />
  <path
     style="fill:#ffffff;fill-opacity:1;stroke:none"
     d="m 54.11248,215.19917 c -3.67024,2.68864 -6.0951,6.80767 -8.52699,10.59906 -1.44952,2.35316 -2.58108,5.3563 -0.79455,7.87983 2.83904,5.72136 5.81932,12.44645 12.06623,15.09746 5.77793,2.04271 13.75321,-2.24448 13.68005,-8.7765 -0.41759,-6.89007 -6.37557,-13.17713 -13.36544,-13.50648 -2.86654,-1.08199 -1.91678,-4.95307 -2.31155,-7.34368 -0.28836,-1.09101 0.29134,-3.32223 -0.74775,-3.94969 z"
     id="path3059"
     inkscape:connector-curvature="0" />
  <path
     style="fill:#ffffff;fill-opacity:1;stroke:none"
     d="m 150.8167,154.83768 c -3.49964,1.01297 -4.82674,5.0333 -6.80046,7.73723 -1.91041,3.42661 -4.54583,6.98555 -8.7688,7.4438 -16.67507,3.65545 -33.80691,4.34975 -50.70415,6.50862 -5.20808,0.7003 -10.57599,1.80521 -15.70929,0.0292 -5.55573,-1.20239 -11.99165,-1.36191 -16.53324,2.62535 -5.46428,4.71376 -10.69827,9.70279 -16.38135,14.16825 -3.37696,3.02629 -7.02163,6.06225 -8.95008,10.2736 3.15201,4.61187 6.63137,9.4617 11.66223,12.13956 3.24825,1.55468 6.11456,-1.63758 6.79823,-4.56514 2.75394,-6.54433 3.84302,-14.05073 8.5525,-19.59465 1.1069,-1.78801 4.74571,-2.07862 4.66489,0.62922 -0.81384,4.8599 -3.74886,9.09268 -5.41019,13.69941 -0.41908,1.4561 -1.97358,4.0691 -0.17683,5.11203 2.21359,-0.076 5.32237,-0.44249 6.06436,2.34329 1.59676,3.45492 0.54134,8.1474 3.69937,10.76179 2.72348,1.42517 5.97303,2.06067 8.12558,4.48046 5.34338,5.08383 6.65,14.99385 0.62922,20.09157 -3.19761,2.80787 -6.98636,5.59795 -11.49949,5.08798 -5.72935,0.5116 -10.53944,-3.55057 -14.29698,-7.38656 -1.97349,-2.5576 -0.54963,2.33459 -0.80425,3.54617 0.60399,9.77635 1.94292,19.61949 5.00349,28.94211 3.58627,0.41792 7.73668,-0.0315 11.53969,0.0532 24.13829,-0.0779 48.24914,-1.35804 72.31699,-3.11908 8.16528,-0.72395 17.33498,0.32071 24.26974,-4.94428 6.92191,-4.44666 9.05339,-13.13654 9.34268,-20.8645 0.51772,-9.59239 1.75127,-19.18019 1.49412,-28.79449 -0.7785,-10.67305 -0.99513,-21.44012 -3.40052,-31.92024 -2.29412,-11.6188 -6.2921,-22.9708 -12.39501,-33.13868 -0.54726,-0.69771 -1.42438,-1.32591 -2.33245,-1.34523 z m -17.61809,31.18966 c 3.21938,0.35089 6.2929,2.35563 8.31001,4.82762 2.07734,3.77527 -2.17165,8.43465 -6.17284,7.00818 -3.43978,-0.65821 -5.28914,-4.21529 -4.72998,-7.49636 0.0665,-1.68981 0.31725,-4.38104 2.59281,-4.33944 z m -34.6612,16.67427 c 8.83779,0.8262 16.2384,11.19493 12.58435,19.67932 -1.42023,3.17901 -5.83243,4.83835 -5.13138,8.87414 0.93285,5.19511 5.80255,8.31684 8.79262,12.33031 1.1187,1.47318 2.6748,3.20509 2.72589,4.99632 -3.26918,6.63738 -10.95506,10.06501 -18.03851,10.55421 -6.44386,0.5098 -11.07181,-5.09096 -13.46308,-10.42548 -2.93205,-7.11046 -2.88143,-15.0976 -2.17732,-22.63783 1.10927,-8.0677 4.4565,-16.30083 10.73685,-21.70031 1.15353,-0.8518 2.50935,-1.60682 3.97058,-1.67068 z m 49.36103,12.67114 c 2.37416,1.99335 4.21939,4.58849 6.30302,6.82375 0.43647,2.16814 -2.94607,2.33941 -4.27434,1.49711 -3.00205,-1.3212 -5.83978,-5.16458 -4.25264,-8.42935 0.78901,-1.65113 1.15048,-0.54016 2.22396,0.10849 z m -17.91101,1.85511 c 1.75942,-0.0671 3.01215,1.69351 2.51687,3.30881 2.13522,1.5251 3.82221,4.45138 2.41924,7.07328 -1.30677,3.453 -5.85616,6.77033 -9.36233,4.36112 -2.21942,-3.0131 -2.37338,-7.35286 -1.28013,-10.82688 1.04805,-2.1321 3.26421,-3.90565 5.70635,-3.91633 z"
     id="path3061"
     inkscape:connector-curvature="0" />
  <path
     style="fill:#ff2a2a;fill-opacity:1;stroke:none"
     d="m 320.84857,60.445142 c -3.87647,0.315775 -7.11951,2.941232 -9.89391,5.478532 -6.24635,6.377939 -9.7088,15.532786 -8.70002,24.467389 0.47183,3.911042 1.5942,7.958105 4.18907,11.017277 4.02618,4.4252 9.45809,8.19638 15.6199,8.40868 4.04872,0.0711 7.95042,-1.97906 10.36845,-5.18878 1.67548,-2.17485 4.31561,-3.22219 6.33062,-5.031777 4.26253,-3.343495 8.30399,-6.970919 12.60294,-10.250708 0.62907,-0.655933 -0.3077,-1.412112 -1.00892,-1.122828 -1.44888,0.167974 -2.18313,-1.851434 -1.18792,-2.804358 1.22478,-1.823229 3.0544,-3.057732 4.6557,-4.485581 2.03905,-1.894825 2.66543,-5.170355 1.06692,-7.534644 -2.21851,-3.567958 -7.32664,-4.780266 -10.97255,-2.729315 -1.84681,0.862343 -3.86309,2.201434 -5.96208,1.400365 -3.58869,-0.93179 -5.86112,-4.140489 -8.41775,-6.588577 -2.36953,-2.383068 -4.9956,-5.255828 -8.69045,-5.035675 z"
     id="path3012"
     inkscape:connector-curvature="0" />
  <path
     style="fill:#ff2a2a;fill-opacity:1;stroke:none"
     d="m 128.70957,222.23469 c -1.6307,0.19716 -1.86911,2.16853 -1.6544,3.48239 0.17459,0.80428 -0.0167,2.21319 1.05773,2.36499 1.8749,-0.31482 3.85703,-2.29984 2.92912,-4.27434 -0.4297,-0.85655 -1.32446,-1.63407 -2.33245,-1.57304 z"
     id="path3016"
     inkscape:connector-curvature="0" />
  <path
     style="fill:#ffff00;fill-opacity:1;stroke:none"
     d="m 136.60655,190.18348 c -3.45184,0.11025 -2.03263,5.5739 0.91128,3.34137 1.98418,-1.09375 1.6075,-3.67707 -0.91128,-3.34137 z"
     id="path3018"
     inkscape:connector-curvature="0" />
  <path
     style="fill:#ffff00;fill-opacity:1;stroke:none"
     d="m 381.11181,36.871376 c -2.55807,0.690998 -6.50003,1.347815 -7.24685,4.27434 2.47491,4.645524 8.43624,6.266968 12.46257,9.389099 5.95261,3.296808 11.26623,8.554515 11.53448,15.8013 0.21842,2.452232 0.6801,7.969428 4.36113,6.487449 4.32894,-4.00646 0.46808,-9.875418 -2.43008,-13.452237 -5.28108,-6.927988 -10.85922,-13.749364 -15.2531,-21.241516 -0.85723,-0.939125 -2.16161,-1.420899 -3.42815,-1.258435 z"
     id="path3020"
     inkscape:connector-curvature="0" />
  <path
     style="fill:#0000ff;fill-opacity:1;stroke:none"
     d="m 378.03081,87.66442 c -5.02197,0.703137 -9.36791,5.14205 -14.5371,4.599797 -2.71728,-0.216134 -4.97994,-3.934728 -7.74588,-1.648984 -12.64952,8.443363 -26.00726,16.979717 -35.1277,29.377947 -4.73333,6.04304 -5.39728,14.69415 -1.04544,21.07582 3.70407,7.67062 11.02968,15.42293 7.79326,24.5533 -3.5994,12.68122 -15.80096,22.23656 -16.42475,35.84371 0.65572,8.22667 10.75734,11.09294 17.63979,9.56844 7.46667,-1.60761 12.85596,-7.90137 18.07373,-13.08338 6.16443,-6.30641 7.52643,-15.6638 5.96672,-24.04045 -1.12803,-6.62872 2.22444,-13.31759 8.24492,-16.35966 11.63082,-5.69743 23.83801,-12.20811 30.3193,-24.0293 5.79779,-9.43702 8.69387,-21.98028 2.92074,-32.12294 -2.90256,-6.591268 -8.09436,-13.860793 -16.07759,-13.7343 z"
     id="path3022"
     inkscape:connector-curvature="0" />
  <path
     style="fill:#00ff00;fill-opacity:1;stroke:none"
     d="m 98.89689,207.43272 c -4.48104,1.01311 -5.94979,6.47844 -8.00625,10.02409 -4.06806,9.65995 -4.98664,21.38675 -0.56413,31.02693 3.89796,7.05488 15.05259,8.10211 19.96139,1.5622 2.17892,-1.49026 3.40408,-4.25922 0.93298,-6.1186 -3.28055,-4.88349 -9.50819,-8.75881 -9.959,-15.01443 1.08551,-3.46176 5.67581,-4.68686 6.20539,-8.59208 1.88845,-5.74053 -1.64676,-13.56404 -8.57038,-12.88811 z"
     id="path3024"
     inkscape:connector-curvature="0" />
  <path
     style="fill:#00ff00;fill-opacity:1;stroke:none"
     d="m 340.60044,236.0213 c -1.77263,1.10427 -3.17301,3.74734 -1.88709,5.73799 1.22326,1.069 2.57273,-0.66258 2.86132,-1.78737 0.35992,-1.23902 0.66404,-3.1047 -0.56766,-3.93527 -0.13231,-0.0393 -0.27206,-0.0376 -0.40657,-0.0154 z"
     id="path3028"
     inkscape:connector-curvature="0" />
  <path
     style="fill:#0000ff;fill-opacity:1;stroke:none"
     d="m 99.23326,206.93823 c -6.66172,1.50679 -8.72658,9.42767 -10.62216,15.07589 -2.31849,9.75845 -3.34288,21.77402 3.57058,29.92401 5.7195,5.11992 15.26575,3.77741 19.63593,-2.45177 3.45823,-3.13234 -0.9727,-6.77437 -2.82063,-9.35148 -2.30451,-3.40182 -6.14633,-6.62061 -6.83461,-10.74009 2.22257,-4.29181 7.51554,-7.56876 6.31388,-13.14848 -0.01,-4.95477 -3.99657,-9.86403 -9.24299,-9.30808 z"
     id="path3034"
     inkscape:connector-curvature="0" />
  <path
     style="fill:#ffff00;fill-opacity:1;stroke:none"
     d="m 225.5975,52.280899 c -2.71144,4.704169 -5.65024,10.664809 -2.25651,15.817227 1.81824,3.099149 4.4721,7.157376 8.3968,7.246851 2.40318,-1.827209 -0.82318,-5.332071 -1.10405,-7.58774 -2.24235,-5.012975 -2.92959,-10.545607 -4.23345,-15.758401 l -0.54243,0 -0.26036,0.282063 z"
     id="path3036"
     inkscape:connector-curvature="0" />
  <path
     style="fill:#000000;fill-opacity:1;stroke:none"
     d="m 129.04515,44.903866 c -15.2302,1.454517 -30.23278,4.944049 -45.34081,7.372145 -3.77066,1.280043 -9.1431,1.004838 -11.61423,4.517897 0.39308,3.846722 -1.78743,7.328566 -5.35012,8.879011 -9.6392,5.621528 -22.80717,0.436688 -31.3875,8.682667 -10.1886,8.541492 -23.12093,15.555692 -28.20197,28.523084 -1.81523,4.02868 -5.72108,10.45411 -0.6943,13.756 4.70057,3.12551 10.22789,-1.17769 14.86422,-2.46513 23.24522,-10.86137 47.13849,-20.080706 70.06526,-31.718293 13.68043,-6.22872 26.30615,-14.22234 38.04563,-23.543786 4.08722,-2.613355 11.2875,-7.117683 7.96723,-12.875343 -2.41647,-1.501423 -5.63838,-1.114192 -8.35341,-1.128252 z"
     id="path3038"
     inkscape:connector-curvature="0" />
  <path
     style="fill:#ff0000;fill-opacity:1;stroke:none"
     d="m 64.51781,59.137201 c -4.18505,1.503843 -9.22166,2.758628 -12.10702,6.313872 0.35948,2.363516 3.88065,-0.40331 5.29411,-0.08679 3.10665,-1.095172 8.33761,-0.932792 9.45996,-4.664889 -0.14562,-1.226715 -1.61492,-1.706579 -2.64705,-1.562195 z"
     id="path3040"
     inkscape:connector-curvature="0" />
  <path
     style="fill:#fff6d5;fill-opacity:1;stroke:none"
     d="M 134.59962,58.963623 C 119.9139,71.269516 103.20254,80.626335 85.89917,88.731926 68.91922,97.41314 50.9403,104.06996 33.94651,112.62069 c -3.94099,1.36813 -4.93822,5.55861 -4.20925,9.28638 1.65746,11.77465 3.22638,25.05807 11.52119,34.30321 8.71551,7.96478 19.57237,14.83969 31.54642,16.09748 17.64795,-0.36196 35.47834,-1.35965 52.70364,-5.44418 9.24723,-2.10173 15.35656,-10.16987 21.89243,-16.40305 8.96477,-10.92839 16.83777,-23.31383 20.71953,-36.97712 1.98446,-10.48231 1.76108,-22.251398 -3.79574,-31.629286 -7.6666,-9.746215 -17.70181,-17.9749 -29.11759,-22.955592 l -0.60752,0.06509 z m 3.47155,36.689892 c 2.815,0.955949 1.62224,7.043835 -1.34523,4.100763 -1.01941,-1.429417 -0.38277,-3.633905 1.34523,-4.100763 z M 87.29982,111.68771 c 1.69085,0.52553 1.28746,3.85233 0.0434,4.79508 -2.34592,-0.30159 -3.52638,-3.6164 -0.7377,-4.53471 0.2256,-0.1 0.45203,-0.21174 0.69431,-0.26037 z m 36.68989,9.69863 c 1.56703,0.56404 -0.909,3.24497 -1.75747,3.88379 -2.65378,1.82619 -6.11076,5.42903 -9.50335,4.20925 -0.84377,-2.91679 3.80723,-3.92613 5.45989,-5.42697 1.85903,-0.97956 3.71826,-2.34551 5.80093,-2.66607 z m -45.28196,22.1311 c 4.62063,3.24742 6.90914,9.9596 13.03999,10.6967 -4.04979,4.53612 -10.54309,-0.38376 -12.2589,-4.83847 -0.69335,-1.80216 -1.33515,-3.99014 -0.78109,-5.85823 z"
     id="path3042"
     inkscape:connector-curvature="0" />
  <path
     style="fill:#fff6d5;fill-opacity:1;stroke:none"
     d="m 54.03808,214.90109 c -4.71927,3.18391 -8.23887,8.474 -10.37124,13.7343 -0.94629,5.61787 3.24817,10.55681 6.0752,15.01443 3.18021,4.63666 9.01394,7.58994 14.55879,5.3375 6.10895,-1.39253 8.30952,-8.79152 5.51108,-13.95127 -2.16156,-4.78158 -6.78331,-8.6864 -12.02022,-9.02602 -3.75849,-2.39617 -0.86176,-7.99903 -3.25458,-11.08725 l -0.36885,-0.0434 -0.13018,0.0217 z"
     id="path3044"
     inkscape:connector-curvature="0" />
  <path
     style="fill:#fff6d5;fill-opacity:1;stroke:none"
     d="m 233.51696,108.41144 c -4.84785,1.05909 -4.2601,7.56796 -4.75168,11.34762 -0.80939,4.43834 3.02928,9.44606 7.78928,7.87606 5.35405,-1.62942 7.45004,-8.99285 3.62141,-13.17488 -1.4847,-2.44279 -3.16404,-6.42749 -6.65901,-6.0488 z"
     id="path3046"
     inkscape:connector-curvature="0" />
  <path
     style="fill:#fff6d5;fill-opacity:1;stroke:none"
     d="m 220.94412,103.95649 c -1.62417,-0.1068 -2.24924,1.7414 -1.64161,3.01474 0.92207,2.56375 2.80018,5.59531 5.83004,5.71497 1.83166,0.16592 2.54009,-1.8918 2.10955,-3.36761 -0.42532,-3.17297 -3.10532,-5.43115 -6.29798,-5.3621 z"
     id="path3048"
     inkscape:connector-curvature="0" />
  <path
     style="fill:#99ff55;fill-opacity:1;stroke:none"
     d="m 151.1069,154.38407 c -5.29855,1.77345 -7.00313,8.11743 -10.72487,11.79758 -3.04499,4.14132 -9.17152,3.13421 -13.61127,4.53747 -17.75282,2.39528 -35.51381,5.13714 -53.42647,5.53569 -7.61511,-0.83345 -16.58415,-2.62312 -22.63014,3.42815 -8.24786,7.70493 -18.23765,13.93092 -24.49609,23.49802 2.96177,5.16478 7.15655,11.27151 13.12678,13.25696 4.83232,1.52354 6.1683,-4.8027 7.74589,-7.89777 2.74314,-5.78227 3.60861,-13.27982 8.93923,-17.35772 2.84824,-0.70168 1.11972,3.38369 0.67261,4.5998 -1.3302,4.97359 -5.34652,9.85447 -4.5781,15.10122 1.6581,1.85701 5.71398,-0.0978 6.37896,3.12439 1.59429,3.9251 0.57392,9.84962 5.63053,11.46379 6.09776,2.12166 10.89491,7.86808 10.51216,14.5728 -0.58197,8.10841 -9.00215,14.09488 -16.90209,12.77962 -5.32064,-0.1355 -8.84353,-5.11431 -13.06169,-7.594 -1.27983,7.13345 0.71856,14.93842 1.74551,22.23888 1.00969,4.10003 1.30855,8.7733 3.30993,12.36808 32.36715,-0.11134 64.81015,-1.48465 97.0241,-4.25377 9.93341,-0.64254 18.97003,-8.19776 20.37922,-18.20279 3.71549,-29.06665 3.87028,-59.7076 -6.62629,-87.45039 -2.43371,-5.09451 -4.22613,-11.01108 -7.9976,-15.28564 -0.42239,-0.24699 -0.93061,-0.31215 -1.41031,-0.26037 z m -17.83507,32.63252 c 3.35611,0.32197 8.10556,2.88169 8.07135,6.66103 -1.09801,4.24072 -7.22353,4.75875 -9.24299,0.97637 -0.55214,-1.90189 -1.36333,-6.79628 1.17164,-7.6374 z m -34.80224,16.53324 c 9.32328,0.76568 17.15368,13.68471 9.9807,21.28491 -3.39205,2.75314 -4.17833,7.8306 -1.08486,11.13064 2.66054,4.41342 8.36694,7.47149 9.02602,12.77963 -4.0118,7.19758 -13.64461,10.82813 -21.48019,8.96092 -7.5111,-4.33056 -10.94183,-13.62711 -10.20273,-22.02259 -0.57506,-8.84316 0.37673,-17.99695 5.76524,-25.33804 1.96533,-2.81365 4.30951,-6.30231 7.99582,-6.79547 z m 48.1026,12.06362 c 2.45662,1.97922 5.58456,4.35504 6.59594,7.33364 -3.72054,1.08194 -8.44225,-3.74145 -6.70442,-7.37704 l 0.10848,0.0434 z m -17.03227,2.51687 c 2.88905,-0.50337 1.9372,3.70023 4.12246,4.64319 2.86734,3.81262 -2.18822,10.1491 -6.50914,9.1562 -3.14652,-2.36712 -3.23348,-7.63782 -1.67069,-10.95707 1.03805,-1.33728 2.41365,-2.57315 4.05737,-2.84232 z"
     id="path3050"
     inkscape:connector-curvature="0" />
  <path
     style="fill:#99ff55;fill-opacity:1;stroke:none"
     d="m 186.12611,139.08758 c -4.86457,1.47919 -8.06679,5.7882 -13.08339,7.13836 -4.9087,2.31966 -11.59769,2.95972 -14.66728,7.87607 -0.23182,4.95706 4.12729,8.88791 5.31581,13.58242 1.10169,2.87433 3.16485,8.13128 7.20345,6.03181 5.73616,-3.497 11.49956,-6.96014 17.24924,-10.39294 3.37796,-2.25404 6.62041,-6.00037 5.12053,-10.37124 -1.14717,-4.78854 -0.56693,-13.26137 -7.13836,-13.86448 z"
     id="path3052"
     inkscape:connector-curvature="0" />
  <path
     style="fill:#ff0000;fill-opacity:1;stroke:none"
     d="m 59.89205,329.58861 c -11.10399,5.08994 -18.68455,16.26767 -22.19619,27.70727 -1.38352,4.16551 1.15857,11.07797 6.27048,10.56651 5.32977,-1.68781 9.09171,-6.70099 11.80325,-11.34761 2.60052,-8.05227 5.8438,-16.24169 6.20539,-24.75645 0.0179,-1.16081 -0.78236,-2.42515 -2.08293,-2.16972 z"
     id="path3054"
     inkscape:connector-curvature="0" />
  <path
     style="fill:#ff0000;fill-opacity:1;stroke:none"
     d="m 143.05725,332.32245 c -6.50989,0.69681 -13.88729,1.47693 -18.91992,6.03181 -2.2124,2.57734 2.63442,3.5129 4.27434,4.14416 8.38379,2.43779 17.13136,6.16481 25.9715,4.99034 4.14452,-3.63309 1.02938,-10.58783 -3.0593,-13.03999 -2.39457,-1.74394 -5.34058,-2.35586 -8.26662,-2.12632 z"
     id="path3056"
     inkscape:connector-curvature="0" />
  <path
     style="fill:#c8ab37;fill-opacity:1;stroke:none"
     d="m 228.99704,93.874645 c -1.43127,2.309234 -0.65507,5.662361 -1.2134,8.322875 -1.01771,2.37751 1.24726,2.62408 2.82433,1.87969 3.00991,-2.09074 1.54139,-6.839111 -0.0767,-9.389428 -0.32011,-0.5049 -0.87879,-1.058608 -1.53422,-0.813137 z"
     id="path3058"
     inkscape:connector-curvature="0" />
  <path
     style="fill:#e9ddaf;fill-opacity:1;stroke:none"
     d="m 220.49489,71.064688 c -2.37855,1.179929 -2.53813,4.853217 -2.43009,7.246851 1.2578,5.687138 8.69476,9.684538 13.84279,6.682724 1.91923,-2.313579 1.02581,-6.383923 -2.36499,-6.400661 -3.46137,-0.461006 -6.11806,-2.967286 -7.07327,-6.292176 -0.37696,-0.632654 -1.09638,-1.393136 -1.97444,-1.236738 z"
     id="path3060"
     inkscape:connector-curvature="0" />
  <path
     style="fill:#ffffff;fill-opacity:1;stroke:none"
     d="m 415.66108,4.312512 c -37.42896,-0.05592 -74.72028,4.1846943 -111.87537,7.333574 -6.13243,3.219208 -6.27176,11.973783 -8.56162,17.760405 -19.04963,71.440979 -43.32672,141.348319 -62.8159,212.659999 -1.89858,8.12886 -5.7903,16.27764 -6.37679,24.5057 3.98477,2.49723 9.62294,-0.89939 14.13718,-0.36486 43.18764,-3.20505 86.91808,-0.19688 130.04888,-0.92389 5.17599,-10.83169 6.08656,-23.24562 10.58979,-34.4082 13.66112,-40.30642 29.13795,-80.05062 42.5169,-120.36841 C 434.40748,77.998663 448.02836,46.464827 461.31948,14.837265 462.41061,11.564942 465.86692,3.534051 459.632,4.6193573 444.97521,4.513838 430.31857,4.191263 415.66108,4.312512 z m -46.02662,28.505819 c 2.57346,-0.105428 0.58831,4.902334 3.7435,3.221864 6.33901,-4.869607 14.05747,0.224534 17.39806,6.044829 4.77862,8.901161 13.44656,15.543406 16.23205,25.37601 0.97139,3.521905 -2.77961,10.555533 -6.56646,7.732472 -4.94747,-5.05627 -5.0291,-13.514122 -9.09206,-18.891784 -8.2193,-5.923142 -19.01268,-9.519162 -24.8449,-17.898828 -0.87316,-2.060455 0.70733,-5.404807 3.12981,-5.584563 z m -48.6348,25.222588 c 9.18307,-0.678233 13.52842,12.82921 23.2281,9.420115 7.34804,-3.49317 16.78569,3.221116 14.5751,11.322548 0.0752,3.028214 -5.79229,4.819282 -3.59008,7.609734 2.83182,-0.479762 5.4081,-0.02643 7.18016,2.516122 7.63802,3.476962 15.68648,-8.08957 22.98262,-2.117224 14.22077,9.604711 19.2242,30.020976 10.42317,44.910376 -6.4419,13.65489 -19.68519,21.85709 -33.03758,27.9651 -9.09906,4.93059 -5.11959,16.96609 -7.24152,25.25328 -1.57156,13.88081 -13.66856,23.57373 -25.95902,28.22966 -8.47796,2.96264 -19.00776,-2.45535 -21.8473,-10.73955 0.0485,-15.58058 15.21713,-25.77689 17.45943,-40.65685 0.52815,-12.57079 -13.30711,-21.31607 -10.49407,-34.12106 0.43056,-4.56306 2.32245,-8.93809 5.21635,-12.24308 -2.59846,-7.32551 -13.20973,-7.57939 -16.723,-14.32962 -7.91933,-14.811235 -1.3094,-36.630891 14.66715,-42.559285 1.03414,-0.258627 2.08585,-0.482957 3.16049,-0.460266 z M 282.30662,172.73925 c 3.07341,0.29701 -1.73429,3.44306 -2.42407,4.20377 -6.5017,4.91473 -6.39507,15.01888 -0.092,20.06761 3.33181,2.08137 1.45836,7.42275 -1.35012,8.13137 0.0664,-4.81707 -1.65584,-9.46622 -5.21635,-12.94883 -5.16674,-5.56895 1.55551,-12.99778 5.27772,-17.02985 1.09258,-0.98634 2.3671,-2.16066 3.80487,-2.42407 z m 55.87631,62.28936 c 3.22937,0.008 9.23807,3.11123 5.9221,6.81194 -1.45252,3.94659 -8.01652,4.70284 -8.37685,-0.42958 -0.16418,-1.99623 -0.34742,-6.07613 2.45475,-6.38236 z"
     id="path3062"
     inkscape:connector-curvature="0" />
  <path
     style="fill:#ffffff;fill-opacity:1;stroke:none"
     d="m 466.25967,14.837265 c -22.09061,46.09623 -39.08363,94.464135 -55.55384,142.688605 -13.21543,37.57487 -27.52829,74.87292 -37.2665,113.52624 0.80728,3.08452 6.08233,1.27036 8.52627,2.18095 35.10295,1.91659 70.42583,2.542 105.28221,6.62548 3.54404,0.54439 8.75913,1.32533 11.38392,-1.65696 -0.20585,-10.50052 -3.64975,-20.98826 -4.63492,-31.54253 C 485.39878,192.74904 482.745,138.12956 474.60616,84.161015 471.71288,61.039748 468.68165,37.695202 467.14952,14.59179 l -0.55232,-0.06137 -0.33753,0.306844 z"
     id="path3064"
     inkscape:connector-curvature="0"
     inkscape:export-xdpi="90"
     inkscape:export-ydpi="90"
     inkscape:export-filename="/home/jordan/websites/Foundations/assets/art.png" />
</svg>
