<?xml version="1.0" encoding="UTF-8" standalone="no"?>
<!-- Created with Inkscape (http://www.inkscape.org/) -->

<svg
   xmlns:dc="http://purl.org/dc/elements/1.1/"
   xmlns:cc="http://creativecommons.org/ns#"
   xmlns:rdf="http://www.w3.org/1999/02/22-rdf-syntax-ns#"
   xmlns:svg="http://www.w3.org/2000/svg"
   xmlns="http://www.w3.org/2000/svg"
   xmlns:sodipodi="http://sodipodi.sourceforge.net/DTD/sodipodi-0.dtd"
   xmlns:inkscape="http://www.inkscape.org/namespaces/inkscape"
   width="500.80917"
   height="258.11288"
   id="svg2"
   version="1.1"
   inkscape:version="0.48.4 r9939"
   sodipodi:docname="baby.svg"
   inkscape:export-filename="/home/jordan/websites/Foundations/assets/baby.png"
   inkscape:export-xdpi="90"
   inkscape:export-ydpi="90">
  <defs
     id="defs4" />
  <sodipodi:namedview
     id="base"
     pagecolor="#ffffff"
     bordercolor="#666666"
     borderopacity="1.0"
     inkscape:pageopacity="0.0"
     inkscape:pageshadow="2"
     inkscape:zoom="3.1668909"
     inkscape:cx="318.19564"
     inkscape:cy="80.197206"
     inkscape:document-units="px"
     inkscape:current-layer="layer1"
     showgrid="false"
     inkscape:window-width="1366"
     inkscape:window-height="744"
     inkscape:window-x="0"
     inkscape:window-y="24"
     inkscape:window-maximized="1"
     fit-margin-top="0"
     fit-margin-left="0"
     fit-margin-right="0"
     fit-margin-bottom="0" />
  <metadata
     id="metadata7">
    <rdf:RDF>
      <cc:Work
         rdf:about="">
        <dc:format>image/svg+xml</dc:format>
        <dc:type
           rdf:resource="http://purl.org/dc/dcmitype/StillImage" />
        <dc:title></dc:title>
      </cc:Work>
    </rdf:RDF>
  </metadata>
  <g
     inkscape:label="Layer 1"
     inkscape:groupmode="layer"
     id="layer1"
     transform="translate(-1159.3653,-787.9317)">
    <g
       id="g3046"
       inkscape:export-filename="/home/jordan/websites/Foundations/assets/baby.png"
       inkscape:export-xdpi="90"
       inkscape:export-ydpi="90">
      <g
         inkscape:export-ydpi="90"
         inkscape:export-xdpi="90"
         inkscape:export-filename="/home/jordan/websites/Foundations/assets/baby.png"
         id="g3020">
        <path
           style="fill:#000000"
           d="m 1386.6216,788.08031 c 9.5211,0.3542 18.8592,0.7763 28.3212,2.1983 8.0467,1.0537 16.5643,2.8131 24.7338,4.782 10.2046,2.6501 20.5613,5.0328 30.9069,6.9471 2.3667,3.0322 13.6814,3.8217 5.3449,7.7844 -3.3472,4.5031 -3.991,9.1077 1.6472,3.2092 5.729,-4.0389 13.1828,-5.5666 19.6932,-5.6357 13.166,-1.094 26.185,2.3278 39.0354,4.557 14.3374,3.4945 28.6055,9.5168 38.4975,20.917 4.7203,5.1816 9.144,11.63 12.4984,17.2833 2.185,4.6113 5.5872,10.2826 7.112,15.5764 1.3674,5.5621 3.8764,10.5972 4.8287,16.4011 0.1675,5.7705 2.008,6.8296 6.7573,4.7278 9.4384,3.5755 1.6628,17.3565 13.6061,18.0842 6.5126,3.7695 14.0936,8.7932 14.5555,17.1379 0.4513,4.2552 -2.3667,13.1133 3.8601,7.3435 4.2169,2.316 5.2421,-5.6507 9.2412,-5.5238 -1.3866,-4.0735 -6.5026,-10.7541 2.454,-8.1046 8.5671,-0.4925 -9.6468,-16.4212 3.5744,-13.6983 8.3678,-0.877 -7.5307,-6.7601 -10.6306,-7.1769 -5.7299,-1.8974 -11.1343,-8.3925 -3.1959,-12.1318 5.2404,-6.9458 -8.1357,3.8739 -11.2232,4.7364 -2.9459,2.4285 -22.6939,10.3001 -17.7363,3.165 11.8507,-4.6608 28.9022,-12.5771 36.7688,-22.92 1.2529,-4.3689 3.6329,-17.1381 7.5933,-6.1533 0.8744,9.077 -7.7505,14.922 -11.2842,22.2088 5.3818,-1.7136 13.93,5.0301 4.2565,6.481 -10.3786,1.8467 8.8551,3.2787 9.8128,7.9365 6.8545,5.8947 -2.1074,8.627 -5.0355,8.6459 4.061,3.7176 4.9494,14.0125 -2.6899,13.2374 0.1679,4.0203 1.055,13.1079 -2.9124,14.5683 -4.5504,-6.1533 -8.3213,6.159 -14.146,3.4321 -6.5505,9.067 -4.3518,-6.816 -2.7391,-10.8715 2.3503,-8.8763 -4.6396,-14.8032 -11.6364,-18.447 -6.3479,-6.4102 -9.4569,-1.8617 -15.3122,1.3521 -2.8168,5.1137 -1.356,14.0292 -3.7764,20.3184 -3.1179,10.077 -6.8258,19.9957 -10.4312,29.9165 -6.4542,5.8512 -8.7841,15.8351 -17.2254,19.6438 -8.4842,4.8074 -16.5764,10.5654 -25.9449,13.5889 -4.7584,3.2699 -14.5265,4.4403 -16.8259,6.55729 7.671,9.4214 -1.4978,24.0712 -12.8603,23.7657 -4.8426,-0.2173 -7.6358,-5.313 -11.8156,0.5887 -7.8925,3.0882 -17.0252,-1.9885 -24.5733,-4.9414 -6.8371,-5.458 -9.5754,6.8447 -14.2242,10.1541 -4.8685,6.1975 -10.7529,10.4151 -18.0214,12.206 -8.4206,2.8586 -7.8819,-9.5312 -5.2447,-14.4317 4.5058,-7.6697 -3.1101,-5.3004 -7.9756,-3.3782 -8.4094,1.5481 -16.4374,4.7584 -25.2862,5.3602 -10.4137,1.2722 -20.758,3.0135 -31.1978,4.291 -4.4311,4.9849 -7.7814,-1.067 -13.1086,1.2595 -7.6576,0.7605 -13.2666,0.3565 -20.7878,1.2645 -15.6678,1.8914 -31.3179,3.2392 -47.0388,4.4086 -14.5109,1.0794 -29.0275,2.6046 -43.5872,2.3899 -16.9664,-0.2502 -33.7634,4.9597 -50.4889,2.0849 -8.1468,-1.4003 -19.1589,4.2565 -21.5215,-6.7549 -4.7079,-15.6882 -12.7884,-30.1996 -15.5127,-46.50619 -2.462,-14.736 -3.7651,-29.5567 -5.5017,-44.3979 -1.6816,-14.3721 -0.4142,-28.7563 -0.2757,-43.1389 0.1153,-11.9708 2.5941,-23.3825 6.4526,-34.9079 3.7232,-11.1214 6.7721,-24.3305 17.9919,-30.5846 13.2677,-8.9597 27.5273,-16.3792 42.0303,-23.1602 16.1566,-7.5542 33.1538,-12.8494 50.3439,-17.1954 19.0981,-4.8284 38.9648,-6.5749 58.4739,-8.1661 17.0263,-1.3887 34.2534,-2.9214 51.3757,-2.2844 z m 2.2005,0.2789 c 0.4781,0.6882 -0.2602,-0.3746 0,0 z m -6.9314,6.3465 c -9.0061,-0.087 -17.9744,0.4784 -27.0106,1.2268 -13.2941,1.1009 -26.3837,1.9455 -39.6385,3.3976 -11.2174,1.2288 -22.2748,3.4401 -33.3701,5.4505 -11.6028,2.1023 -22.695,6.5075 -33.9733,10.1257 -9.0923,2.9169 -18.0326,6.9019 -26.3303,11.8811 -12.7529,5.8452 -25.0908,12.9217 -36.1915,21.5039 -7.0219,1.0778 -7.7768,8.9397 -9.6919,14.8849 -2.4862,7.7183 -4.2708,15.6154 -6.0554,23.5584 -3.3371,14.8524 -3.9393,29.9115 -3.8159,44.9045 0.1882,22.8734 2.9996,46.0382 8.805,68.2215 3.3079,12.63979 10.1184,23.99589 13.528,36.63289 5.2607,6.5835 17.0394,4.2805 25.0627,4.0631 14.5929,-0.3953 28.9821,-2.9429 43.6504,-2.5338 8.2153,0.2291 16.1048,-0.6723 23.8617,-0.9706 11.8393,-0.4552 24.3604,-2.2738 35.7373,-2.569 2.8581,-0.074 7.7982,-0.5221 11.1819,-0.7923 7.7565,-0.6195 15.5991,-2.0104 23.5227,-2.2135 6.2961,-0.1614 11.602,-0.926 18.2438,-1.506 -2.039,-50.08049 -1.9363,-95.99259 12.2378,-139.59219 2.2522,-9.428 4.3722,-19.196 7.2063,-28.5736 2.1686,-14.8198 8.9863,-28.4502 12.4455,-42.995 0.3768,-7.3301 9.901,-18.2307 5.3148,-23.0835 -8.1184,0.1834 -16.6894,-0.944 -24.7204,-1.0214 z m 32.5544,2.7538 c -4.036,7.8178 -7.4509,16.4008 -9.3588,25.1287 -3.4474,12.3985 -7.8313,24.5549 -11.3124,36.9187 -1.1421,9.2878 -4.4362,18.3551 -6.2004,27.6394 -4.7788,14.9796 -6.2827,30.799 -10.1013,46.0356 -2.3177,14.9443 -4.0296,29.9484 -4.2037,45.0796 -1.473,9.2038 -0.9688,18.8071 -0.4908,28.14199 0.9694,7.473 -0.7961,16.9792 4.1484,22.9163 4.8828,-0.2429 15.1398,-0.072 10.8145,-8.709 -3.3983,-16.7136 -5.3138,-33.69189 -5.3996,-50.75209 -1.2281,-15.3424 0.1476,-30.6662 2.5901,-45.8017 1.7504,-10.5751 4.5924,-20.9435 5.9038,-31.5832 2.7409,-12.1061 5.7405,-24.0957 8.875,-36.1251 2.5808,-11.4849 7.0846,-22.4166 10.2193,-33.7678 2.5399,-8.3336 5.8187,-16.3903 9.5776,-24.2667 -1.6245,-0.2642 -3.5038,-1.2633 -5.0617,-0.8547 z m 13.4188,1.8827 c -1.6824,6.9752 -7.105,13.2494 -8.7365,20.6432 -2.987,6.7601 -4.5835,14.0158 -7.0957,20.9869 -2.9648,7.5542 -5.2528,15.3391 -6.8986,23.3528 -3.0894,11.3636 -12.934,57.5618 -14.0399,69.2909 -3.3905,35.9568 -4.2198,40.1814 0.375,74.74659 0.7544,4.865 3.4713,11.6108 0.5461,16.936 0.065,4.0216 10.2787,-0.4642 14.4747,0.1337 3.871,-0.1724 6.254,-0.5474 10.1894,-1.412 4.3906,-0.2162 7.0315,-2.2652 12.4081,-3.2845 3.474,-0.6211 6.6908,-1.4163 10.3904,-2.5227 2.3534,-1.5103 7.1632,-1.4264 7.2795,-3.7742 -1.3034,-4.9983 -3.3573,-10.9597 -2.8811,-16.70149 -0.3019,-13.0204 -0.8292,-26.0015 -1.5733,-39.0323 0.51,-25.2768 1.9949,-24.9894 0.6619,-31.1897 1.3167,-22.5393 2.6185,-45.458 10.3537,-66.8818 4.0946,-15.7068 9.1433,-31.2459 14.6886,-46.4796 7.7823,-11.2791 -11.6467,-7.3409 -18.0202,-10.5063 -7.2198,-1.5369 -14.2059,-3.844 -21.5355,-4.7677 z m 15.4788,180.625 c -0.2698,0.4979 -0.083,-0.8059 0,0 z m 54.04,-167.5396 c -9.2805,-0.069 -16.9658,5.7801 -25.0312,8.8177 -5.3266,5.3145 -5.3187,15.7176 -8.8047,23.1078 -3.874,12.7861 -7.8405,25.5647 -10.8397,38.5743 -2.1208,13.9019 -3.5767,27.8445 -4.4697,41.8774 -1.9734,7.9463 1.8072,13.6631 8.2936,15.4224 7.7759,2.1092 15.9039,15.6601 21.7068,5.46 8.0019,-6.7877 19.1423,-3.0074 27.8237,0.2047 7.4753,-0.8549 3.6307,-13.8295 8.8934,-18.6545 7.5935,-2.7096 -2.3143,8.5994 -0.9279,12.4275 3.2166,3.4145 14.4632,0.3686 17.848,8.1288 5.8286,5.9896 5.0307,17.5053 -1.6331,22.4351 -6.3462,1.3976 -9.8233,2.6826 -8.1467,10.5247 -1.394,6.3468 -3.7214,17.2746 6.3159,12.8039 8.3415,-0.3824 15.4519,-5.4973 23.1838,-8.1134 7.8991,-4.569 16.6306,-8.2232 23.3673,-14.4722 3.0961,-5.3053 7.3511,-10.1237 9.5339,-15.7972 -1.4673,-10.499 -3.8813,-20.4544 -5.2562,-30.7344 -0.5856,-13.6927 1.6177,-27.2043 4.3426,-40.5937 5.795,-36.8282 -11.9987,-50.6509 -19.7726,-54.7428 -9.947,-7.791 -22.5253,-10.8499 -34.6808,-13.3102 -10.5896,-1.2881 -20.9203,-4.6613 -31.7464,-3.3659 z m -25.6106,34.4675 c 3.0914,2.6068 13.6247,15.4768 3.2639,11.938 -4.593,3.2785 -6.2194,10.8723 -9.245,15.9645 -2.4289,3.6145 -3.696,19.0368 -9.2491,11.6524 1.2832,-11.8824 8.2816,-21.7763 13.9876,-31.934 2.146,-2.0665 -4.731,-7.8742 1.2426,-7.6209 z m 46.4006,2.6339 c 3.6832,5.9897 -2.5337,13.107 -2.8628,19.5005 -2.8843,5.5413 7.3328,12.308 0.708,14.8673 -7.5903,-5.5787 -5.6356,-16.0309 -5.2159,-24.1648 1.753,-3.059 3.0319,-10.9933 7.3707,-10.203 z m -30.2786,49.5721 c 2.1089,3.2455 4.3879,17.5393 -1.7489,10.1919 0.5925,-2.7769 -4.7097,-13.2552 1.7489,-10.1919 z m 99.2191,-20.844 c -0.3055,10.9433 -4.4248,21.6916 -4.4604,32.5434 -1.9395,12.4901 1.7939,24.7056 3.7571,36.9043 4.1593,-0.9132 4.4459,-10.4907 6.6803,-14.8616 4.8769,-16.6937 5.2111,-34.9587 0.7663,-51.8755 -4.6835,-9.7476 -5.9755,-30.4732 -6.7433,-2.7106 z m 16.5908,13.5044 c -2.9061,3.1795 -3.0624,18.4964 2.8618,11.4519 2.294,-3.0598 3.1065,-8.2748 0.2781,-10.6217 -1.3692,-0.1017 -1.4993,-2.307 -3.1399,-0.8302 z m -156.1627,50.8492 c 1.496,14.5332 1.1506,19.5531 0.6459,32.3888 0.081,12.4619 0.2854,24.8248 0.5808,37.14549 2.4254,7.6854 -4.1222,14.9065 -4.2946,23.0847 4.526,5.5008 14.6282,-4.6424 18.8817,-8.4172 2.6353,-5.7516 14.65,-12.0425 5.4475,-17.1685 -9.1186,-7.8654 -7.2901,-21.05929 -6.3442,-31.72819 0.343,-8.0603 4.9311,-15.2487 8.079,-22.6373 0.053,-5.4296 -11.7277,-8.6839 -17.1774,-11.7634 -1.1851,-0.6697 -6.6241,-3.2573 -5.8187,-0.9044 z m 49.4301,1.0188 c 1.4351,0.3186 -0.4113,-0.741 0,0 z m 19.2921,2.6874 c -5.4848,0.7769 -6.1504,10.9124 -12.4767,3.5617 -5.7232,-1.6973 -13.0753,-5.5441 -18.7825,-2.9896 -8.2647,2.9809 -12.2472,11.8916 -15.1698,19.6031 -4.3226,7.8579 -3.6056,17.2793 -3.69,25.9482 -0.2979,9.89289 8.1673,16.34329 15.0081,22.09019 6.6579,4.3058 14.8351,6.005 22.4779,6.494 4.2074,-2.8685 7.8679,-11.3389 10.6988,-2.292 8.6408,3.1408 17.2344,-9.6335 10.5113,-16.3782 -5.3909,-4.33659 -12.8966,-6.76489 -8.0229,-15.52689 2.5031,-6.607 -1.5265,-18.1772 7.4003,-19.4024 7.1764,0.251 8.4072,-10.4822 5.8869,-15.3637 -3.0588,-4.8685 -8.2721,-6.8412 -13.8414,-5.7444 z m -36.3058,12.325 c 4.7617,3.7157 3.5896,7.3149 -1.1898,6.0108 -2.587,4.542 -10.2621,3.4182 -4.1917,-1.2471 4.9525,-0.4201 1.1798,-5.6844 5.3815,-4.7637 z m 22.2717,4.7116 c 10.5763,1.1244 10.3285,13.0169 3.5218,18.6078 -3.3845,5.239 -14.0854,-0.4232 -9.4703,9.4176 9.6603,-3.4929 18.7207,5.6919 13.1426,15.08809 -4.0417,7.0656 -15.3553,9.3852 -19.9861,1.4987 -4.8649,2.6631 -13.085,2.6182 -16.3567,-3.8343 -2.0195,-7.16039 -5.9218,-14.58209 -3.076,-22.22319 0.6837,-5.9512 5.236,-12.7868 10.7821,-13.8568 6.0865,2.9106 8.9143,2.7904 12.7269,-2.8001 2.3791,-2.0325 5.8116,-1.6847 8.7157,-1.8978 z m -3.8279,4.3383 c -6.1457,0.8174 -9.7601,8.7308 -4.5418,13.1363 6.3297,1.1638 12.5456,-3.6759 12.7695,-10.2598 -1.4056,-2.4773 -5.6331,-3.0208 -8.2277,-2.8765 z m 0.7099,4.1791 c 8.673,4.4849 -8.9634,10.8517 -3.4111,1.803 -0.052,-1.6447 2.1911,-2.5625 3.4111,-1.803 z m -19.86,0.9469 c -7.1663,6.2873 -7.6464,17.4954 -3.5388,25.6124 0.8403,9.09259 12.6845,8.56499 15.0507,0.7241 2.7829,-6.3225 2.3479,-14.459 -2.2749,-19.8331 -0.8747,-4.0756 -4.5067,-8.9299 -9.237,-6.5034 z m 6.9617,9.246 c 8.2689,1.9961 3.8383,24.60149 -3.8535,12.7709 -0.7834,-3.324 -0.095,-11.8194 3.8535,-12.7709 z m -0.3793,7.4685 c -1.5401,8.8715 3.7861,-1.0857 0,0 z m 1.0803,-0.1402 c -0.461,0.6659 -0.226,-0.6835 0,0 z m 8.9218,6.483 c -4.7635,6.15719 -0.823,17.17889 7.6521,10.89869 7.71,-5.5749 0.089,-15.26649 -7.6521,-10.89869 z m 5.5199,4.51539 c 3.2434,2.7472 -4.4611,9.7271 -6.148,5.0328 -1.4131,-2.2049 3.8758,-7.45409 6.148,-5.0328 z m -77.4399,21.9852 c 0.4362,0.6421 0.5384,-0.3563 0,0 z m -7.6022,2.0495 c 0.8313,0.9581 -0.021,-1.0255 0,0 z m -27.8354,0.4646 c 1.2807,0.4619 -0.099,-0.7804 0,0 z"
           inkscape:connector-curvature="0"
           sodipodi:nodetypes="scccccccccccccccccccccccccccccccccccccccccccccccccsssscsssscsssssssssssccsssscsssssscccccsccccccccccccccccccccsccccccccccccccccccccccsccccccccccccccccccccccccccccccccccccccccccccccccsccccccccccccccccccccccccccccccccccccccccccccccccccccccccccccc"
           id="path2983"
           inkscape:export-filename="/home/jordan/websites/Foundations/assets/baby.png"
           inkscape:export-xdpi="90"
           inkscape:export-ydpi="90" />
        <path
           style="fill:#f9f9f9;fill-opacity:1;stroke:none"
           d="m 220.19745,5.766231 c -22.98478,0.2573488 -45.89931,2.5202906 -68.74266,4.912184 -17.97322,2.624339 -36.06784,5.564945 -53.230027,11.750595 -11.984066,3.877553 -23.99156,7.945153 -34.936597,14.274683 -12.854041,6.196212 -25.315551,13.24231 -36.884987,21.619361 -2.987223,1.609584 -6.339727,3.061201 -7.92622,6.319604 -3.72343,9.807836 -6.190492,20.120675 -8.6635013,30.33118 C 6.176127,109.3604 5.3312056,124.25783 5.5194546,139.06502 c -0.2478865,18.59275 0.8356761,37.24267 4.5543004,55.49181 2.205798,13.6414 6.550745,26.7754 12.019626,39.4436 2.446481,5.35148 3.74786,11.21624 6.570777,16.38417 6.556801,5.50621 15.777387,3.78776 23.653106,3.61671 16.848397,-0.97541 33.654299,-2.67873 50.545396,-2.81899 21.07235,-0.47611 42.04199,-2.68629 63.06354,-4.0353 13.81666,-1.33851 27.65951,-2.41461 41.48841,-3.57249 1.90973,0.10013 4.3102,-0.7867 3.71205,-3.13989 -0.5244,-25.15523 -1.57587,-50.37861 0.73962,-75.48296 1.53098,-20.26288 4.94255,-40.37417 10.82955,-59.77487 3.9905,-14.26412 7.15138,-28.791983 10.92766,-43.069531 3.48023,-11.456062 7.38104,-22.888617 10.52086,-34.389728 1.73673,-6.162377 6.03228,-11.954138 5.31688,-18.5881489 C 248.61286,5.692196 244.09936,6.7738618 241.52079,6.3244337 234.4193,5.969548 227.30894,5.7099101 220.19745,5.766231 z"
           id="path2992"
           inkscape:connector-curvature="0"
           transform="translate(1159.3653,787.9317)" />
        <path
           style="fill:#f9f9f9;fill-opacity:1;stroke:none"
           d="m 268.73317,9.7713352 c -2.31725,0.8337078 -1.92823,4.0409248 -3.28281,5.7652808 -7.64285,15.576799 -12.53074,32.295703 -17.76143,48.785076 -6.00132,21.051069 -10.17025,42.625008 -14.42954,64.081668 -4.16342,23.47427 -6.35825,47.46053 -4.92875,71.32262 0.91734,10.17408 2.5682,20.3169 4.13332,30.34004 0.52093,2.5978 -0.50985,5.02385 -0.97686,7.47992 0.46872,3.28448 4.78184,2.5671 7.17291,2.40027 9.04154,-1.58986 18.45968,-1.56325 27.18099,-4.72871 7.34569,-2.06846 15.21341,-3.21148 22.01062,-6.88191 1.4635,-2.29857 -0.35825,-5.22027 -0.6838,-7.67528 -1.98559,-9.14476 -1.21966,-18.7452 -1.94517,-28.08997 -0.79984,-13.95447 -0.9451,-27.93178 -0.27622,-41.89406 0.29664,-26.24101 1.85921,-52.831771 10.21574,-77.858248 4.69603,-16.005318 9.25102,-32.145658 15.49203,-47.570528 1.79626,-2.414807 1.31659,-6.339263 -1.78625,-7.35432 -6.00313,-2.167569 -12.54494,-1.833261 -18.65793,-3.586452 -7.13724,-1.512755 -14.19298,-3.906676 -21.47685,-4.5353968 z"
           id="path2994"
           inkscape:connector-curvature="0"
           transform="translate(1159.3653,787.9317)" />
        <path
           style="fill:#afc6e9;fill-opacity:1;stroke:none"
           d="m 254.44901,8.8493659 c -8.07494,16.5708121 -11.95233,34.7510981 -17.55619,52.2388661 -4.75999,16.856505 -8.46496,33.952112 -12.54806,51.008768 -4.84542,22.64301 -9.8595,45.48345 -10.70104,68.6448 -1.7287,18.2412 -1.97317,36.7631 0.56472,54.94677 0.87454,2.87957 1.85281,8.01896 5.94363,6.38259 3.53236,-0.40439 9.81601,-0.97852 9.39081,-5.83 -2.17054,-14.82699 -5.06128,-29.64944 -5.40752,-44.66131 -1.30629,-21.89971 -0.64051,-43.95711 4.14566,-65.42864 5.64268,-32.991802 14.45633,-65.388762 25.16429,-97.061309 1.95355,-6.354219 5.07708,-12.302347 7.04274,-18.622229 -0.82566,-1.8746371 -4.45851,-1.6220543 -6.03904,-1.6183061 z"
           id="path3000"
           inkscape:connector-curvature="0"
           transform="translate(1159.3653,787.9317)" />
        <path
           style="fill:#fff6d5;fill-opacity:1;stroke:none"
           d="m 340.06137,23.670685 c -10.3795,0.155427 -20.06585,5.05832 -28.59666,10.499257 -4.24431,6.060143 -4.90391,13.94103 -7.53759,20.773808 -6.77136,21.254046 -12.86767,42.892642 -14.36876,65.253 -0.3546,8.3981 -2.35372,16.91496 -1.0065,25.26137 2.22778,6.98165 10.92223,7.69653 15.84756,11.93994 3.6106,2.86541 9.37884,7.08727 13.51878,2.76296 5.88596,-7.25225 16.37521,-5.73636 24.19565,-2.90111 2.92534,1.13994 7.37506,2.11461 8.86122,-1.6183 2.68983,-4.84179 1.31851,-11.55121 5.46672,-15.55154 2.07089,-0.56561 0.25285,2.76673 -0.13815,3.53265 -0.89338,2.78989 -4.33731,7.2068 -0.92757,9.45328 5.37575,2.16448 12.64444,1.28468 16.16333,6.69031 5.06021,5.77524 5.64748,15.41184 -0.21709,20.8209 -2.96574,2.40012 -8.39896,2.12298 -9.19671,6.76925 -0.26194,4.93413 -1.09416,9.81606 -1.36175,14.76212 -0.40034,3.67212 3.21925,6.17312 6.57723,4.87864 14.9335,-2.94875 28.5352,-10.32982 41.49669,-18.02845 7.41561,-4.33988 11.84222,-12.14224 16.0268,-19.35447 1.34011,-4.55533 -0.81287,-9.46209 -1.05776,-14.1008 -2.81802,-13.24387 -3.84224,-26.8308 -1.98016,-40.26263 1.3985,-12.23702 4.8975,-24.266656 3.92602,-36.695913 -0.0237,-14.070608 -6.34193,-28.31164 -18.26955,-36.254702 -15.75695,-12.201316 -36.04852,-15.183461 -55.24498,-17.938829 -4.05937,-0.448761 -8.08527,-0.800707 -12.17677,-0.690741 z m -28.55719,36.115864 c 3.57884,2.233515 6.02951,6.298497 7.7955,9.986135 -0.83101,1.268292 -3.9069,0.06827 -5.21016,1.499894 -4.79123,6.179006 -7.57526,13.83155 -10.47743,21.059469 -1.19557,2.308687 -1.42204,5.825664 -3.71235,7.260895 -3.49887,-1.454146 -0.77447,-5.930663 -0.2763,-8.525713 3.01606,-9.269065 8.97578,-17.286403 12.84778,-26.109993 -0.28346,-1.50067 -2.2218,-3.784141 -1.38149,-5.150951 0.13889,0.01103 0.27581,-0.02503 0.41445,-0.01974 z m 46.67433,2.664285 c 2.0375,1.620289 0.41347,5.069079 0.13814,7.262644 -1.76976,6.541692 -5.49119,14.065561 -1.20386,20.465656 0.80018,1.079993 1.69226,4.776452 -0.45391,4.519417 -6.35645,-5.576851 -5.16564,-15.077767 -4.16418,-22.61682 1.15826,-3.336876 2.21075,-7.356085 5.0128,-9.551955 0.21034,-0.06352 0.48879,-0.04509 0.67101,-0.07894 z m -31.53724,49.121526 c 2.62787,-0.0936 2.17963,4.04302 2.8419,5.84169 -0.0228,1.41444 1.01274,4.07535 -0.15788,4.91412 -2.60388,-1.5888 -2.25206,-5.55029 -2.88138,-8.20994 0.1104,-0.6999 -0.40521,-2.13282 0.19736,-2.54587 z"
           id="path3002"
           inkscape:connector-curvature="0"
           transform="translate(1159.3653,787.9317)" />
        <path
           style="fill:#c87137;fill-opacity:1;stroke:none"
           d="m 289.00577,153.35229 c -3.08829,0.51974 -0.59902,4.36394 -1.20386,6.27587 0.63694,23.29476 0.35074,46.76729 1.16439,69.96216 -0.80496,5.9882 -4.44327,11.58494 -4.20365,17.72243 2.11741,3.91284 7.64605,1.54534 10.44005,-0.37498 7.36914,-4.76039 13.12884,-11.75234 17.99873,-18.94602 1.33249,-4.67233 -4.43042,-7.20812 -6.33508,-10.73609 -5.67669,-8.93694 -3.67865,-20.3321 -2.40772,-30.35311 1.0457,-7.27155 5.60501,-13.56014 7.36132,-20.56433 -1.83528,-4.58069 -7.43002,-6.07748 -11.3617,-8.46954 -3.7378,-1.55892 -7.40928,-4.00708 -11.45248,-4.51639 z"
           id="path3004"
           inkscape:connector-curvature="0"
           transform="translate(1159.3653,787.9317)" />
        <path
           style="fill:#c87137;fill-opacity:1;stroke:none"
           d="m 359.85602,157.477 c -4.88916,-0.20243 -7.82088,4.13569 -11.62418,6.15746 -2.42086,-0.65341 -4.13181,-3.09934 -6.81115,-3.44973 -6.53119,-2.49097 -14.7548,-4.40668 -20.60138,0.7065 -6.83736,5.80516 -10.23942,14.62552 -13.0846,22.91285 -1.68704,8.00232 -1.5731,16.35126 -1.26307,24.49169 1.88688,8.02203 8.70888,13.63754 14.76211,18.68947 6.86415,4.41519 15.34901,6.39328 23.37544,6.6731 2.55297,-1.56409 4.61134,-5.93181 7.90524,-5.66659 1.35911,1.98755 3.07086,4.83823 6.05879,3.98656 7.9602,-1.06426 13.51074,-12.22786 7.00608,-18.19608 -3.05784,-3.01946 -7.9171,-5.26008 -8.90069,-9.72958 0.68977,-4.02592 2.50686,-7.89485 2.48379,-12.11504 0.3988,-4.05987 0.1159,-9.93191 5.03542,-11.27146 4.37216,-0.78969 8.24668,-4.17535 8.19021,-8.86122 1.04311,-6.08812 -2.68411,-12.43254 -8.86122,-13.85428 -1.18747,-0.35148 -2.43442,-0.52838 -3.67079,-0.47365 z m -40.00375,14.15032 c 2.18285,0.20392 4.31483,4.6097 0.90783,4.44047 -2.36844,0.0911 -4.66412,3.59965 -6.86793,2.15116 1.41069,-2.2968 4.71608,-3.21872 5.32857,-6.19693 0.15334,-0.19169 0.35202,-0.42312 0.63153,-0.3947 z m 22.79444,4.71677 c 6.00553,-0.0997 9.80555,7.30496 6.5719,12.27544 -1.55888,4.43687 -5.72836,7.18201 -10.34137,7.67709 -3.50708,0.39749 -4.15955,4.28722 -2.92084,7.04556 2.33478,1.64704 5.97834,-0.29467 8.78227,0.9473 5.60833,1.76345 8.10611,9.21227 4.3418,13.89375 -3.31795,6.12488 -12.96937,8.1756 -17.7619,2.32878 -3.18612,-1.7297 -6.79934,1.38407 -10.20323,0.0395 -5.26539,-0.57932 -7.55724,-5.7613 -8.50598,-10.28216 -2.52673,-7.0557 -2.79704,-14.88373 0.71048,-21.63005 1.76342,-4.00521 5.95058,-9.28162 10.83476,-6.71005 4.11571,2.31231 8.01402,-0.93079 10.71635,-3.80894 2.181,-1.68775 5.13682,-1.84486 7.77576,-1.77619 z"
           id="path3006"
           inkscape:connector-curvature="0"
           transform="translate(1159.3653,787.9317)" />
        <path
           style="fill:#deaa87;fill-opacity:1;stroke:none"
           d="m 322.26,183.66594 c -6.88658,1.87455 -9.14837,10.30504 -9.03884,16.63698 0.72229,5.57506 1.73846,11.80309 5.5654,16.08438 5.15812,3.5154 12.62159,-0.344 13.77534,-6.25613 2.45386,-6.88284 0.81219,-14.48314 -3.17498,-20.44923 -1.37117,-2.76517 -3.54988,-6.29787 -7.12692,-6.016 z m 4.69703,11.46629 c 4.0535,2.07059 3.732,7.96316 2.62482,11.74259 -0.42833,2.24413 -3.12436,3.65606 -4.59836,1.34201 -2.25849,-3.93435 -1.88921,-10.12264 1.81566,-13.06486 l 0.13815,-0.0197 0.0197,0 z"
           id="path3010"
           inkscape:connector-curvature="0"
           transform="translate(1159.3653,787.9317)" />
        <path
           style="fill:#ffaaaa;fill-opacity:1;stroke:none"
           d="m 326.75332,200.67204 c -1.44216,0.30987 -1.32468,2.13346 -1.40951,3.27111 -0.16612,0.96893 0.34738,2.52413 1.58219,2.14627 1.412,-0.81122 1.88965,-2.75572 1.60844,-4.27766 -0.20433,-0.74797 -1.01375,-1.27726 -1.78112,-1.13972 z"
           id="path3012"
           inkscape:connector-curvature="0"
           transform="translate(1159.3653,787.9317)" />
        <path
           style="fill:#ffe680;fill-opacity:1;stroke:none"
           d="m 428.72952,76.529419 c -2.43573,2.460527 -0.75938,6.830651 -1.46042,9.946664 -1.11075,18.124267 -7.50628,36.026777 -4.24038,54.286907 1.05001,6.4227 1.8823,13.06014 3.5299,19.28683 3.23143,0.85611 4.09595,-4.16008 5.03254,-6.25613 4.2208,-11.52929 6.66451,-23.66149 6.38534,-35.95789 0.70878,-12.6942 -2.59874,-25.080192 -6.65906,-36.939842 -0.72887,-1.34582 -0.35091,-4.58289 -2.58792,-4.366539 z"
           id="path3014"
           inkscape:connector-curvature="0"
           transform="translate(1159.3653,787.9317)" />
        <path
           style="fill:#ffe680;fill-opacity:1;stroke:none"
           d="m 480.08115,92.436188 c -6.66975,3.061719 -12.60291,7.532112 -19.54941,10.148432 -2.68469,1.47276 -5.83521,1.70915 -8.5144,2.79802 -1.30732,3.00721 0.53706,6.67111 1.85513,9.45328 4.27638,3.15121 9.9171,4.4263 13.81972,8.30627 5.41802,4.11324 7.31344,11.18821 6.19203,17.58663 -0.76046,2.69706 2.83908,4.2732 4.34179,2.09196 4.07135,0.3877 5.92644,-3.76049 8.72307,-5.86143 2.754,-1.27016 -0.2515,-4.72923 -0.45392,-6.78899 -0.8845,-1.49222 0.26797,-2.51921 1.73672,-1.8946 2.51664,0.81023 6.65213,-1.01696 4.89439,-4.14445 -0.70962,-2.84432 -3.43332,-5.90355 -2.88137,-8.76254 1.86168,-1.04393 6.88232,0.007 6.25614,-3.29581 -5.03854,-5.27705 -14.53289,-4.05363 -18.78815,-10.22297 -2.46859,-3.515616 2.386,-5.447723 3.65106,-8.130998 0.186,-0.747962 -0.55118,-1.45305 -1.2828,-1.282804 z"
           id="path3016"
           inkscape:connector-curvature="0"
           transform="translate(1159.3653,787.9317)" />
        <path
           style="fill:#ffaaaa;fill-opacity:1;stroke:none"
           d="m 445.28756,102.93544 c -3.97242,1.51636 -3.14453,7.01068 -3.21688,10.44005 -0.52935,2.28556 1.89927,6.15514 4.22338,3.76947 4.04191,-3.3258 5.15728,-11.22507 0.19736,-14.0911 -0.38798,-0.10717 -0.80367,-0.16202 -1.20386,-0.11842 z"
           id="path3018"
           inkscape:connector-curvature="0"
           transform="translate(1159.3653,787.9317)"
           inkscape:export-filename="/home/jordan/websites/Foundations/assets/baby.png"
           inkscape:export-xdpi="90"
           inkscape:export-ydpi="90" />
      </g>
      <path
         transform="translate(1159.3653,787.9317)"
         inkscape:connector-curvature="0"
         id="path3042"
         d="m 339.36585,179.81225 c -4.08466,-0.004 -7.45028,4.08879 -7.42053,8.0422 0.13169,1.98524 0.94873,4.56737 2.99979,5.23976 6.07892,0.77738 12.40764,-4.22433 12.30505,-10.48939 -1.51116,-2.61269 -5.16787,-2.8706 -7.88431,-2.79257 z m -0.62167,3.99643 c 1.72401,0.35 4.25904,2.287 2.80244,4.18392 -1.27658,1.46838 -3.66591,2.7782 -5.5654,1.82553 -1.11504,-1.51125 0.13881,-3.60859 0.93743,-5.00294 0.45504,-0.52744 1.12887,-0.90666 1.82553,-1.00651 z"
         style="fill:#ffffff;fill-opacity:1;stroke:none" />
      <path
         inkscape:export-ydpi="90"
         inkscape:export-xdpi="90"
         inkscape:export-filename="/home/jordan/websites/Foundations/assets/baby.png"
         transform="translate(1159.3653,787.9317)"
         inkscape:connector-curvature="0"
         id="path3044"
         d="m 340.10593,206.79061 c -2.23168,0.011 -4.49871,1.14307 -5.02267,3.46357 -1.32603,3.44596 -0.96183,8.68972 2.82217,10.3315 2.83745,0.8888 5.83865,-0.99662 7.69682,-3.01952 2.3447,-2.25909 2.32061,-6.13984 0.0987,-8.44677 -1.35337,-1.58323 -3.50125,-2.45918 -5.595,-2.32878 z m 0.54272,5.29896 c 1.73001,0.1151 2.70918,2.41339 1.42095,3.73 -1.04944,1.55708 -2.83269,3.41076 -4.84505,2.96032 -2.05379,-0.98878 -1.46623,-3.7305 0,-4.88452 0.91137,-0.89844 2.01989,-1.84902 3.4241,-1.8058 z"
         style="fill:#ffffff;fill-opacity:1;stroke:none" />
    </g>
  </g>
</svg>
