<?xml version="1.0" encoding="UTF-8" standalone="no"?>
<!-- Created with Inkscape (http://www.inkscape.org/) -->

<svg
   xmlns:dc="http://purl.org/dc/elements/1.1/"
   xmlns:cc="http://creativecommons.org/ns#"
   xmlns:rdf="http://www.w3.org/1999/02/22-rdf-syntax-ns#"
   xmlns:svg="http://www.w3.org/2000/svg"
   xmlns="http://www.w3.org/2000/svg"
   xmlns:sodipodi="http://sodipodi.sourceforge.net/DTD/sodipodi-0.dtd"
   xmlns:inkscape="http://www.inkscape.org/namespaces/inkscape"
   width="1200"
   height="1500"
   id="svg3592"
   version="1.1"
   inkscape:version="0.48.4 r9939"
   sodipodi:docname="happy-sun.svg">
  <defs
     id="defs3594">
    <inkscape:path-effect
       effect="spiro"
       id="path-effect7865"
       is_visible="true" />
    <inkscape:path-effect
       effect="spiro"
       id="path-effect7861"
       is_visible="true" />
    <inkscape:path-effect
       effect="spiro"
       id="path-effect7781"
       is_visible="true" />
    <inkscape:path-effect
       effect="spiro"
       id="path-effect7760"
       is_visible="true" />
    <inkscape:path-effect
       effect="spiro"
       id="path-effect7752"
       is_visible="true" />
    <inkscape:path-effect
       effect="spiro"
       id="path-effect7748"
       is_visible="true" />
    <inkscape:path-effect
       effect="spiro"
       id="path-effect7744"
       is_visible="true" />
    <inkscape:path-effect
       effect="spiro"
       id="path-effect4189"
       is_visible="true" />
    <inkscape:path-effect
       effect="spiro"
       id="path-effect4193"
       is_visible="true" />
    <inkscape:path-effect
       effect="spiro"
       id="path-effect4193-8"
       is_visible="true" />
    <inkscape:path-effect
       effect="spiro"
       id="path-effect4324"
       is_visible="true" />
    <inkscape:path-effect
       effect="spiro"
       id="path-effect4328"
       is_visible="true" />
    <inkscape:path-effect
       effect="spiro"
       id="path-effect4332"
       is_visible="true" />
    <inkscape:path-effect
       effect="spiro"
       id="path-effect4336"
       is_visible="true" />
    <inkscape:path-effect
       effect="spiro"
       id="path-effect4340"
       is_visible="true" />
    <inkscape:path-effect
       effect="spiro"
       id="path-effect4344"
       is_visible="true" />
    <inkscape:path-effect
       effect="spiro"
       id="path-effect4348"
       is_visible="true" />
    <inkscape:path-effect
       effect="spiro"
       id="path-effect4352"
       is_visible="true" />
    <inkscape:path-effect
       effect="spiro"
       id="path-effect4356"
       is_visible="true" />
    <inkscape:path-effect
       effect="spiro"
       id="path-effect4360"
       is_visible="true" />
    <inkscape:path-effect
       effect="spiro"
       id="path-effect4364"
       is_visible="true" />
    <inkscape:path-effect
       effect="spiro"
       id="path-effect4368"
       is_visible="true" />
    <inkscape:path-effect
       effect="spiro"
       id="path-effect4189-0"
       is_visible="true" />
    <inkscape:path-effect
       effect="spiro"
       id="path-effect4193-7"
       is_visible="true" />
    <inkscape:path-effect
       effect="spiro"
       id="path-effect4193-8-1"
       is_visible="true" />
    <inkscape:path-effect
       effect="spiro"
       id="path-effect4189-5"
       is_visible="true" />
    <inkscape:path-effect
       effect="spiro"
       id="path-effect4193-4"
       is_visible="true" />
    <inkscape:path-effect
       effect="spiro"
       id="path-effect4193-8-5"
       is_visible="true" />
    <filter
       id="filter7813"
       style="color-interpolation-filters:sRGB;"
       inkscape:label="Drop Shadow">
      <feFlood
         id="feFlood7815"
         flood-opacity="0.5"
         flood-color="rgb(0,0,0)"
         result="flood" />
      <feComposite
         in2="SourceGraphic"
         id="feComposite7817"
         in="flood"
         operator="in"
         result="composite1" />
      <feGaussianBlur
         id="feGaussianBlur7819"
         in="composite"
         stdDeviation="5"
         result="blur" />
      <feOffset
         id="feOffset7821"
         dx="0"
         dy="0"
         result="offset" />
      <feComposite
         in2="offset"
         id="feComposite7823"
         in="SourceGraphic"
         operator="over"
         result="composite2" />
    </filter>
    <filter
       id="filter7825"
       style="color-interpolation-filters:sRGB;"
       inkscape:label="Drop Shadow">
      <feFlood
         id="feFlood7827"
         flood-opacity="0.5"
         flood-color="rgb(0,0,0)"
         result="flood" />
      <feComposite
         in2="SourceGraphic"
         id="feComposite7829"
         in="flood"
         operator="in"
         result="composite1" />
      <feGaussianBlur
         id="feGaussianBlur7831"
         in="composite"
         stdDeviation="5"
         result="blur" />
      <feOffset
         id="feOffset7833"
         dx="0"
         dy="0"
         result="offset" />
      <feComposite
         in2="offset"
         id="feComposite7835"
         in="SourceGraphic"
         operator="over"
         result="composite2" />
    </filter>
    <inkscape:path-effect
       effect="spiro"
       id="path-effect7865-8"
       is_visible="true" />
    <filter
       id="filter8129"
       inkscape:label="filter3">
      <feTurbulence
         id="feTurbulence8131"
         baseFrequency="0.24533333333333332"
         seed="65"
         numOctaves="1"
         type="fractalNoise" />
    </filter>
    <filter
       id="filter8594"
       style="color-interpolation-filters:sRGB;"
       inkscape:label="Drop Shadow">
      <feFlood
         id="feFlood8596"
         flood-opacity="0.5"
         flood-color="rgb(0,0,0)"
         result="flood" />
      <feComposite
         id="feComposite8598"
         in2="SourceGraphic"
         in="flood"
         operator="in"
         result="composite1" />
      <feGaussianBlur
         id="feGaussianBlur8600"
         in="composite"
         stdDeviation="5"
         result="blur" />
      <feOffset
         id="feOffset8602"
         dx="50"
         dy="15"
         result="offset" />
      <feComposite
         id="feComposite8604"
         in2="offset"
         in="SourceGraphic"
         operator="over"
         result="composite2" />
    </filter>
  </defs>
  <sodipodi:namedview
     id="base"
     pagecolor="#ffffff"
     bordercolor="#666666"
     borderopacity="1.0"
     inkscape:pageopacity="0.0"
     inkscape:pageshadow="2"
     inkscape:zoom="0.32533333"
     inkscape:cx="599.41696"
     inkscape:cy="745.12754"
     inkscape:document-units="px"
     inkscape:current-layer="layer1"
     showgrid="false"
     inkscape:window-width="1281"
     inkscape:window-height="654"
     inkscape:window-x="85"
     inkscape:window-y="58"
     inkscape:window-maximized="0"
     inkscape:snap-object-midpoints="false"
     inkscape:snap-midpoints="false"
     inkscape:snap-center="false" />
  <metadata
     id="metadata3597">
    <rdf:RDF>
      <cc:Work
         rdf:about="">
        <dc:format>image/svg+xml</dc:format>
        <dc:type
           rdf:resource="http://purl.org/dc/dcmitype/StillImage" />
        <dc:title></dc:title>
      </cc:Work>
    </rdf:RDF>
  </metadata>
  <g
     inkscape:groupmode="layer"
     id="layer3"
     inkscape:label="Bottom Layer"
     style="display:inline" />
  <g
     inkscape:label="Layer 1"
     inkscape:groupmode="layer"
     id="layer1"
     transform="translate(0,447.63782)"
     style="display:inline">
    <g
       id="g8501"
       style="filter:url(#filter8594)">
      <path
         transform="translate(0,-447.63782)"
         sodipodi:nodetypes="csssc"
         inkscape:connector-curvature="0"
         inkscape:original-d="M 613.54465,-5.8121108 C 641.90958,15.78966 642.11501,252.67439 624.49002,344.69903 c -7.60326,39.69858 10.68784,103.76378 0,140.96645 -16.67689,58.04956 200.10374,297.92793 9.2841,195.63928 -24.39422,-13.07648 1.54704,181.96179 -10.35562,192.3196"
         inkscape:path-effect="#path-effect7865-8"
         id="path7863"
         d="m 613.54465,-5.8121108 c 8.01593,116.6461408 11.66779,233.5921208 10.94537,350.5111408 -0.29035,46.99065 -1.28683,93.99252 0,140.96645 1.78792,65.26583 7.98074,130.36198 9.2841,195.63928 1.28274,64.24484 -2.18165,128.58396 -10.35562,192.3196"
         style="display:inline;fill:none;stroke:#000000;stroke-width:4.74112843999999978;stroke-linecap:butt;stroke-linejoin:miter;stroke-miterlimit:4;stroke-opacity:1;stroke-dasharray:none" />
      <path
         inkscape:connector-curvature="0"
         id="path3833-1"
         d="m 575.54235,-22.02681 -40.625,152.71875 -37.625,141.375 c 35.04933,-17.02152 75.0013,-26.65625 117.40625,-26.65625 10.9405,0 21.70915,0.63062 32.28128,1.875 L 616.0736,130.81694 575.54235,-22.02681 z m 319.15623,73.15625 -108.8125,114.625 -87.9062,92.625 c 47.3656,15.26077 88.2359,43.16237 117.8437,79.3125 l 9.3438,-2.71875 31.9062,-130.25 37.625,-153.59375 z m -69.5312,283.84375 -2.75,11.15625 c 27.6519,37.10857 43.8437,81.97883 43.8437,130.34375 0,0.49074 -0.028,0.97873 -0.031,1.46875 l 98.6563,-101.78125 110.03132,-113.5625 -151.81262,44 -97.9375,28.375 z m -664.68753,-110.90625 115.09375,108.3125 94.71875,89.1875 c 13.40697,-50.52829 44.8917,-94.53795 87.8125,-125.9375 l -143.875,-34.59375 -153.75,-36.96875 z m 204.21875,226.5625 -125.96875,62.125 -141.812497,69.9375 157.749997,9.65625 147.03125,9 c -24.52648,-35.1565 -38.71875,-76.85175 -38.71875,-121.5625 0,-3.11513 0.082,-6.1972 0.21875,-9.28125 0.0168,-0.60804 0.0406,-1.20564 0.0625,-1.8125 0.0149,-0.28097 0.0465,-0.56305 0.0625,-0.84375 0.23189,-5.79831 0.6863,-11.53719 1.375,-17.21875 z m 37,150.71875 c 4.23576,6.0715 8.79333,11.93045 13.625,17.59375 l 0.375,-1.0625 c -4.46731,-5.29791 -8.69493,-10.78747 -12.65625,-16.4375 l -1.34375,-0.0937 z m 13.625,17.59375 -50.15625,138.40621 -53.84375,148.6875 120.46875,-102.3125 120.46875,-102.31246 -2.28125,-1.59375 c -1.3872,-0.33829 -2.77859,-0.67183 -4.15625,-1.03125 -0.11532,-0.0301 -0.22851,-0.0635 -0.34375,-0.0937 -0.21782,-0.0554 -0.43868,-0.10034 -0.65625,-0.15625 -52.06336,-13.37855 -97.20365,-41.73858 -129.5,-79.59375 z m 447.65628,-105.1875 c -9.6026,54.37207 -39.8491,102.39888 -83.125,137.03125 l 156.3437,16.71875 163.84382,17.5625 -133.46882,-96.46875 -103.5937,-74.84375 z m -107.7188,154.40625 c -40.1306,24.88014 -88.5039,39.40625 -140.56248,39.40625 -1.98299,0 -3.96548,-0.0206 -5.9375,-0.0625 l 50.53128,116.28121 63.0312,145 17.2188,-157.0937 15.7187,-143.53126 z"
         style="fill:#fffc00;fill-opacity:1;display:inline;filter:url(#filter7825)" />
      <g
         style="fill:#fffc00;fill-opacity:1;filter:url(#filter7813)"
         transform="matrix(1.0394185,0,0,1.0394176,291.89606,-33.83197)"
         id="g3030">
        <path
           sodipodi:type="arc"
           style="fill:#fffc00;fill-opacity:1"
           id="path3833"
           sodipodi:cx="88.682434"
           sodipodi:cy="260.61774"
           sodipodi:rx="33.180504"
           sodipodi:ry="30.164093"
           d="m 121.86294,260.61774 c 0,16.65917 -14.85542,30.16409 -33.180506,30.16409 -18.325086,0 -33.180504,-13.50492 -33.180504,-30.16409 0,-16.65917 14.855418,-30.1641 33.180504,-30.1641 18.325086,0 33.180506,13.50493 33.180506,30.1641 z"
           transform="matrix(7.4973952,0,0,7.4973952,-350.4443,-1461.7494)" />
        <path
           style="fill:#fffc00;fill-opacity:1;stroke:#000000;stroke-width:7.49739504px;stroke-linecap:butt;stroke-linejoin:miter;stroke-opacity:1"
           d="m 151.61342,536.30436 c 9.66218,41.58504 38.65584,78.25347 76.89172,97.24534 19.9672,9.91776 42.16925,15.14552 64.45336,15.83067 28.88309,0.88805 57.39027,-5.69796 85.9378,-10.17681 6.06475,-0.9515 12.16007,-1.81217 18.09217,-3.39227 19.39807,-5.16694 36.54696,-18.29578 46.59672,-35.67349 10.04975,-17.37771 12.87613,-38.78945 7.67978,-58.17966"
           id="path4187"
           inkscape:path-effect="#path-effect4189"
           inkscape:original-d="m 151.61342,536.30436 c 27.31433,28.65886 43.65358,71.39349 76.89172,97.24534 16.99598,13.2191 44.42142,13.60492 64.45336,15.83067 33.15607,3.684 56.80296,1.47714 85.9378,-10.17681 5.32974,-2.13189 12.59873,-1.56119 18.09217,-3.39227 44.57712,-14.85909 54.2765,-55.16142 54.2765,-93.85315"
           inkscape:connector-curvature="0" />
        <path
           style="fill:#fffc00;fill-opacity:1;stroke:#000000;stroke-width:7.49739504px;stroke-linecap:butt;stroke-linejoin:miter;stroke-opacity:1"
           d="m 130.12897,428.88205 c 7.69228,-19.8384 20.70621,-37.58467 37.31509,-50.88422 11.36797,-9.1029 24.54468,-16.19311 38.78308,-19.25277 14.2384,-3.05966 29.57747,-1.90323 42.63169,4.55285 15.77323,7.8008 27.45829,23.38088 30.53054,40.70741"
           id="path4191"
           inkscape:path-effect="#path-effect4193"
           inkscape:original-d="m 130.12897,428.88205 c 9.92985,-15.82602 19.41116,-41.11841 37.31509,-50.88422 17.14834,-9.3536 61.5212,-24.64664 81.41477,-14.69992 12.12427,6.06217 27.87114,32.72921 30.53054,40.70741"
           inkscape:connector-curvature="0" />
        <path
           style="fill:#fffc00;fill-opacity:1;stroke:#000000;stroke-width:7.49739504px;stroke-linecap:butt;stroke-linejoin:miter;stroke-opacity:1"
           d="m 321.22751,426.31284 c 7.69236,-19.83832 20.70628,-37.58452 37.3151,-50.88407 11.36797,-9.10292 24.54466,-16.19319 38.78306,-19.2529 14.23841,-3.0597 29.5775,-1.90332 42.63173,4.55276 15.77336,7.80085 27.45845,23.38116 30.53052,40.70786"
           id="path4191-0"
           inkscape:path-effect="#path-effect4193-8"
           inkscape:original-d="m 321.22751,426.31284 c 9.92986,-15.82625 19.41117,-41.11871 37.3151,-50.88407 17.14833,-9.35375 61.5212,-24.64694 81.41479,-14.70014 12.12426,6.06239 27.87112,32.72913 30.53052,40.70786"
           inkscape:connector-curvature="0" />
      </g>
    </g>
  </g>
</svg>
