<?xml version="1.0" encoding="UTF-8" standalone="no"?>
<!-- Created with Inkscape (http://www.inkscape.org/) -->

<svg
   xmlns:dc="http://purl.org/dc/elements/1.1/"
   xmlns:cc="http://creativecommons.org/ns#"
   xmlns:rdf="http://www.w3.org/1999/02/22-rdf-syntax-ns#"
   xmlns:svg="http://www.w3.org/2000/svg"
   xmlns="http://www.w3.org/2000/svg"
   xmlns:sodipodi="http://sodipodi.sourceforge.net/DTD/sodipodi-0.dtd"
   xmlns:inkscape="http://www.inkscape.org/namespaces/inkscape"
   id="svg2"
   version="1.1"
   inkscape:version="0.48.4 r9939"
   width="411.37213"
   height="689.91632"
   sodipodi:docname="learning.svg">
  <metadata
     id="metadata8">
    <rdf:RDF>
      <cc:Work
         rdf:about="">
        <dc:format>image/svg+xml</dc:format>
        <dc:type
           rdf:resource="http://purl.org/dc/dcmitype/StillImage" />
        <dc:title></dc:title>
      </cc:Work>
    </rdf:RDF>
  </metadata>
  <defs
     id="defs6" />
  <sodipodi:namedview
     pagecolor="#ffffff"
     bordercolor="#666666"
     borderopacity="1"
     objecttolerance="10"
     gridtolerance="10"
     guidetolerance="10"
     inkscape:pageopacity="0"
     inkscape:pageshadow="2"
     inkscape:window-width="1366"
     inkscape:window-height="744"
     id="namedview4"
     showgrid="false"
     inkscape:zoom="0.83778276"
     inkscape:cx="205.68607"
     inkscape:cy="344.95817"
     inkscape:window-x="0"
     inkscape:window-y="24"
     inkscape:window-maximized="1"
     inkscape:current-layer="svg2"
     fit-margin-top="0"
     fit-margin-left="0"
     fit-margin-right="0"
     fit-margin-bottom="0" />
  <g
     id="g3087"
     inkscape:export-filename="/home/jordan/websites/Foundations/assets/learning.png"
     inkscape:export-xdpi="90"
     inkscape:export-ydpi="90">
    <g
       inkscape:export-ydpi="90"
       inkscape:export-xdpi="90"
       inkscape:export-filename="/home/jordan/websites/Foundations/assets/learning.png"
       transform="matrix(0.25876653,0,0,0.25876653,0.12865313,-0.664138)"
       id="g3031">
      <path
         style="fill:#000000"
         d="M 2.3610743,338.70333 C 30.274754,296.34434 64.462718,257.91742 104.33287,226.57436 69.041676,225.905 -7.9200405,230.83702 42.334122,174.79822 83.746278,131.80066 147.20719,136.95277 201.25963,131.81015 189.7849,104.41222 130.13239,99.281241 141.33207,60.936799 c 26.01266,-28.243214 73.59383,-2.032008 102.33284,12.3767 35.39018,15.220978 65.62751,43.556331 73.76901,82.245271 10.84371,37.56523 17.11806,72.87888 50.54893,93.18765 42.03404,-3.55506 90.36033,-22.71719 135.61806,-30.98537 64.28522,-12.16056 128.48262,-24.56337 192.8322,-35.87265 75.22848,-6.17232 151.46873,8.59482 220.7615,37.38944 27.72858,13.67214 50.39021,-21.78866 79.7385,-21.52798 36.10689,-50.60894 49.15449,-112.961617 45.73779,-173.782298 9.5816,-52.607348 46.1741,5.284671 51.1506,29.861097 7.6994,27.281092 28.9387,27.518626 52.4525,7.045153 42.8997,-11.265171 78.0556,-46.064541 123.912,-45.227259 24.6935,14.744517 45.5933,38.796556 63.5317,64.718406 32.2468,13.330799 20.3949,84.605891 -11.2643,47.735431 -9.9294,-33.501628 -57.787,-27.40183 -84.0203,-19.96463 -28.9528,20.32724 45.0362,19.12896 55.1645,40.39441 18.5809,15.74682 44.5989,38.80039 34.2596,65.82707 -31.037,8.29227 -66.16,-35.62561 -105.6915,-15.75337 -42.7119,-2.3493 -57.1558,36.15393 -71.2912,66.68312 -26.1206,-4.9007 -101.4601,-31.40639 -82.1779,22.12239 73.737,0.65567 148.6073,-10.81573 220.9752,9.02106 77.7681,30.35631 19.3395,-25.94391 33.8685,-46.65295 22.7428,-32.41674 57.3236,-20.03371 54.6127,-56.41019 29.2273,-49.77941 -6.6049,53.11255 40.0237,18.24873 22.4925,-26.9366 45.0586,-17.95224 11.9435,11.34949 -22.2583,29.19294 44.7543,0.30393 61.8159,23.77094 31.3074,14.15915 65.8214,28.25908 84.2171,60 21.9088,23.0519 11.6879,61.4839 2.5969,87.5595 -15.594,36.17485 -38.2904,80.98577 -83.1773,76.4405 11.4619,30.17022 26.2947,65.75261 33.2687,100 6.1031,35.14006 4.3156,65.47187 3.9904,101 -3.4339,42.72051 -6.8104,87.9272 -14.1914,127.4719 -4.7324,37.85272 -19.0815,74.19927 -30.3072,110.2722 -25.6725,50.33641 -73.4481,83.97248 -107.8769,127.70194 -20.4559,37.858 -106.3533,52.9179 -69.5235,103.6129 24.7295,34.0393 33.0811,76.8581 45.7801,116.5544 9.4096,29.4139 28.6551,61.6865 22.3376,91.5042 -24.2417,-13.7159 -99.8188,-4.6828 -84.5235,42.8039 -2.3213,25.0609 24.6833,76.286 -12.1105,80.3114 -40.4884,12.0504 -66.3816,1.3989 -59.4263,56.3244 10.0837,79.6311 0.2148,160.9572 1.1381,241.4427 0.7913,115.2227 -6.5847,230.8979 -31.8978,342.8222 -20.8878,110.5628 -54.3242,218.384 -97.2979,322.1205 -15.9865,38.5906 -58.1626,70.7692 -69.2019,108.0573 18.3347,27.5633 33.8205,66.2246 22.1692,98.5859 -41.6737,35.3275 -97.91013,29.5408 -148.23429,20.7301 -39.57255,-10.601 -85.15147,-8.4871 -122.1402,-17.5484 -35.62989,-7.8913 -38.74637,-42.463 -24.0694,-70.5196 33.64289,-43.9433 -12.41619,-39.2762 -45.31922,-37.78 -28.71735,10.5235 17.34951,55.5212 5.4788,83.1224 -33.46354,30.4983 -86.04173,9.0702 -127.85849,11.7422 -65.72973,-4.5118 -130.91781,-16.1835 -193.51622,-35.8818 -36.52466,-30.0027 -3.94347,-78.7676 18.14773,-108.0962 19.13919,-18.4684 38.25356,-28.9753 7.5466,-43.9062 -17.48639,-32.2768 -29.65789,-67.259 -44.3025,-101.2 -14.32285,-27.1889 -21.54104,-62.5569 -31.6983,-88.2045 -21.85922,-75.5695 -46.09492,-150.2638 -63.0011,-227.0476 -16.12596,-42.0823 -33.35158,-84.1677 -40.80856,-128.3813 -9.74239,-57.7641 -8.72099,-93.8424 -12.6463,-139.0925 -2.37888,-52.2861 -1.73156,-103.9993 -2.04519,-156.0241 -1.53878,-45.2292 23.33444,-93.1185 3.94082,-135.7493 -11.80438,-37.6726 -35.46062,-82.7308 -30.08522,-118.2278 -30.51825,-20.6914 -74.49005,-49.9203 -36.3677,-88.4019 30.70861,-42.0337 57.72106,-86.5668 81.95799,-132.9783 7.17643,-35.4295 68.29293,-78.8505 42.71766,-107.3876 -55.3233,-34.93144 -91.98286,-90.65633 -125.58225,-144.99624 -25.24165,-34.49215 -37.47054,-77.03877 -54.0615,-116.2588 -11.474178,-48.41914 -10.410565,-98.01461 -0.668,-146.5 10.33168,-44.68951 22.37668,-90.43638 43.6702,-131.27907 20.93217,-49.02194 66.73198,-72.75021 84.9787,-123.32139 26.98689,-25.14956 23.37076,-62.87599 -14.5,-36.39954 -23.59478,3.92998 -44.94385,38.50829 -66.5833,14 -15.87673,-23.92645 45.08016,-69.89697 -2.5018,-51.60511 C 101.58997,301.37269 56.872215,330.49969 21.709564,368.65181 2.6829772,371.45614 -5.2363334,354.83887 2.3610743,338.70333 z M 91.683074,187.98559 c 39.873756,-9.00035 108.342236,11.91221 51.249996,50.82405 -19.55836,11.42898 -66.562389,50.66503 -16.5,23.45524 27.62341,-9.33785 88.91491,-40.36739 101.368,1.50687 5.57257,35.60168 66.13676,-24.83128 75.65124,-37.65897 -5.85727,-35.44405 -19.30207,-98.55461 -51.3791,-101.06699 15.73111,15.02736 36.0256,73.17445 -3.5901,67.65906 -33.76605,-33.28065 -87.36509,-26.22088 -131.09804,-20.47474 -2.38496,0.19137 -49.26468,14.4716 -25.701996,15.75548 z m 41.178496,516.39777 c -0.37757,47.65243 20.51996,91.17184 42.1615,132.3531 40.18371,46.90343 59.73247,109.94856 113.10914,146.2073 34.22176,31.24284 74.96525,33.02504 116.2081,45.64264 76.99012,12.6809 154.44947,-5.9572 231.5928,-7.4119 49.11166,-9.1247 99.29706,-11.5966 148.39509,-19.8966 18.82918,-22.05909 -28.22935,-64.60603 -33.00535,-96.76621 -14.31351,-26.03742 -19.32259,-56.27194 -29.22804,-84.02703 -9.11696,-24.04825 -1.29805,-64.03042 -37.1617,-40.4785 -28.45197,-7.10066 -104.55113,3.78903 -80,-44.6584 29.84123,-12.45769 102.28044,37.54971 103.73278,-11.33445 -3.55783,-70.98303 13.65526,-140.58703 33.67812,-207.64991 16.10381,-47.68152 57.84665,-80.59815 83.759,-120.82176 -24.36136,-55.76672 -43.275,19.49564 -63.08214,28.82558 -26.31717,-9.11647 -62.27316,-74.56783 -84.13806,-42.5371 -10.63091,22.83872 14.80783,63.80721 -20.52233,68.46787 -23.49666,-24.26768 -37.02183,-60.04782 -57.84577,-84.56193 -29.24379,-41.10312 -70.67863,24.12441 -102.06483,35.6678 -35.80871,9.96227 -51.47152,78.75872 -81.51677,69.88511 -11.52499,-27.44027 2.97206,-92.56588 -37.5,-40.99275 -48.79699,42.66574 -1.18334,-86.73161 -50.6786,-35.30939 -44.59477,23.50584 -84.40384,54.03986 -125.38809,81.69148 -26.42798,11.24459 -36.76298,52.07181 -46.95525,80.05775 -15.51402,47.2443 -26.09826,97.86948 -23.5496,147.6473 z m 275.25194,144.0865 c 19.81229,-43.43866 51.26691,32.94033 86.8196,25.807 39.64907,30.69569 -50.91624,37.06177 -66.93275,8.63293 -11.45627,-7.28211 -21.3432,-20.24881 -19.88685,-34.43993 z m 39.3358,-225.5982 c 5.42384,-43.94231 59.20722,-6.2658 34.26247,22.06434 -12.14221,8.5538 -42.31903,-3.19962 -34.26247,-22.06434 z M 190.56597,1303.7578 c 24.24545,14.8848 62.12197,69.179 81.7111,54.9452 23.23645,-79.5033 54.70682,-156.2706 91.84294,-229.8167 4.84319,-23.0524 47.84446,-70.4594 5.0617,-70.8537 -22.65268,6.7553 -48.68994,-26.1882 -53.3981,16.1434 -38.4744,62.4085 -70.42711,128.9851 -109.91365,190.9764 -4.52345,11.4026 -22.21569,25.5119 -15.30399,38.6054 z m 42.3132,86.9786 c 4.82942,25.5223 21.19832,68.4162 25.32839,18.7107 1.90169,-7.1127 -31.7965,-45.0967 -25.32839,-18.7107 z m 18.08424,-986.37064 c 37.48624,-24.12528 81.91487,-48.39793 118.7531,-64.99544 22.48542,12.7931 -0.3156,63.11355 38.6562,29.82292 43.97641,-37.12683 33.16133,63.55596 32.78871,38.61306 40.88776,-32.47964 85.69559,-58.93195 128.69815,-88.07643 27.35104,-34.16747 36.0608,19.72597 56.82294,36.37976 9.90322,21.37632 32.92694,54.72362 35.9691,5.80341 -10.11734,-50.1358 39.66686,-40.89026 55.7854,-10.26001 38.05093,66.51632 66.42523,-29.21811 106.8716,-23.11991 -0.51734,25.75485 16.07809,69.29515 43.54049,33.04996 23.63072,-29.65192 95.66849,-37.38924 94.13271,-63.40806 -22.18685,-29.14786 -51.1253,-40.04625 -84.7553,-53.60213 -60.47559,-23.73697 -127.07325,-29.21235 -191.6132,-24.3265 -50.35337,13.34604 -103.00576,17.90508 -153.6763,27.59708 -48.4313,13.71586 -99.38114,17.60406 -146.6027,35.39324 -39.73425,14.49314 -63.61291,66.04649 -113.1606,56.88607 -9.71292,15.56074 -24.36833,61.44973 -22.2103,64.24298 z m 9.3797,1235.53804 c 2.6939,52.862 -2.23331,106.2137 7.598,158.8326 6.95423,49.5057 37.13329,-35.2377 47.8725,-53.121 9.72485,-21.3661 14.84149,-86.6056 42.42375,-40.6487 2.65082,56.4662 -38.12244,101.8343 -63.09172,149.2945 -35.52992,32.9865 -12.99998,70.7067 -2.54687,108.6424 l 43.58284,137.8328 c 8.80358,37.5997 20.66905,78.587 31.7515,112.5 5.7683,19.9912 16.71534,48.5963 22.5924,72 18.65997,43.2604 33.49939,88.2917 58.3071,128.5 10.49872,54.3743 54.44613,3.6656 90.41801,9.6257 44.16058,7.3169 91.67361,15.4731 121.40409,52.0463 8.14629,31.6941 62.75027,35.1542 59.5538,-8.2918 -3.91115,-53.1598 2.92968,-104.9922 1.84353,-160.0196 -0.72816,-36.8904 -17.02535,-110.7645 25.56747,-117.6836 24.1302,28.0909 9.16207,74.4733 9.91179,110.1985 0.89619,42.7049 -3.55402,84.6881 -2.38331,127.4863 1.10591,40.4294 -1.75397,79.1377 44.84382,72.1379 38.08944,-0.6472 72.34438,-31.1943 113.441,-19.0728 30.03685,-0.3284 51.44943,18.8876 80.8516,22.1087 27.67709,-27.39 49.43379,-60.7612 67.64839,-95.036 14.7066,-40.3432 29.7835,-81.3405 45.6115,-123.0702 9.5563,-43.1772 26.6132,-79.9356 33.5859,-123.7135 15.2062,-70.4329 39.8319,-140.7524 37.7975,-214.0522 -39.6826,-5.4471 -58.6433,-49.0775 -75.9946,-80.6513 -12.6666,-20.6927 -54.8499,-104.1073 -3.8972,-77.1803 12.1642,27.0009 21.7551,54.7628 36.319,84.1679 18.8984,38.1568 64.0789,54.6137 51.9414,-3.3422 2.9987,-90.8398 -0.6482,-181.5895 0.8031,-272.2601 0.5797,-36.2163 8.0709,-72.8107 -0.6683,-107.8977 -44.9773,-5.3936 -50.9467,51.4415 -75.5,77.6127 -43.4293,6.6403 28.7105,85.8335 -27.1543,74.2973 -38.4776,-0.5851 -85.1465,-17.8026 -63.4151,-64.0678 14.7502,-48.6489 -25.71721,-83.5044 -24.59799,-134.2383 0.69626,-31.5612 17.67699,-62.5176 -1.4119,-89.6496 -10.89963,-25.5923 -24.46352,-57.8613 6.82209,-74.7025 27.9267,-42.5889 60.2862,45.1171 64.7569,-12.7523 -0.9934,-34.0629 6.6146,-75.4408 6.7879,-110.7872 -42.3373,-14.6692 -89.11895,-19.7849 -131.52949,-37.9009 -26.37244,-11.7129 -59.16775,-28.0534 -38.236,16.4971 33.92909,40.158 -6.04568,58.9635 -44.022,64.084 -75.38145,30.1688 -157.09018,39.232 -237.20713,48.6332 -41.17543,3.6319 -100.35947,8.8208 -104.82997,-45.1076 -10.6107,-41.0825 6.47024,-104.5923 -14.6675,-133.1119 -45.67978,0.9012 -90.83327,-10.2926 -94.11362,49.3846 -28.70574,70.2099 -65.88295,137.117 -87.93218,210.0332 -21.62407,75.0626 -47.28527,149.6553 -55.2717,227.8609 -4.50755,27.7291 -7.10651,56.5311 -5.566,84.5825 z m 274.6769,-320.308 c 29.25792,-11.3898 70.03387,-14.9981 104.05592,-21.78 67.08079,-7.3482 133.33428,-19.703 199.35718,-32.5045 43.87816,-26.8929 87.05469,-8.6494 75.21579,46.1865 5.25853,52.9704 -11.2216,104.5441 -14.96121,157.1743 -31.16666,33.5939 12.30719,85.0143 -32.25458,103.5491 -58.50179,26.6011 -123.28532,12.7257 -183,-0.4848 -31.51301,-12.8427 -67.29947,-25.0681 -91.5,-48.6013 -25.88507,-46.2447 -43.65254,-98.5711 -52.01754,-150.6806 0.81886,-17.9527 -3.40839,-35.2059 -4.89556,-52.8587 z m 31.3712,54.6406 c 10.31944,43.7643 15.71909,96.3869 55.30065,124.63 39.40245,48.0668 108.43026,45.8342 164.69511,52.5843 38.04926,5.9326 70.08271,-18.7933 73.95294,-56.2143 18.1181,-44.5482 19.85097,-97.3229 28.5131,-141.9721 7.25461,-30.0087 2.98139,-78.8757 -41.5297,-51.1945 -67.45885,7.88 -133.86337,21.9055 -201.61632,27.3101 -26.80617,11.2844 -96.0362,-5.0166 -79.31578,44.8565 z M 281.47301,302.80109 c 36.42876,22.10438 100.60875,-67.12266 28.5471,-39.85633 -3.902,19.5371 -21.74094,24.50115 -28.5471,39.85633 z m 139.7101,2260.85941 c 51.44419,24.1146 108.67243,31.6845 164.7538,28.1532 25.57765,-1.6105 72.81587,14.8268 77.65128,-18.255 2.42373,-56.3315 -44.61574,-109.1876 -102.15508,-109.9297 -60.47222,-8.1259 -119.41206,34.8632 -141.4784,89.57 -0.9463,4.4287 -1.09177,6.8678 1.2284,10.4645 l 0,0 z m 127.7701,-1434.9241 c 0.56392,34.1967 -7.98285,94.4244 46.79286,76.5885 57.04124,-1.9618 114.09142,-10.427 169.59654,-22.5943 36.69187,-11.3126 81.18112,-16.0475 109.9813,-40.1769 -14.47023,-35.024 -11.98415,-77.3567 -43.07866,-101.0911 -22.34722,-36.4211 -57.28727,22.0168 -95.7411,4.6714 -52.55401,7.215 -104.87877,16.3882 -158.0474,16.4666 -39.27328,-3.0804 -27.70747,40.4513 -29.50354,66.1358 z m 238.9551,1476.4349 c 38.89475,12.5349 84.43274,11.6676 125.7314,17.2272 33.41162,8.2751 75.59438,10.2311 100.68739,-17.6495 -3.0334,-46.2444 -48.56658,-80.8584 -93.84067,-83.9784 -49.95413,-8.0517 -98.49636,25.1707 -126.95362,63.2698 -1.77783,6.721 -8.9784,13.8093 -5.6245,21.1309 z m 6.0734,-1881.90484 c 2.09212,60.14539 0.65277,122.77169 14.8893,180.9024 18.95224,38.06523 56.38693,69.65042 96.178,88.07395 41.46242,21.61499 87.5158,30.76299 132.58559,40.05529 50.4531,10.4022 101.8207,-11.265 153.2999,-11.3628 37.8861,1.7458 61.5934,-27.11636 94.3704,-41.19884 44.5641,-25.07991 93.0547,-59.1371 124.6349,-94.0628 38.9569,-29.94485 65.6885,-77.13673 74.6246,-125.4372 14.736,-56.93284 11.6721,-118.11803 -9.6018,-172.9642 -10.9879,-48.17265 -43.5744,-86.36276 -71.8679,-125.27845 -20.878,-24.65744 -52.3332,-35.78801 -75.9119,-56.13893 -57.0194,-23.84857 -121.1414,-25.12875 -181.0597,-39.88636 -50.0764,-6.67676 -102.1006,-4.68902 -148.61939,17.76794 -72.01034,31.42887 -134.45496,91.96329 -160.258,166.75 -15.20373,56.97109 -43.33997,112.64433 -43.264,172.78 z m 93.0473,-25.737 c 0.36884,-31.10594 7.32095,-56.35287 25.20191,-82.82224 27.18796,-54.65608 87.25102,-31.32746 131.19258,-44.97076 0.575,19.90093 -8.6157,48.20015 27.5876,27.5291 22.8389,12.62786 -30.3678,51.83434 17.1561,43.7365 6.4613,29.02826 -34.4584,45.64896 -26.5877,81.2619 -9.4798,30.97348 -17.9135,76.27907 -56.3365,82.29813 -34.72837,12.90253 -76.87902,1.0847 -99.30609,-27.82563 -18.33027,-21.39374 -17.1566,-52.77885 -18.9079,-79.207 z m 19.1274,12.0208 c 32.75799,-29.39514 73.08237,-4.93889 99.77669,18.8954 9.8781,41.21985 28.8172,1.02197 32.5412,-23.1438 6.0796,-29.12353 14.3908,-69.0321 -12.5831,-88.8154 -37.72997,-29.50835 -107.43309,-12.17161 -114.46049,38.25 -4.22254,15.28366 -14.00245,43.00777 -5.2743,54.8138 z M 1221.1425,511.40049 c 27.4992,-18.3456 40.2777,-89.3794 75.6903,-74.70797 39.217,0.60843 60.7474,35.19593 94.9783,47.38571 21.3586,34.6456 -14.3443,71.37082 -22.2647,105.37803 -18.3241,40.4141 -54.2988,-4.89605 -74.432,-19.9671 -17.7963,-14.80419 -45.9462,-17.51066 -66.7841,-35.7527 -10.3266,-3.92185 -13.7223,-13.03252 -7.1878,-22.33597 z m 37.6756,6.7841 c 26.9169,8.3162 53.0908,28.46936 73.615,42.76737 23.6619,16.31061 49.2797,-52.37629 19.5,-60.32408 -20.6754,-6.36373 -49.4344,-57.7981 -68.9496,-27.26971 -5.0426,12.46653 -32.4525,33.95628 -24.1654,44.82642 z m 58.0066,158.55187 c 1.6429,-28.7778 44.3079,-44.4175 74.021,-55.90548 36.1457,-13.97506 52.2058,60.34163 18.0784,89.39518 -13.024,41.71625 -57.7103,18.79197 -70.991,-2.9558 -6.6322,-10.86059 -22.2016,-11.38455 -21.1084,-30.5339 z m 44.2095,9.982 c 37.6807,40.74025 43.3609,-63.37476 4.3989,-18.5579 -6.1863,8.37665 -16.5356,10.02895 -4.3989,18.5579 z M 965.86891,251.11053 c 11.40144,20.66152 38.35559,35.7489 60.76479,40.23168 8.1863,-22.76739 -2.4608,-58.90892 -35.20059,-54.19515 -7.75707,-1.44931 -34.11912,-1.87834 -25.5642,13.96347 z m 45.03279,1068.62587 c -6.2546,42.1981 64.743,-10.3134 36.7175,-11.9341 -11.3388,-9.7834 -39.832,-7.6501 -36.7175,11.9341 z m 13.3225,-1109.07936 c 28.3584,24.48221 72.6852,3.25497 109.0758,8.51909 19.0717,-37.74445 75.1983,-47.57768 97.4103,-60.8519 -42.2677,5.06918 -75.8432,-40.54206 -26.7772,-64.739101 19.6779,-19.322776 106.6462,-23.715025 38.7738,-38.261194 -38.0778,4.419725 -69.9289,30.771844 -106.0937,43.412524 -12.1994,26.939451 -42.3049,64.558811 -50.01,12.421521 -10.9462,-50.839381 -33.7136,-19.471216 -32.6216,17.47641 -2.9744,28.60093 -27.432,56.64898 -29.7574,82.02265 z m 1.1949,1238.57936 c -4.001,35.8574 20.3586,91.6893 63.349,82.1029 35.3314,-30.5917 43.1728,-83.6564 35.2483,-127.6029 3.3506,-53.9835 -81.7927,-66.439 -93.0833,-15.4621 -4.0007,20.0402 -8.0959,40.443 -5.514,60.9621 z m 22.9454,147.99 c 37.4297,39.9587 36.4981,-56.2898 1.7388,-29.1643 -0.6367,9.3871 -4.5844,20.2425 -1.7388,29.1643 z m 45.3587,-276.3225 c 26.099,-3.026 17.9496,-53.7297 23.1637,-72.2539 7.853,-27.8991 26.8696,-78.6337 -4.4538,-93.117 -33.6852,8.9889 -13.5044,79.2638 -17.1413,113.4096 -1.6483,15.4755 -19.5809,44.4627 -1.5686,51.9613 z m 118.287,42.3801 c 22.7696,-14.5414 43.0366,-20.7269 61.8259,-32.4128 19.8328,-12.3349 76.5713,-15.0575 67.2059,-48.6001 -18.783,-47.4745 -34.6944,-96.0008 -57.1089,-141.7478 -19.3633,-39.5196 -43.3738,-14.4457 -77.0823,3.0679 -52.566,27.3112 -57.564,56.8654 -60.9693,102.1452 -7.9189,33.5826 -10.8102,63.6087 -17.6498,97.4494 9.9037,46.6644 61.9476,33.7457 83.7785,20.0982 z m -52.5251,79.4524 c 16.3104,41.4434 33.3529,-41.6766 -0.4593,-11.2579 -0.6244,3.7666 0.067,7.5011 0.4593,11.2579 z m 4.6355,48.6831 c -0.4337,-1.9252 -4.3834,1.4328 0,0 z m 40.7957,-77.6831 c -4.4389,43.3322 40.0377,38.9323 67.7491,24.8006 2.7138,-33.6022 -3.3495,-73.1555 -51.7849,-42.5977 -5.5894,3.5263 -19.6811,8.5363 -15.9642,17.7971 z m 61.4098,-24 c 2.6851,0.4557 -0.8961,5.9134 0,0 z m 64.4075,-1093.34158 c 65.7638,68.949 45.4601,-46.32067 0,0 z m 84.6569,40.58578 c 28.5714,27.95259 57.1246,58.89466 85.7926,87.60266 20.9456,28.64758 44.1194,-29.0963 53.1756,-47.51434 19.4327,-15.46171 3.1752,-76.69787 -10.3675,-40.86839 -14.1055,23.2889 -26.853,-5.33027 -15.4789,-21.70667 34.2889,-9.32096 -27.9683,-30.65568 -38.4038,-34.73047 -22.3478,-10.87944 -68.1948,-29.916 -58.7495,12.68982 0.4752,14.62422 -13.6714,29.99791 -15.9685,44.52739 z m 53.6538,-22.81285 c 2.1754,-42.5928 45.6449,11.05346 13.3625,19.80843 -9.0357,-2.22938 -16.4415,-8.91938 -13.3625,-19.80843 z m 44.3791,62.58685 c 4.0541,-47.78429 50.7194,25.40885 5.7081,17.48572 -7.4532,-3.25203 -6.7197,-9.82341 -5.7081,-17.48572 z m 25.4507,0.98186 c 5.2594,1.75253 -3.6748,1.55446 0,0 z m -16.6747,74.32594 c 7.3309,-10.95898 -8.5495,-3.76714 0,0 z m 19.6377,-131.76663 c 8.3281,-7.19658 -10.2285,-2.49368 0,0 z m 4.6225,-4.75244 c -1.9332,-2.83007 -4.3497,-1.18778 0,0 z"
         id="path2984"
         inkscape:connector-curvature="0"
         sodipodi:nodetypes="cccccccccccccccccccccccccsccccccccccccsscccsccsccccccccccccccsccccccccccccccccccccccccccccccccccccccccccccccccccccccccccccccccccccccccccccccccccccccccccccccscsscsscccccccccscsccccsccccccccccccccccccccccccccccccccccccscccccccccccccccccccccccsccccccccccccccccccccccccccccccccccccccsscssccccccccccccccccccccccccccccscsccscssccccccccccsccccccccccccccccccccccccccc" />
      <path
         style="fill:#ffffff;fill-opacity:1;stroke:none"
         d="m 538.01775,2464.8191 c -54.37248,4.9845 -98.37405,46.777 -119.35258,95.3433 71.18178,33.7358 152.64847,33.9136 229.40676,28.5891 27.26833,-18.8615 5.55475,-59.9998 -8.88205,-80.91 -21.67762,-33.3586 -63.79438,-43.4719 -101.17213,-43.0224 z"
         id="path2982"
         inkscape:connector-curvature="0" />
      <path
         style="fill:#ffffff;fill-opacity:1;stroke:none"
         d="m 899.26748,2522.1361 c -46.69726,4.7458 -91.56413,37.9494 -111.442,79.5221 51.24544,16.8696 107.62699,14.1054 160.01572,25.2583 21.08355,-3.6074 58.0378,-3.6129 62.8683,-29.6993 -8.6772,-49.2484 -64.94482,-77.8856 -111.44202,-75.0811 z"
         id="path2985"
         inkscape:connector-curvature="0" />
      <path
         style="fill:#ffffff;fill-opacity:1;stroke:none"
         d="m 479.03537,1068.6715 c -27.70953,-0.9142 -65.45682,6.9275 -67.44808,40.9407 -41.0482,102.5208 -89.58155,202.592 -115.13047,310.6678 -38.43656,120.5542 -36.03023,248.6604 -27.25994,373.389 -1.59838,12.5257 11.52271,24.1006 16.09872,6.1064 22.7122,-33.804 31.13382,-75.1919 51.62693,-109.499 19.0213,-5.8964 30.57844,26.2713 21.09488,40.9407 -15.30708,60.1339 -60.94913,106.6824 -81.04873,164.1792 25.81633,104.4295 62.95345,206.1294 90.29902,310.3474 24.44778,77.4709 51.47537,155.9252 93.58722,225.4901 28.11909,12.9592 58.18711,-16.6958 88.2654,-6.9391 48.55301,6.7493 99.78992,25.0364 127.12437,68.142 19.20742,16.0329 44.99377,-3.2746 39.55289,-26.5074 4.77255,-85.5673 2.35393,-171.36 3.05321,-257.0244 13.81368,-16.8506 33.2048,-29.3489 39.55289,-2.0817 7.92141,89.9682 -9.84509,181.4979 4.30224,271.0414 12.1944,34.6506 57.63866,15.6022 82.99168,9.0208 44.38624,-17.3937 91.58609,-6.6934 134.06348,9.9923 30.19122,2.4255 42.70782,-35.8433 58.70482,-55.0964 67.9966,-122.8703 97.5591,-262.3704 127.2728,-398.3628 3.1562,-30.4272 16.5687,-62.6602 10.399,-92.787 -26.7013,-13.7832 -49.06,-35.1202 -62.3473,-62.9473 -15.7842,-31.3768 -40.9134,-63.823 -38.686,-100.1216 18.6008,-14.6407 33.917,16.4479 38.5814,31.0872 15.316,28.6576 22.8527,71.8487 56.7618,83.6856 29.3349,1.2667 8.6503,-43.7479 15.047,-63.5613 -1.37,-114.7519 5.4604,-230.0025 -1.7239,-344.458 -11.1473,-13.1334 -30.9598,11.2247 -37.8875,20.1234 -12.5191,24.9905 -31.4246,46.2911 -45.7981,69.5298 -1.7942,18.2189 13.6829,46.3046 4.0247,57.1782 -31.5648,1.6932 -83.6308,-0.037 -88.6817,-40.3856 7.1853,-31.8693 9.3773,-64.7384 -5.4125,-95.0657 -23.61598,-46.2537 -4.5362,-97.7642 -12.90676,-146.1375 -13.50378,-26.7952 -25.08247,-70.8095 10.15316,-86.521 16.4423,-24.8688 35.3257,11.7389 54.2417,6.5825 5.8116,-40.4995 10.3173,-83.1492 6.5228,-123.516 -52.659,-15.8059 -105.88652,-30.6181 -158.21158,-47.3247 -24.30943,-0.5904 2.01325,27.7292 4.02468,38.4426 12.46951,32.617 -25.25501,49.6383 -51.45067,52.1674 -92.51781,29.6087 -189.41459,48.4569 -286.62245,50.115 -30.76596,-0.1319 -61.3503,-21.2442 -59.67629,-54.8189 -6.86165,-40.6105 0.0778,-84.8325 -13.32308,-123.5161 -6.92323,-4.3578 -16.03742,-2.2991 -23.73174,-2.498 z m 399.4148,183.7474 c 35.26082,-0.6387 41.70665,41.2048 37.8875,68.4196 -2.24058,59.6758 -10.96773,119.4941 -25.67468,176.8083 -0.94194,28.2494 4.98714,67.9661 -30.53205,77.4404 -71.78542,26.3113 -152.88726,7.5533 -221.53644,-20.2466 -62.69261,-24.2088 -77.9704,-97.7088 -93.91521,-155.4515 -6.49319,-26.7985 -8.51803,-54.3589 -10.96378,-81.7426 111.43958,-28.2096 227.79627,-33.372 338.48947,-64.95 2.08381,-0.059 4.15546,-0.4097 6.24519,-0.2776 z"
         id="path2987"
         inkscape:connector-curvature="0" />
      <path
         style="fill:#ffffff;fill-opacity:1;stroke:none"
         d="m 869.01299,1295.5801 c -94.35112,25.7113 -194.05987,25.8101 -288.80549,49.4065 -29.15222,9.2393 -5.32725,44.4862 -4.02468,64.1173 9.97472,67.1489 67.19931,123.2624 134.68432,130.9798 38.03051,3.623 80.3357,19.2445 116.78879,2.8061 39.27286,-31.2838 39.6808,-88.4524 50.79424,-133.6471 1.43748,-33.73 19.90431,-71.3096 4.99615,-103.5315 -3.62556,-4.3442 -7.70033,-11.3188 -14.43333,-10.1311 z"
         id="path2989"
         inkscape:connector-curvature="0" />
      <path
         style="fill:#ffffff;fill-opacity:1;stroke:none"
         d="m 809.47548,1032.8657 c -32.53891,12.2301 -66.1109,19.764 -101.15341,19.4205 -47.49301,6.512 -95.74995,9.246 -143.10303,14.3035 -22.36417,20.3574 -9.07893,57.2936 -12.71749,84.2405 -0.50351,20.9368 -0.15839,62.7188 32.0082,54.1253 93.56107,-8.3769 190.5341,-17.1198 277.00901,-56.2068 23.51485,-8.1619 -1.73138,-35.8059 -1.49505,-51.7914 -7.07929,-25.2234 -21.06319,-60.3271 -50.54823,-64.0916 z"
         id="path2991"
         inkscape:connector-curvature="0" />
      <path
         style="fill:#ffffff;fill-opacity:1;stroke:none"
         d="m 327.48535,1056.1811 c -14.51492,10.5168 -16.63208,35.0744 -28.53464,49.7126 -33.33222,63.8605 -72.96022,124.7067 -106.36153,188.1598 15.14028,26.1579 40.2202,50.8975 68.55834,62.5908 21.37584,-7.1344 17.78167,-39.6346 28.47699,-56.4814 26.1084,-77.8464 66.92239,-150.0174 93.37367,-227.4668 2.29996,-20.6542 -30.06842,-10.7655 -42.05097,-16.0987 -4.47197,-0.264 -8.98186,-0.8143 -13.46186,-0.4163 z"
         id="path2993"
         inkscape:connector-curvature="0" />
      <path
         style="fill:#ffffff;fill-opacity:1;stroke:none"
         d="m 1089.3989,367.54445 c -116.68255,0.41412 -222.16988,89.49615 -254.80386,199.56861 -23.7176,65.28785 -45.32064,133.43104 -36.86486,203.86478 4.00426,62.64258 -3.18926,140.01605 52.82479,182.78207 80.02246,62.11189 186.80213,89.35549 286.83493,71.94969 47.7961,-3.2017 96.0968,-11.5359 135.4789,-40.86251 76.8573,-45.21973 154.1051,-101.36624 196.5149,-181.83809 20.5,-54.50945 23.6622,-115.72779 15.6829,-173.02766 C 1461.921,518.02827 1380.4934,408.93138 1262.1424,389.92931 1205.2894,378.27042 1147.73,366.38424 1089.3989,367.54445 z m 202.0667,67.17052 c 40.2575,6.71424 78.5995,30.40709 106.1683,59.81507 8.2725,30.60039 -16.1887,60.32858 -24.5644,88.95931 -2.9476,22.16255 -26.6309,29.67266 -42.8837,15.68237 -31.4577,-28.65151 -71.9772,-43.72147 -105.8907,-68.55834 -18.3676,-20.88463 16.8117,-38.75049 23.3154,-57.45578 11.3477,-14.90699 21.1588,-40.54029 43.8551,-38.44263 z m -246.1994,151.82758 c -6.495,33.11521 50.7166,-8.37024 28.2852,37.71049 -4.2818,11.57771 -0.7006,21.27361 12.1004,15.0267 12.5579,14.16136 -9.3856,35.48286 -14.4333,49.96154 -14.3334,35.85427 -13.1159,82.69756 -47.3247,107.83367 -51.64812,34.93471 -136.71561,-1.34281 -135.31254,-67.58687 -4.0486,-43.66063 -1.11227,-90.12794 29.56058,-124.48751 28.17724,-41.40888 84.74206,-27.28941 127.12436,-34.8343 0,5.45876 0,10.91752 0,16.37628 z m 355.5597,33.16892 c 34.2828,6.37473 29.1651,56.70442 17.3477,80.4936 -8.6063,21.5099 -31.9018,47.67271 -55.7904,28.86667 -18.815,-15.00065 -56.444,-36.40306 -41.9121,-65.08879 18.1876,-24.77297 50.1892,-40.82166 80.3548,-44.27148 z"
         id="path2995"
         inkscape:connector-curvature="0" />
      <path
         style="fill:#ffffff;fill-opacity:1;stroke:none"
         d="m 975.04249,605.41691 c -48.14412,-0.4555 -72.01307,53.89522 -68.00321,95.06572 12.78926,6.99002 28.29184,-12.20146 43.3,-3.8859 28.31604,5.35748 52.47002,24.24707 67.17052,47.46347 20.5161,-19.57627 19.686,-55.18347 22.899,-82.29777 7.4009,-36.67622 -33.3179,-60.51654 -65.36631,-56.34552 z"
         id="path2997"
         inkscape:connector-curvature="0" />
      <path
         style="fill:#ffffff;fill-opacity:1;stroke:none"
         d="m 1299.2374,465.94093 c -15.5964,12.37334 -35.5061,29.09312 -39.9692,48.29616 28.7047,13.68433 53.9837,35.46574 83.5468,46.76956 17.3767,-11.61563 31.6394,-44.56957 7.2166,-57.45577 -15.8996,-13.28218 -31.6448,-29.76064 -50.7942,-37.60995 z"
         id="path2999"
         inkscape:connector-curvature="0" />
      <path
         style="fill:#ffffff;fill-opacity:1;stroke:none"
         d="m 1060.9726,1564.0064 c -7.7207,-0.1836 -12.2318,6.7657 -11.8311,13.8435 -0.097,8.2643 -3.925,20.0018 5.5859,24.5991 5.5826,4.6424 16.3628,5.7493 18.6662,-3.0185 3.1689,-9.5156 3.3019,-21.5617 -2.5674,-30.1157 -2.4529,-2.8624 -5.8406,-5.69 -9.8536,-5.3084 z"
         id="path3001"
         inkscape:connector-curvature="0" />
      <path
         style="fill:#ffffff;fill-opacity:1;stroke:none"
         d="m 1072.6997,1356.6313 c -19.9235,-0.4191 -39.1291,14.3461 -41.704,34.522 -6.6259,28.3779 -7.3607,58.1372 -2.9262,86.88 5.3798,22.1045 18.2643,46.4541 41.8893,52.596 7.5427,0.5074 17.2357,3.9409 22.2277,-3.5307 28.6835,-27.395 36.2869,-69.537 33.2445,-107.6312 -1.5828,-17.4747 -1.2634,-38.0217 -16.2663,-50.1376 -9.916,-8.7057 -23.3883,-12.8759 -36.465,-12.6985 z"
         id="path3003"
         inkscape:connector-curvature="0" />
      <path
         style="fill:#ffffff;fill-opacity:1;stroke:none"
         d="m 1171.2697,1425.4325 c -7.4132,0.7412 -14.5426,7.4126 -11.5189,15.3354 1.3269,5.0034 5.0498,14.5823 11.623,12.6639 6.5798,-6.2622 8.4636,-18.0592 4.3716,-26.1605 -0.9622,-1.4434 -2.8118,-2.0157 -4.4757,-1.8388 z"
         id="path3005"
         inkscape:connector-curvature="0" />
      <path
         style="fill:#ffffff;fill-opacity:1;stroke:none"
         d="m 1249.7856,1385.6714 c -14.8748,1.5779 -28.2251,9.9843 -40.4896,18.0417 -7.5563,5.2717 -3.7954,15.9302 -3.192,23.5582 1.8877,13.9881 16.4817,21.8089 29.6299,20.3663 12.8093,-0.4057 25.3276,-4.0922 36.8814,-9.5066 -0.3331,-16.3019 1.6309,-35.7621 -10.6515,-48.4696 -3.418,-2.7513 -7.7933,-4.1899 -12.1782,-3.99 z"
         id="path3007"
         inkscape:connector-curvature="0" />
      <path
         style="fill:#ffffff;fill-opacity:1;stroke:none"
         d="m 1257.6268,1119.8344 c -20.1755,4.7302 -37.4514,17.2936 -55.4781,27.0278 -19.0134,10.4154 -37.0367,24.6674 -45.4858,45.2776 -10.3252,24.4069 -8.5056,51.606 -15.0622,76.9857 -4.3725,24.6565 -8.7434,49.4422 -12.7983,74.0786 2.5187,17.8256 18.832,33.0571 37.2629,31.6286 21.5754,1.275 41.2335,-8.8606 59.2716,-19.4458 29.1448,-15.7166 59.0387,-30.2552 90.509,-40.7025 11.2962,-4.6296 26.889,-11.8364 25.0155,-26.5421 -3.3048,-18.8292 -12.3593,-36.1588 -18.5621,-54.1597 -13.2916,-33.1986 -25.076,-67.213 -41.8775,-98.8475 -5.0471,-7.5412 -13.0541,-15.5832 -22.795,-15.3007 z"
         id="path3009"
         inkscape:connector-curvature="0" />
      <path
         style="fill:#ffffff;fill-opacity:1;stroke:none"
         d="m 1111.2811,1156.9586 c -12.88,3.6091 -16.9677,19.074 -17.4539,30.9461 -2.0575,27.3081 3.7662,54.6752 1.2768,81.9033 -1.557,13.9094 -9.5406,26.864 -8.5608,40.9905 0.4865,5.9006 6.9647,12.4249 12.7333,7.7718 12.2319,-7.0766 11.8159,-23.5063 13.9038,-35.8281 1.4876,-18.5202 3.0215,-37.1435 9.1687,-54.8313 4.5885,-20.2576 12.6983,-43.5748 0.6939,-62.8336 -2.6563,-3.8803 -6.7224,-8.0921 -11.7618,-8.1187 z"
         id="path3011"
         inkscape:connector-curvature="0" />
      <path
         style="fill:#ffffff;fill-opacity:1;stroke:none"
         d="m 1027.7343,1303.1308 c -9.2126,-0.7057 -17.3662,7.1693 -16.411,16.4804 -0.908,6.3926 0.6202,16.6982 9.2637,15.4742 12.7522,-0.3567 23.9032,-9.3994 31.5036,-18.9438 3.2983,-3.784 0.3241,-8.0317 -4.0941,-8.3269 -6.2247,-3.3105 -13.1989,-5.0312 -20.2622,-4.6839 z"
         id="path3013"
         inkscape:connector-curvature="0" />
      <path
         style="fill:#ffffff;fill-opacity:1;stroke:none"
         d="m 1295.3998,464.78216 c -14.1949,7.5557 -21.9127,24.52527 -31.5923,37.11964 -4.0761,5.30687 -9.8004,14.29491 0.2275,16.86658 27.1245,11.13015 49.2798,31.57893 76.1914,42.81427 18.8316,-4.57268 25.3168,-29.39394 22.9684,-46.56138 -5.7167,-16.19347 -26.1471,-19.52115 -36.4303,-32.26683 -9.2661,-7.11229 -18.987,-17.41178 -31.3647,-17.97228 z"
         id="path3015"
         inkscape:connector-curvature="0" />
      <path
         style="fill:#ffffff;fill-opacity:1;stroke:none"
         d="m 1381.4447,658.59132 c -11.7263,2.46302 -18.6928,13.46459 -26.3686,21.65 7.0776,8.78756 25.0697,22.93963 32.475,6.86971 3.3351,-7.8268 7.9874,-29.08207 -6.1064,-28.51971 z"
         id="path3017"
         inkscape:connector-curvature="0" />
      <path
         style="fill:#ffffff;fill-opacity:1;stroke:none"
         d="m 1443.4802,267.8504 c -17.4951,1.0871 -9.9916,23.35815 -14.017,34.41796 -3.201,11.74728 -8.8416,22.60849 -13.5312,33.79343 31.7942,31.03006 60.3433,65.80885 94.9269,93.74729 14.1411,2.45378 21.6159,-15.83171 28.4339,-25.3172 7.499,-18.38275 24.4665,-33.73945 22.3604,-54.96823 -0.4219,-7.31327 -1.3468,-20.80577 -9.229,-22.76026 -7.0509,5.07713 -13.9056,26.01817 -24.6339,15.19664 -7.2908,-10.43411 -2.9767,-29.64179 9.9924,-32.33623 -4.9687,-15.09076 -25.2603,-18.05746 -37.7488,-25.18894 -18.3058,-6.43406 -36.8514,-16.4375 -56.5537,-16.58446 z m 34.071,29.62997 c 15.5527,3.1328 25.0715,27.49737 8.327,36.01395 -9.195,4.55085 -19.77,-9.37461 -17.3478,-18.31923 0.6622,-5.9053 0.9402,-17.21694 9.0208,-17.69472 z m 44.2715,62.86828 c 14.2418,2.40905 25.7801,27.28087 8.6045,33.93222 -9.8821,4.83554 -19.905,-3.57053 -17.0702,-14.36395 0.4222,-6.23657 -0.6475,-19.09894 8.4657,-19.56827 z"
         id="path3019"
         inkscape:connector-curvature="0" />
      <path
         style="fill:#ffffff;fill-opacity:1;stroke:none"
         d="m 1237.8052,57.109829 c -35.1178,7.185282 -65.5933,28.386031 -98.5353,41.426448 -11.1948,13.997113 -19.4852,36.257973 -39.3447,38.858983 -17.7962,-10.15035 -10.7522,-38.32239 -26.5767,-50.516677 -12.9053,-0.186374 -15.5922,18.277247 -16.9315,28.450327 -2.0787,33.21618 -22.6128,61.09079 -30.3932,92.49825 4.364,10.4914 19.9785,12.93117 30.3239,13.32308 25.2824,-0.37943 50.4839,-2.68231 75.7056,-4.30225 18.8536,-22.85419 44.4561,-38.11375 72.1667,-47.81042 15.3611,-5.32086 27.6571,-9.93622 4.441,-12.28222 -20.5111,-4.67497 -40.3392,-31.63761 -22.6215,-49.89215 20.463,-23.307768 53.1799,-26.614443 79.1058,-40.31619 -0.035,-6.987106 -13.1733,-6.615129 -18.3193,-9.020835 -2.9821,-0.492761 -6.006,-0.603623 -9.0208,-0.416346 z"
         id="path3021"
         inkscape:connector-curvature="0" />
      <path
         style="fill:#ffffff;fill-opacity:1;stroke:none"
         d="m 979.67056,237.80408 c -8.4629,-1.60744 -18.93098,5.09289 -12.14343,14.01699 12.89632,20.16138 35.73957,32.32036 58.35787,38.44264 7.6174,-21.16572 -3.7522,-53.50116 -29.83815,-52.11267 -5.45628,-0.1786 -10.91565,-0.53823 -16.37629,-0.34696 z"
         id="path3023"
         inkscape:connector-curvature="0" />
      <path
         style="fill:#ffffff;fill-opacity:1;stroke:none"
         d="m 716.88671,221.08084 c -45.33102,-1.77063 -88.55903,14.52776 -133.26995,19.30881 -62.45449,11.04236 -125.05704,22.68599 -186.06759,40.15931 -43.82192,11.31088 -68.98547,62.07747 -117.04637,61.32173 -13.75736,-1.91329 -12.90974,17.13535 -18.44802,26.05449 -2.86378,10.38145 -9.03502,22.19316 -8.97774,32.25393 39.2953,-19.86265 76.33962,-44.591 117.27084,-61.41107 13.50569,9.79617 8.52452,29.02458 18.45802,40.31619 14.33299,-2.9363 25.78824,-21.60761 41.49584,-17.7641 13.43902,9.37393 9.53274,28.62309 15.12724,41.35705 44.82093,-31.81845 91.32536,-61.983 136.63095,-93.05338 16.93532,-4.87229 22.78906,18.28697 31.79853,27.81726 12.37094,15.86827 20.48028,36.53352 36.82921,48.58227 10.71553,1.30835 8.31042,-15.64382 9.78413,-22.62147 -1.21644,-13.89154 0.44402,-35.49231 18.24984,-36.98542 29.57788,-1.8344 39.42299,32.0664 60.71716,45.45112 18.50302,6.47973 32.63031,-13.92434 45.82537,-23.43414 11.14636,-8.36542 25.31687,-24.55318 40.49708,-18.20048 3.51129,15.28774 4.01946,39.18084 22.62147,44.06331 17.58685,-4.54895 27.21688,-23.48849 43.85514,-30.74023 23.005,-14.27376 54.14408,-19.33764 70.22373,-42.67549 -13.09064,-20.28587 -36.26147,-33.72169 -58.01091,-44.20208 -54.61838,-25.36763 -114.77652,-37.89679 -175.00417,-35.65657 -4.1866,0.0196 -8.3732,0.0393 -12.5598,0.059 z"
         id="path3025"
         inkscape:connector-curvature="0" />
      <path
         style="fill:#ffffff;fill-opacity:1;stroke:none"
         d="m 264.62989,135.99692 c 4.44939,16.28625 17.91182,55.28925 -10.40865,56.06796 -30.80942,-11.57504 -61.50696,-27.28119 -95.89841,-21.23366 -18.08469,2.68725 -43.14808,0.96053 -57.317,10.54744 21.25143,5.66971 62.97054,3.45976 63.83975,33.16892 -6.85771,21.41563 -35.13696,31.42759 -45.24295,47.46346 32.44688,-5.50394 72.94391,-36.90381 102.28238,-9.57596 5.22691,13.61321 18.08388,27.68461 32.33623,13.87821 24.23767,-14.67401 57.82494,-39.62512 40.94071,-71.88911 -7.52187,-19.71349 -11.77804,-46.58878 -30.53206,-58.42726 z"
         id="path3027"
         inkscape:connector-curvature="0" />
      <path
         style="fill:#ffffff;fill-opacity:1;stroke:none"
         d="m 331.66163,259.37418 c -24.70728,-1.25074 -28.41576,25.5727 -44.54904,38.30386 -0.78615,14.58055 24.95996,1.08941 30.9484,-3.33077 7.23687,-3.30011 35.6886,-34.38693 13.60064,-34.97309 z"
         id="path3029"
         inkscape:connector-curvature="0" />
    </g>
    <path
       inkscape:connector-curvature="0"
       id="path3012"
       d="m 148.22039,91.021508 c -8.50921,2.212913 -14.41779,9.885662 -22.11939,13.801312 -6.25828,4.25763 -9.1621,13.26677 -16.26317,15.77825 -4.65469,-3.00536 -1.12909,-12.22585 -6.52765,-14.28622 -3.820493,0.403 -6.379836,7.95093 -10.183127,5.18482 -2.681546,-3.58517 0.8453,-10.59773 -3.245173,-12.83149 -15.228391,7.75696 -29.449069,18.21456 -42.597558,29.09465 -9.417959,15.98664 -12.592399,35.39413 -12.570383,53.86242 -0.02247,24.02142 16.764485,43.20399 29.743735,61.86096 7.905901,11.1251 19.940876,18.44601 33.414901,20.61154 26.485995,5.79812 53.631205,-0.0695 80.217165,-2.15784 8.6007,-1.39158 17.89342,-1.57321 26.04461,-3.84794 -0.0567,-10.83994 -8.47761,-19.24706 -11.0209,-29.575 -3.8657,-9.22923 -6.08171,-19.23169 -8.93505,-28.50241 -8.66997,-1.07447 -19.1871,2.0688 -26.6701,-3.31978 -1.64987,-2.60724 -2.49066,-9.0931 2.43908,-6.6093 7.14055,-0.38601 15.41411,4.24529 22.03027,0.67847 3.40333,-12.08187 1.95434,-25.20932 5.48323,-37.41274 2.46056,-14.07021 6.64328,-27.90141 16.71077,-38.41986 2.35745,-5.27896 12.17194,-9.94603 8.16889,-16.524276 -4.0405,-4.660534 -8.60903,2.885356 -10.89185,5.781626 -1.68686,1.92049 -3.83875,6.89812 -6.45304,2.72297 -5.41809,-3.34963 -9.74916,-10.595507 -16.48698,-11.152956 -8.01617,3.855368 1.3181,16.491256 -7.38556,19.247236 -7.87214,-6.25097 -10.34265,-18.288421 -19.13533,-23.611434 -1.21985,-0.318019 -2.50848,-0.453383 -3.76739,-0.373008 z m -28.34863,64.642352 c 5.44681,-0.0782 8.95716,9.59267 2.20074,10.33233 -4.90903,1.29877 -8.36858,-4.60219 -4.5507,-8.13158 0.61374,-0.83735 1.33709,-1.87928 2.34996,-2.20075 z m -10.74265,60.57656 c 7.0851,1.66356 11.71566,8.65986 18.87423,10.48154 3.19333,1.23796 1.92352,5.26219 -1.41743,4.588 -8.19595,1.88143 -20.95954,-3.11133 -19.76945,-12.94339 0.22532,-1.07725 1.14434,-2.13284 2.31265,-2.12615 z"
       style="fill:#fff6d5;fill-opacity:1;stroke:none" />
    <path
       inkscape:connector-curvature="0"
       id="path3014"
       d="m 265.86107,335.83065 c -4.24751,0.0945 -6.5568,6.31797 -3.50628,9.08275 4.16034,1.13437 9.18851,-1.74708 10.89185,-5.59513 -0.2059,-2.63352 -3.97416,-2.98504 -6.00544,-3.50627 -0.45943,-0.0216 -0.92255,-0.0439 -1.38013,0.0186 z"
       style="fill:#fff6d5;fill-opacity:1;stroke:none" />
    <path
       inkscape:connector-curvature="0"
       id="path3016"
       d="m 276.79022,349.89306 c -6.31333,-0.08 -10.61805,5.92454 -10.9652,11.79537 -1.81098,10.58179 -2.44143,23.64251 6.11609,31.56686 3.10572,2.96345 8.97192,4.92928 11.95492,0.70871 8.7555,-8.77359 8.93114,-22.36478 7.40421,-33.92511 -1.00016,-6.75258 -8.06076,-10.72046 -14.51002,-10.14583 z"
       style="fill:#fff6d5;fill-opacity:1;stroke:none" />
    <path
       inkscape:connector-curvature="0"
       id="path3020"
       d="m 178.15625,55.701548 c -17.43401,3.929102 -35.26301,5.941072 -52.64685,10.045291 -9.75075,2.331269 -20.02734,3.559235 -29.038617,8.140738 -7.441626,4.39996 -13.212734,12.63108 -22.457431,13.077818 -2.094842,-0.02227 -4.4449,-0.006 -4.854582,2.562958 -1.806698,4.471128 -3.829979,9.06348 -4.470677,13.860417 0.694303,1.95486 2.687675,-0.55645 3.748899,-0.91978 8.936914,-5.19031 18.071496,-10.504307 27.453526,-14.615493 2.935077,2.563455 1.624106,7.463469 4.272862,10.181011 3.06313,0.293526 5.28849,-2.731151 7.89951,-3.929975 1.754,-1.336827 4.31477,-0.557666 4.82675,1.661667 1.23058,2.754241 0.64124,5.9947 1.64848,8.7831 1.93527,0.16065 3.37953,-2.1304 5.08151,-2.96147 10.20594,-7.345363 20.95907,-14.105687 31.19823,-21.370091 2.92687,-1.235981 4.55994,2.584761 5.89497,4.431114 3.68346,4.791737 6.1539,10.601333 10.62939,14.730815 1.88878,1.589402 4.01929,-0.611384 4.08823,-2.584816 1.34464,-3.666711 -0.94815,-8.370601 2.20237,-11.328353 3.50895,-2.604066 8.1152,0.474013 10.43158,3.310147 2.72864,3.000523 4.77374,8.250196 9.64031,7.912703 4.99311,-0.504136 7.98285,-5.384635 11.78337,-8.052259 2.05618,-1.549582 4.52032,-4.025152 7.29944,-3.526663 1.13833,2.366488 0.77044,5.356702 2.18918,7.701697 0.94997,2.581315 4.1716,5.378625 6.87086,3.389275 4.20463,-3.366122 8.04895,-7.218386 13.1584,-9.231685 4.70965,-2.542856 10.4809,-3.836512 14.14042,-7.912505 1.76977,-2.906899 -1.68186,-5.534479 -3.62665,-7.279686 -10.10546,-7.638087 -22.44939,-11.773111 -34.73415,-14.352662 -10.72769,-2.262714 -21.74195,-1.700826 -32.62933,-1.723313 z"
       style="fill:#ffdd55;fill-opacity:1;stroke:none" />
    <path
       inkscape:connector-curvature="0"
       id="path3022"
       d="m 320.83547,13.421339 c -7.42727,0.960012 -13.90314,5.20461 -20.64786,8.181868 -2.85915,1.660937 -6.72594,2.255593 -7.87743,5.79724 -1.85898,2.59243 -3.87677,6.310009 -7.39838,6.659858 -2.57792,-1.217286 -2.51255,-4.840562 -3.49478,-7.187371 -0.80831,-2.195489 -1.58598,-6.293666 -4.69487,-5.92134 -3.40237,1.575738 -3.59773,6.073797 -4.27286,9.323802 -0.42661,8.370851 -6.22071,15.177414 -7.59619,23.263346 0.44884,2.069558 3.26002,2.427094 4.93225,3.244209 7.33718,1.666698 14.84038,-0.658628 22.26107,-0.342884 2.41642,0.272543 2.76047,-2.604453 4.53889,-3.601189 5.82517,-6.068883 14.14529,-8.088289 21.42797,-11.775831 0.82824,-2.02641 -3.16963,-0.997485 -4.35199,-1.727606 -4.284,-0.850185 -9.07835,-5.359551 -7.161,-10.062321 3.56986,-6.272411 11.25414,-7.868869 17.4607,-10.326077 1.40899,-0.927867 4.26395,-0.871406 4.72125,-2.716695 -1.20319,-2.203769 -4.38983,-2.352593 -6.60711,-2.795821 -0.41182,-0.04479 -0.82679,-0.02835 -1.23966,-0.01319 z"
       style="fill:#ffdd55;fill-opacity:1;stroke:none" />
    <path
       inkscape:connector-curvature="0"
       id="path3024"
       d="m 66.04644,31.40955 c -1.675054,1.213741 1.056812,2.84986 1.384723,4.167357 1.701391,3.383874 2.736145,7.542862 1.661668,11.262414 -1.438289,2.408088 -4.439018,1.451112 -6.277411,0.158254 -5.510808,-3.88212 -12.349936,-4.764662 -18.937686,-4.609048 -7.29345,0.170369 -15.102902,0.444905 -21.562165,4.173849 -1.493078,0.987324 0.536801,2.017321 1.621594,1.616458 5.500799,0.573994 12.045833,-0.866321 16.603998,3.012473 2.015773,1.382591 1.98019,4.254098 0.18463,5.802649 -3.996981,4.683633 -10.180984,7.100208 -13.899982,12.040496 -0.0091,1.955783 2.702882,0.194682 3.708974,-0.105455 6.200173,-2.490884 12.436917,-5.523046 19.13219,-6.104881 3.571299,-0.645955 7.608936,1.105933 8.651592,4.782986 0.667917,2.20194 2.793675,4.097718 5.182622,3.062642 C 69.599885,68.092598 74.436095,63.196637 78.878206,58.405055 78.744501,52.887518 76.854639,47.407177 75.225175,42.118075 73.483904,37.866519 71.0478,32.36958 66.04644,31.40955 z"
       style="fill:#ffdd55;fill-opacity:1;stroke:none" />
    <path
       inkscape:connector-curvature="0"
       id="path3026"
       d="m 85.656755,65.592426 c -2.710612,0.267905 -5.990605,0.935368 -6.8313,3.956352 -1.609598,3.010174 -5.051953,4.81487 -6.132345,8.097333 1.027227,1.996854 4.158405,1.168002 5.987279,1.028651 4.699509,-1.346608 9.055605,-5.118604 10.392016,-9.904067 0.476175,-2.185369 -1.329385,-3.58344 -3.41565,-3.178269 z"
       style="fill:#e9afaf;fill-opacity:1;stroke:none" />
    <path
       inkscape:connector-curvature="0"
       id="path3028"
       d="m 254.88309,60.093098 c -2.10742,-0.009 -6.0031,0.21408 -5.56526,3.217832 2.10798,6.025519 8.45724,9.1797 14.04504,11.328353 1.25121,0.674456 3.17829,0.810548 3.16509,-1.081402 0.89597,-4.795564 -0.27448,-11.236905 -5.60484,-12.818579 -1.93892,-0.637393 -4.0153,-0.702249 -6.04003,-0.646204 z"
       style="fill:#e9afaf;fill-opacity:1;stroke:none" />
    <path
       inkscape:connector-curvature="0"
       id="path3032"
       d="m 224.98717,333.71965 c -3.1749,0.39772 -6.01455,2.01099 -9.22661,2.34092 -13.74776,2.18103 -27.56525,4.25076 -41.39062,6.02379 -3.67198,0.27895 -7.29297,0.83624 -10.88252,1.52001 -4.65599,0.81906 -9.56271,0.5964 -14.03444,2.23805 -2.77371,1.05661 -4.61069,4.17522 -3.63822,7.08784 2.01071,9.32808 3.4228,19.08003 8.23554,27.45274 3.36987,4.61723 7.61528,8.61128 12.0575,12.19737 9.74536,6.72538 22.05563,7.04467 33.42155,8.39269 5.4102,0.5079 11.44505,1.21098 16.16059,-2.1075 4.4572,-2.76529 6.88658,-7.73388 7.76595,-12.76405 4.03236,-11.00724 4.90577,-22.88113 6.88908,-34.39252 0.57321,-5.00728 2.02558,-10.57603 -0.49936,-15.28503 -0.93998,-1.74922 -2.84982,-2.89212 -4.85844,-2.70431 z"
       style="fill:#e9afaf;fill-opacity:1;stroke:none" />
    <path
       inkscape:connector-curvature="0"
       id="path3034"
       d="m 282.45282,93.014738 c -31.28617,1.296421 -59.86454,24.663062 -67.85023,54.906832 -5.56761,15.52437 -10.58069,31.57306 -8.81879,48.30449 0.93436,16.78911 -1.30962,37.34392 12.88487,49.39539 17.27951,14.56356 40.72097,22.06212 63.29924,21.1779 11.87922,-1.0326 24.0519,-2.07212 35.57117,-4.70528 24.11512,-13.95035 50.59611,-29.03602 63.38795,-54.86416 16.03174,-38.87117 -3.54361,-89.12911 -42.78406,-105.03917 -18.17913,-4.612311 -36.94409,-8.095389 -55.69015,-9.176002 z m 50.65454,19.732142 c 10.3192,1.23262 20.13867,7.39155 27.34151,14.65923 1.84126,8.84248 -4.0028,17.388 -7.19906,25.25267 -3.1959,5.57714 -10.33623,-0.46208 -13.72671,-3.05867 -6.82837,-6.1885 -17.34308,-8.06581 -22.94001,-15.36795 0.83192,-5.66297 6.89942,-9.51934 9.1025,-14.81187 1.96629,-2.28654 3.7122,-6.87454 7.42177,-6.67341 z m -63.48603,38.75557 c -0.38034,5.03631 4.59775,4.63018 7.98238,4.62531 0.96969,3.24627 -4.1672,10.51776 2.49916,9.77282 2.51373,2.40835 -1.82463,6.85651 -2.49916,9.51171 -5.5562,9.58644 -3.60626,23.92022 -14.21162,29.98988 -13.0669,7.73121 -33.60123,-1.94983 -31.85492,-18.24011 -0.73685,-11.74903 -0.32962,-24.89595 9.13871,-33.27235 7.81442,-6.32627 18.83786,-4.70469 28.23674,-6.11734 0.23623,1.24336 0.47247,2.48672 0.70871,3.73008 z m 91.94657,9.10141 c 5.88833,0.52085 7.96029,7.11609 6.30384,12.38388 -0.0879,6.65545 -5.04513,15.93348 -12.53308,15.03223 -5.72582,-2.68027 -12.82299,-7.3446 -13.3164,-14.21161 2.5058,-7.50672 12.4565,-11.48595 19.54564,-13.2045 z"
       style="fill:#fff6d5;fill-opacity:1;stroke:none" />
    <path
       inkscape:connector-curvature="0"
       id="path3036"
       d="m 252.38834,155.23254 c -12.09864,-0.25351 -18.37273,12.27428 -18.79962,22.94001 -1.20982,2.62169 0.69809,5.58855 3.43168,3.39438 9.1254,-3.5269 20.18989,2.19634 24.58125,10.07123 6.16139,1.08867 6.94161,-8.07175 7.94508,-12.27198 1.42943,-8.37817 1.53727,-20.73893 -8.8403,-23.05192 -2.64777,-0.94276 -5.51207,-1.21757 -8.31809,-1.08172 z"
       style="fill:#ffffff;fill-opacity:1;stroke:none" />
    <path
       inkscape:connector-curvature="0"
       id="path3038"
       d="m 335.79302,119.53563 c -4.48262,2.7176 -9.03325,7.33162 -10.33233,12.45848 6.43531,5.30135 14.05768,10.61397 21.89559,13.39101 6.65075,-2.95018 9.04609,-14.33507 1.30553,-17.86711 -3.98703,-2.8261 -7.80873,-7.41977 -12.86879,-7.98238 z"
       style="fill:#ffffff;fill-opacity:1;stroke:none" />
    <path
       inkscape:connector-curvature="0"
       id="path3040"
       d="m 373.21289,67.884007 c -2.96744,0.09639 -3.76669,3.602422 -3.40246,6.013654 0.27299,4.441321 -2.7923,8.013012 -3.70579,12.119623 4.81862,6.380947 10.85682,11.807845 16.36163,17.649966 2.96544,2.60978 5.37488,6.2025 8.94584,7.974 4.22967,-0.31208 6.15447,-4.90385 8.17646,-8.0182 2.10573,-4.649131 6.06389,-8.953476 5.36745,-14.401121 -0.19437,-2.128288 -0.50216,-5.588764 -3.04639,-6.066406 -2.5027,0.491142 -2.53103,4.593266 -5.09051,4.694871 -2.43754,-1.329737 -1.88376,-5.538031 0.0923,-7.068682 2.27367,-0.387694 1.87301,-3.462842 0.11869,-4.312423 -5.65886,-3.443528 -12.01518,-5.707648 -18.22559,-7.939078 -1.81565,-0.529981 -3.70674,-0.680671 -5.59164,-0.646204 z m 8.95454,9.165547 c 3.59239,0.343197 5.75226,6.471411 1.83311,7.965454 -2.19945,0.192252 -3.66094,-2.60259 -3.12552,-4.562992 0.20855,-1.141933 0.35117,-2.625161 1.29241,-3.402462 z m 12.01412,16.300168 c 2.11257,0.649861 3.4928,3.236578 3.50797,5.354262 -0.4502,2.827816 -5.57345,2.824586 -5.43339,-0.237381 0.17605,-1.583269 -0.0439,-4.630996 1.92542,-5.116881 z"
       style="fill:#ff0000;fill-opacity:1;stroke:none" />
    <path
       inkscape:connector-curvature="0"
       id="path3063"
       d="m 120.95958,274.82139 c -6.3886,-0.32497 -14.34535,2.14731 -15.24514,9.46886 -8.080991,22.64357 -19.841329,44.13218 -26.112279,67.51703 -8.470597,27.39175 -14.864477,55.94374 -12.851652,84.80228 0.727433,10.76428 -0.232703,22.09259 2.987504,32.44231 2.967483,2.24961 5.123095,-2.99003 6.567543,-4.90588 5.245913,-7.94032 7.08361,-17.54946 11.737176,-25.74266 2.202972,-1.03592 4.225637,2.66877 3.745346,4.74762 -1.847821,13.61963 -10.464823,25.29882 -17.356297,36.88782 -4.921801,5.14935 -3.967187,12.45448 -1.986759,18.66137 7.223614,24.50048 14.860864,48.97306 21.969302,73.54749 6.063746,20.08048 13.536196,39.92348 24.145066,58.03874 6.48449,3.12214 12.98103,-3.05189 19.75538,-2.1628 12.57489,0.4737 26.65077,4.47991 34.051,15.48252 3.54317,5.10516 12.39812,4.41304 14.29562,-1.66167 2.04534,-23.04067 -0.24525,-46.42095 1.81992,-69.42078 -0.097,-2.6135 2.85403,-5.5258 5.16963,-4.8795 3.12745,7.96705 0.98965,17.1201 1.58236,25.53138 0.22718,15.50162 -1.33375,31.24026 0.26394,46.6061 1.26588,5.44877 6.93539,8.46501 12.26469,7.09506 10.00244,-1.20177 19.35646,-6.72995 29.69901,-4.563 6.94224,0.24425 13.01413,5.53895 19.99276,4.61575 6.39717,-3.6929 10.06314,-10.8645 14.00548,-16.90681 11.66168,-22.5709 18.83925,-47.22681 25.05771,-71.80013 4.19699,-18.12329 9.19937,-36.2212 10.15382,-54.88225 -3.1632,-2.38547 -7.7445,-3.29334 -10.33926,-6.85767 -7.46082,-8.94653 -13.20294,-19.80559 -16.64305,-30.88592 -0.93416,-2.07265 -0.0656,-4.13243 2.47931,-2.95407 3.35089,1.34841 3.43353,6.63227 5.45976,9.41611 4.0378,7.70427 6.38584,18.95929 15.90454,21.57531 4.89067,0.88231 5.12949,-5.14019 4.76501,-8.46642 0.61571,-33.35265 0.24407,-66.71329 0.27274,-100.06949 -3.66649,-3.28388 -9.42591,0.14373 -11.78993,3.82447 -4.36226,5.86517 -7.43883,12.83184 -12.97683,17.5662 -1.25936,5.17049 1.81001,11.36593 0.81765,16.08916 -7.27721,0.37553 -16.6867,-0.30175 -20.20377,-7.70169 1.02534,-8.75429 2.66333,-17.95899 -1.31878,-26.29655 -3.22429,-7.68669 -4.60989,-15.95216 -2.88872,-24.20788 0.88729,-5.40272 1.56613,-10.8192 -1.56877,-15.67215 -1.56658,-4.67983 -4.20392,-10.94299 -1.02866,-15.50889 2.39969,-2.79941 6.35981,-6.62338 10.18102,-3.5871 2.17727,1.21374 6.58524,5.30524 8.17646,1.34516 1.53098,-10.94212 2.94144,-22.15804 2.45293,-33.1806 -10.08659,-4.12981 -21.22795,-5.73758 -31.58016,-9.63315 -4.595,-1.00152 -9.23346,-4.54749 -13.91788,-3.71294 -3.40141,3.71552 1.03855,8.99798 2.34744,12.76583 2.96133,5.09888 -3.60104,9.06269 -7.85995,9.89088 -25.19362,7.98137 -51.48572,13.65039 -78.09838,13.92635 -6.58415,0.31913 -13.80376,-3.98607 -13.97911,-11.0514 -1.89374,-10.87959 0.14347,-22.63783 -3.29696,-33.1806 -2.31348,-3.37174 -7.70395,-1.41789 -11.07778,-1.9518 z M 227.3063,325.1198 c 4.55649,-0.5704 8.25864,3.08786 8.15009,7.59619 0.77039,15.77733 -1.33073,31.75291 -4.6685,47.05421 -3.30864,7.08938 -0.76423,15.64522 -3.69259,22.70946 -8.1294,6.80254 -19.6855,6.55032 -29.8012,5.8598 -14.61696,-1.78544 -30.32241,-5.00319 -41.54501,-14.98579 -9.0266,-11.62381 -12.34883,-26.7772 -14.77462,-41.03338 -0.0314,-3.46344 -1.76559,-7.97452 -0.41777,-11.05858 27.64591,-7.03738 56.73239,-7.94792 84.13841,-15.98366 0.86747,-0.0922 1.73912,-0.14109 2.61119,-0.15825 z"
       style="fill:#000080;fill-opacity:1;stroke:none" />
    <path
       inkscape:connector-curvature="0"
       id="path3065"
       d="m 203.12671,266.72877 c -18.27645,4.40057 -37.40296,5.21313 -55.98856,6.90066 -9.60113,3.4598 -5.00373,16.05229 -5.78163,23.57413 -0.31606,6.21187 1.05906,16.84776 9.58632,15.66635 25.00925,-2.73328 50.9558,-4.748 74.00486,-15.55445 5.87378,-3.39258 -1.05554,-10.50988 -1.11902,-15.21874 -2.0226,-7.17558 -6.53578,-13.74956 -12.53309,-17.9417 -2.72296,0.85792 -5.44592,1.71583 -8.16888,2.57375 z"
       style="fill:#ffffff;fill-opacity:1;stroke:none" />
    <path
       inkscape:connector-curvature="0"
       id="path3067"
       d="m 82.794204,271.09297 c -9.868946,22.30705 -24.406189,42.62804 -34.764382,64.53045 5.91768,6.37911 12.378076,14.11649 20.88847,16.93459 5.639337,-4.70764 5.546429,-13.947 9.046969,-20.28594 6.625332,-19.06172 16.564929,-36.69912 23.330159,-55.58397 -2.316213,-6.4982 -12.0609,-4.61971 -17.456793,-6.19194 l -1.036358,0.5922 -0.0081,0.005 z"
       style="fill:#ffffff;fill-opacity:1;stroke:none" />
    <path
       inkscape:connector-curvature="0"
       id="path3069"
       d="m 325.36156,288.62437 c -10.21522,2.56357 -20.73391,8.52651 -26.33439,17.7552 -3.42146,13.69998 -7.09407,27.84359 -7.31097,41.96344 1.67358,7.65567 10.64304,9.56874 16.97189,6.41574 12.78601,-4.90751 25.75885,-10.31076 37.48734,-17.30758 5.1141,-5.08978 -1.70652,-12.34977 -2.49185,-17.98352 -4.3671,-9.85611 -6.62627,-21.32618 -13.47291,-29.72426 -1.38917,-0.98241 -3.14951,-1.29334 -4.84911,-1.11902 z"
       style="fill:#ffffff;fill-opacity:1;stroke:none" />
    <path
       inkscape:connector-curvature="0"
       id="path3071"
       d="m 287.54897,297.55178 c -4.53857,1.02392 -5.49909,6.49142 -5.51554,10.45765 -0.42638,6.94104 1.16622,13.98882 0.13491,20.85028 -0.60442,3.68429 -2.9343,7.6175 -1.47704,11.32835 1.15847,2.5398 4.58077,2.21621 5.9609,0.0659 3.18448,-4.32448 2.29434,-10.16461 3.374,-15.18753 0.86964,-7.5434 4.89833,-15.07049 2.74516,-22.7275 -0.87523,-2.12082 -2.67612,-4.78157 -5.22239,-4.78719 z"
       style="fill:#ffffff;fill-opacity:1;stroke:none" />
    <path
       inkscape:connector-curvature="0"
       id="path3073"
       d="m 302.99193,367.15719 c -2.51772,0.20128 -4.74021,2.53259 -3.81128,5.14326 0.0888,2.41882 2.99822,5.86206 5.3147,3.50797 1.56297,-2.22286 2.43282,-5.92878 0.42201,-8.12371 -0.5348,-0.43617 -1.24601,-0.6053 -1.92543,-0.52752 z"
       style="fill:#000080;fill-opacity:1;stroke:none" />
    <path
       inkscape:connector-curvature="0"
       id="path3075"
       d="m 287.21178,297.11342 c -8.40404,2.66593 -4.62188,13.95199 -5.70703,20.36626 0.56218,7.45812 -2.00172,14.48234 -1.97695,21.63448 0.96793,4.30386 7.04148,5.07472 8.16889,0.37301 3.66842,-11.46394 6.18348,-23.75569 6.15464,-35.7715 -0.70305,-2.97031 -3.05414,-6.87833 -6.63955,-6.60225 z"
       style="fill:#000000;fill-opacity:1;stroke:none" />
    <path
       inkscape:connector-curvature="0"
       id="path3077"
       d="m 274.28782,402.88372 c -4.01016,0.36955 -4.01327,5.20823 -3.98272,8.25559 0.0496,2.76418 2.9319,5.02243 5.5257,5.03775 4.03942,-0.81512 4.17605,-6.08536 3.27058,-9.27105 -0.62992,-2.10837 -2.41647,-4.21582 -4.81356,-4.02229 z"
       style="fill:#000000;fill-opacity:1;stroke:none" />
    <path
       inkscape:connector-curvature="0"
       id="path3083"
       d="m 232.83386,650.5982 c -6.6672,-0.15104 -12.82304,3.26253 -18.14667,6.94111 -4.46194,3.4652 -9.00122,7.39324 -11.30235,12.67913 -0.73781,1.47787 -0.95383,3.92467 1.1097,4.38285 12.19228,3.57479 25.14094,2.74055 37.48735,5.3993 4.26258,0.15728 8.64404,0.19772 12.82216,-0.73669 3.37092,-1.08298 6.82038,-2.95786 8.83097,-5.93084 -0.82415,-9.02155 -7.42994,-16.72608 -15.5938,-20.21747 -4.74953,-2.28448 -10.01265,-2.71664 -15.20736,-2.51739 z"
       style="fill:#008080;fill-opacity:1;stroke:none" />
    <path
       inkscape:connector-curvature="0"
       id="path3085"
       d="m 141.20434,635.67786 c -10.60043,0.0792 -20.62107,5.84795 -27.26691,13.89457 -2.626,3.41444 -5.30146,7.10927 -6.25721,11.37675 -0.31919,2.67089 2.88707,3.43583 4.75251,4.28081 10.39564,4.09667 21.59031,6.06472 32.78144,5.85879 6.40688,-0.0642 12.80336,0.38236 19.20062,0.51912 3.31518,0.0457 7.08642,-1.44632 8.04766,-4.92371 0.85737,-4.43825 -0.26189,-9.10171 -1.93032,-13.23248 -3.95627,-9.44877 -13.13647,-16.72025 -23.49953,-17.48476 -1.9295,-0.23338 -3.88296,-0.32524 -5.82826,-0.28909 z"
       style="fill:#008080;fill-opacity:1;stroke:none" />
  </g>
</svg>
