<?xml version="1.0" encoding="UTF-8" standalone="no"?>
<!-- Created with Inkscape (http://www.inkscape.org/) -->

<svg
   xmlns:dc="http://purl.org/dc/elements/1.1/"
   xmlns:cc="http://creativecommons.org/ns#"
   xmlns:rdf="http://www.w3.org/1999/02/22-rdf-syntax-ns#"
   xmlns:svg="http://www.w3.org/2000/svg"
   xmlns="http://www.w3.org/2000/svg"
   xmlns:sodipodi="http://sodipodi.sourceforge.net/DTD/sodipodi-0.dtd"
   xmlns:inkscape="http://www.inkscape.org/namespaces/inkscape"
   id="svg2"
   version="1.1"
   inkscape:version="0.48.4 r9939"
   width="3264"
   height="2448"
   sodipodi:docname="meaghan.svg">
  <metadata
     id="metadata8">
    <rdf:RDF>
      <cc:Work
         rdf:about="">
        <dc:format>image/svg+xml</dc:format>
        <dc:type
           rdf:resource="http://purl.org/dc/dcmitype/StillImage" />
        <dc:title />
      </cc:Work>
    </rdf:RDF>
  </metadata>
  <defs
     id="defs6" />
  <sodipodi:namedview
     pagecolor="#ffffff"
     bordercolor="#666666"
     borderopacity="1"
     objecttolerance="10"
     gridtolerance="10"
     guidetolerance="10"
     inkscape:pageopacity="0"
     inkscape:pageshadow="2"
     inkscape:window-width="1366"
     inkscape:window-height="744"
     id="namedview4"
     showgrid="false"
     inkscape:zoom="0.17892157"
     inkscape:cx="1229.589"
     inkscape:cy="1346.9589"
     inkscape:window-x="0"
     inkscape:window-y="24"
     inkscape:window-maximized="1"
     inkscape:current-layer="svg2" />
  <path
     style="fill:#000000"
     d="m 1931.8896,1965.5423 c 5.5478,-11.1139 16.6625,-22.1101 29.7742,-22.9927 8.5575,-0.032 2.2087,-21.2995 15.3301,-12.0182 12.6441,3.1872 13.918,22.9711 29.2606,11.8014 14.7004,-3.2711 -11.8499,-13.7454 -14.3092,-21.793 -13.9221,-13.8532 -22.622,-33.884 -21.4762,-53.6177 3.7852,-16.4595 18.5591,-23.286 32.9108,-28.0378 12.3031,-5.6416 30.9176,1.0691 39.8448,-2.0732 -2.183,-19.457 0.4437,-39.5379 5.2226,-58.475 3.6844,-11.5522 9.1031,-23.2974 15.4406,-32.6134 -14.3231,-12.0711 14.1354,-18.9815 -0.041,-30.2747 -11.0357,-17.084 -27.2068,-33.3229 -48.0081,-37.0834 -14.5882,-4.8444 -32.2421,-6.6473 -44.5893,4.4559 -10.332,17.9773 -11.8641,-11.5168 -9.2805,-20.0495 2.5034,-13.2633 11.0182,-24.5019 23.0857,-30.5989 14.1001,-9.1822 31.3994,-2.1077 44.9823,4.4935 22.9042,10.713 35.6465,34.165 45.6989,56.1997 3.0238,11.8629 4.4048,21.929 19.1582,21.5614 10.7317,-4.4251 22.3335,-10.5632 33.6411,-15.0663 11.0488,-5.8591 22.8983,-8.963 35.1556,-10.9625 12.3548,-6.3811 -5.5499,-25.9092 -4.3393,-37.2279 9.2982,-5.8497 22.344,13.335 29.261,4.8205 8.002,-10.2116 14.107,-22.0128 19.7654,-33.5786 7.0405,-16.8638 9.566,13.6243 9.5717,19.7065 -1.5018,24.3213 18.9492,-4.275 27.4394,4.1166 0.5271,14.8804 -12.1476,27.2238 -11.065,42.0246 11.8499,2.4224 27.2319,16.0103 37.1997,9.318 10.4281,-6.8974 18.8541,15.2769 23.9532,-1.2771 13.9468,-18.6384 35.0646,-30.3312 49.8705,-48.2483 15.3891,-12.5688 35.5217,-23.6248 56.0193,-18.0972 8.9978,3.0559 19.517,5.5386 10.8509,-6.7579 -9.6632,-17.4017 -29.1631,-30.0654 -49.5398,-26.3834 -16.5669,2.0853 -26.452,17.1946 -37.3289,28.1067 -15.7294,16.4752 -20.7911,39.3265 -31.3641,58.8464 0.1066,6.7508 -9.0008,24.055 -6.4804,8.3663 3.1049,-15.0987 11.7098,-28.3599 16.5014,-43.0564 7.1671,-16.3055 18.4184,-30.1976 31.246,-42.4243 17.324,-22.5229 54.119,-20.2912 71.9024,0.3951 7.9652,8.4127 20.8643,27.1099 12.1723,35.7799 -17.5135,-10.5098 -40.79,-10.9507 -57.7404,1.1397 -14.3502,8.5721 -23.9537,22.6784 -37.3157,32.671 -9.8187,8.1516 -23.266,19.3539 -26.8494,29.6327 17.1917,5.3565 -0.076,29.6237 -12.0132,15.6645 -2.7265,-4.3003 -0.4157,-15.3629 -3.2728,-5.0145 -9.4094,8.6715 -21.66,14.7797 -34.7897,13.8637 -16.1077,2.1296 -31.6251,-4.5539 -47.1232,-7.9624 -11.7741,-1.4992 -24.1609,-14.5425 -33.3165,-12.1933 -10.5008,7.5309 -22.7554,11.5316 -35.2251,14.1726 -12.6075,3.1953 -25.9295,8.0115 -39.0399,5.7918 -14.0289,-0.3038 -9.6719,16.7114 -23.099,16.6209 -9.5953,12.0336 -14.3779,27.4883 -18.5348,42.1828 -3.427,23.891 -7.7769,51.1914 6.5517,72.474 20.5895,18.2733 45.3984,31.0392 69.6165,43.6618 20.3003,5.6977 41.8696,7.3406 62.6255,2.8607 23.645,0.046 46.5561,-6.5647 68.7831,-13.894 17.4142,-12.0917 38.5505,-17.5417 55.4591,-30.3456 9.1313,-7.8913 20.1197,-18.4145 19.7733,-30.8867 2.5562,-10.8766 6.6719,-23.3551 7.8106,-35.3305 -0.1498,-23.4787 -14.5921,-43.962 -29.2006,-61.1412 -5.3967,-2.6547 -18.0549,-14.5013 -4.2312,-9.6325 12.2859,9.3308 21.0617,22.6179 28.9414,35.642 7.2228,13.9747 12.1426,30.1924 7.4278,45.8554 0.7098,12.0944 -10.0867,24.4498 -7.4591,35.0065 17.5039,-6.4344 37.1686,-15.2118 55.8738,-8.8473 8.6487,15.9928 1.3418,-12.1583 11.0006,-15.8895 12.967,-10.296 6.0402,-25.3939 2.1111,-37.5684 6.3557,-9.8966 -4.693,-25.0491 12.222,-28.5861 10.4742,-6.4898 6.2956,-20.2293 -4.6039,-8.5426 -8.9761,1.8174 -22.7931,19.309 -28.5135,12.2246 8.1534,-10.1817 14.6896,-21.5154 19.3441,-33.6011 4.2335,-10.5779 -16.0067,-18.9803 -19.7775,-27.2204 6.4235,-5.8031 29.0494,0.6339 34.6355,-12.1851 6.39,-7.3281 6.2538,-29.8205 14.2809,-28.5092 8.2102,11.4435 11.9913,34.0942 28.5764,34.206 9.3004,-0.6416 33.5207,-0.7806 23.1825,7.4749 7.6001,-3.1111 -12.9517,8.1876 -14.737,11.957 -20.7484,7.4273 -4.9601,25.007 -5.6683,39.903 1.6,18.3542 -17.4836,-8.2763 -26.2655,-6.4983 -2.9374,11.3479 -19.7142,14.2333 -4.8346,20.3258 6.8772,13.3029 -19.4525,8.4293 -13.2963,23.7366 13.3392,-9.8666 19.2381,11.7996 2.8535,12.0295 -7.431,-0.3932 -9.0596,13.064 0.4153,5.5595 15.8756,-0.3254 -3.008,16.1522 -0.6318,14.4903 14.6366,3.6065 16.812,27.7169 2.12,33.2303 -5.7828,2.0688 -19.5201,0.2898 -14.0149,9.1588 22.1859,-8.4139 13.8475,25.0519 -3.2054,18.1618 0.6049,10.7756 12.2169,22.4265 20.8863,12.493 10.0069,7.1578 8.5935,30.5676 -6.2541,28.4288 -10.183,-8.5639 -9.0393,-18.9783 -16.0728,-29.882 -5.6303,13.968 -9.1284,30.1817 -22.4622,39.2355 -12.7281,10.9372 -29.0902,17.2959 -44.9343,21.8504 18.2939,15.8264 35.3585,34.6683 41.7725,58.5537 5.0346,14.2754 4.0506,35.0861 -12.7748,40.9459 -13.8564,6.4208 -29.4167,0.4874 -39.929,-9.4269 -13.0291,-11.4818 4.1041,14.4896 5.2194,20.1664 9.0023,17.8475 17.0773,36.3127 22.888,55.4152 6.4302,22.8675 14.5972,45.2929 20.93,68.155 -0.7598,7.9043 14.8906,13.723 1.3854,16.795 -12.5518,-1.6585 -29.7646,-7.1186 -39.2274,5.425 -8.3353,16.2379 -25.315,7.43 -38.8957,4.602 -12.1311,-0.025 -31.376,-16.8624 -38.7496,-6.8633 -3.4961,29.3584 -9.9176,58.4203 -11.293,87.9788 10.115,-2.5649 22.6422,-9.9268 34.5877,-11.0584 13.1369,-2.6395 27.6941,-5.3614 39.5989,2.684 12.9508,2.577 24.9969,21.3377 5.4955,24.1478 -15.5053,1.4753 -30.6947,-4.2317 -46.2856,-3.9365 -11.5882,0.8271 -28.3316,-2.0958 -36.1013,0.01 -12.193,-2.7047 0.8139,-18.6899 -1.1473,-28.6502 2.3727,-25.2375 8.3024,-50.0034 10.0809,-75.2707 -17.2962,2.0278 -28.6993,21.7741 -47.4871,18.2201 -17.4469,-4.3313 -30.5651,-17.4933 -46.0122,-25.6389 -10.6019,-0.019 -30.0432,-5.8008 -35.6095,2.3111 2.3487,16.6261 -1.3515,33.7579 -3.5674,50.3349 -0.4702,11.5738 -4.4438,24.7533 -3.3382,35.5018 -2.5056,11.5797 -24.0847,8.7757 -35.0368,12.1859 -18.1337,3.1027 -36.2616,7.0642 -54.6753,8.272 -18.1313,2.1168 -22.4158,-20.2284 -3.463,-21.7784 20.6536,-7.2422 42.948,-12.53 65.1734,-10.8354 8.4146,-2.2571 23.5179,16.2678 23.2868,0.7511 1.8298,-15.6872 3.8522,-31.3277 6.3061,-46.8676 -0.5371,-9.8426 8.7118,-36.09 -9.6411,-27.1939 -16.5017,2.2331 -28.3654,15.5646 -44.3554,18.7945 -18.2094,2.2745 -29.9698,-16.683 -47.8433,-18.3106 -9.9493,-5.0644 -36.7006,13.3441 -31.3336,-7.6487 6.5061,-13.5449 11.3621,-27.8386 18.6893,-41.0343 9.0514,-17.9867 17.7163,-36.2888 28.0371,-53.6263 7.5395,-11.5334 16.6158,-22.8778 20.9634,-36.0288 0.025,-11.0631 -14.6841,8.3166 -20.867,9.0919 -13.0604,6.8008 -25.2305,21.1323 -41.3445,17.3939 -10.6311,-8.7132 -23.1341,-20.6676 -19.3976,-36.6623 2.3239,-13.9084 11.8022,-25.85 21.1812,-35.9841 20.1559,-17.804 38.3903,-38.4788 62.8258,-50.601 -13.3498,-4.702 -29.1182,-7.8332 -41.5799,-16.2376 -16.032,1.3907 -27.3378,8.4672 -32.1348,23.8347 -10.5857,7.7011 -24.8702,15.4768 -38.5327,11.4927 -7.7398,-1.5351 -16.6039,-5.1868 -15.2431,-14.667 z m 5.0874,5.3114 c 12.6538,9.4011 31.2504,5.9214 39.9876,-7.0607 15.1825,-5.3409 13.6457,-25.9342 -2.2049,-28.4228 -8.1142,0.038 -1.1298,17.347 -14.5363,13.5106 -9.738,1.4848 -24.2888,10.9965 -23.2464,21.9729 z m 29.5911,-297.1627 c 3.5293,7.8954 16.7337,-8.6344 25.3244,-5.7256 14.9399,-0.2249 30.0796,4.4016 43.3855,10.8136 15.2497,9.7551 28.0057,23.6233 36.5787,39.4098 9.8975,-10.9845 -2.9222,-27.1357 -8.002,-37.9881 -7.9543,-18.9078 -23.652,-34.1145 -42.8386,-41.4545 -12.4073,-6.2955 -29.596,-8.0669 -40.0664,2.7665 -11.0805,6.4499 -14.573,20.2946 -14.3816,32.1783 z m 9.6586,207.3196 c 2.9184,15.9751 11.7133,29.8996 23.4927,40.8749 9.9862,12.403 23.5795,21.2053 38.2943,10.0503 13.0855,-7.3363 31.7325,-5.7871 43.2106,-13.0167 0.2534,-12.4003 17.3289,-28.6809 -1.7088,-33.5374 -13.8312,-9.4029 -30.4818,-18.8479 -33.8442,-36.7641 -9.8931,-8.8892 -30.2606,-7.7009 -42.9742,-2.999 -15.1212,2.9323 -28.8692,14.3343 -27.3089,31.0517 l 0.1333,1.9513 0.7052,2.389 0,0 z m 4.6314,177.2696 c 1.2498,18.5686 20.3456,19.4964 33.4453,11.5168 14.9201,-5.4821 28.6391,-14.2122 41.0903,-23.9203 3.9232,-8.5242 2.876,-21.5078 5.5138,-31.3382 1.4483,-11.8301 3.3022,-27.5434 5.2941,-36.9746 3.6316,-9.6151 4.2571,-18.8382 -7.2732,-10.2953 -23.4551,12.4938 -40.7698,33.1681 -60.652,50.2894 -9.719,10.9252 -20.052,25.2604 -17.4183,40.7222 z m 11.5603,136.1636 c 13.6232,-4.6283 28.7365,-6.3008 41.9957,1.3852 12.4852,5.736 25.4695,18.4807 39.8383,9.6712 10.5762,-5.1246 19.7583,-13.134 31.7219,-15.1533 17.2079,-6.8869 36.0167,-6.1749 54.2072,-5.0924 14.474,3.9859 24.2901,16.9552 38.2888,22.3759 13.6929,9.0656 29.4355,0.7255 40.7614,-8.0235 11.592,-9.2774 26.8354,-7.7757 39.8225,-2.746 15.7934,5.4325 32.0691,10.1353 48.6361,12.3198 9.0372,-6.706 15.5296,-19.1108 28.4771,-18.0602 9.2711,1.7468 19.289,2.5919 12.0797,-9.1783 -7.5764,-24.7856 -15.3934,-49.5235 -22.9358,-74.2795 -9.1415,-23.12 -19.2367,-45.9388 -28.8065,-68.8198 -4.6729,4.9154 -12.6574,19.9997 -27.3182,17.6214 -36.1957,10.3176 -74.1965,15.5767 -111.9356,14.0803 -18.8524,0.4653 -38.238,-0.6731 -57.1821,-2.7696 -18.59,-1.825 -36.8817,-3.4424 -55.1185,-7.4525 -8.1356,5.819 -12.6091,18.8018 -18.965,27.4968 -8.1025,11.9743 -15.2011,24.5862 -21.2217,37.7234 -8.142,18.1812 -19.073,35.3116 -25.029,54.389 5.3372,3.9622 -9.044,9.6236 -7.3163,14.5121 z m 28.2045,98.5255 c 12.8211,6.1276 27.4769,-0.1118 40.8633,-1.0333 11.9296,-2.8742 24.2261,-4.3802 36.4677,-5.8585 7.137,-1.4965 17.411,-5.0103 4.5341,-8.7337 -19.5537,-6.1365 -40.8881,-1.6634 -60.0899,3.8718 -4.5857,2.3882 -27.1363,5.8255 -21.7752,11.7537 z m 0.2362,0.9418 c 1.1483,-0.3799 -1.1188,-0.7746 0,0 z m 5.889,-350.1754 c 13.4728,7.4366 28.8374,11.2174 44.171,11.8408 0.5777,-9.6516 16.2519,-33.8568 -3.4194,-26.6783 -14.7457,2.6602 -28.8608,7.4245 -42.5576,13.379 l 1.806,1.4585 0,0 z m 24.6355,329.9749 c -0.1362,-0.6047 -1.3768,0.45 0,0 z m 11.5616,-222.5833 c 11.8529,5.9029 27.1162,7.0028 40.7108,7.904 42.5827,5.6369 86.04,6.826 128.8616,2.4221 23.3302,-2.7971 46.0302,-8.6215 68.7726,-14.2655 11.3315,-7.7529 8.3775,-25.9536 11.3628,-38.4598 2.181,-24.4837 -1.5074,-48.938 -1.0324,-73.4564 0.2106,-16.9269 -2.829,-33.9349 -9.0418,-49.5971 -0.6772,-17.2678 12.1371,5.9649 11.53,13.2066 4.0039,7.7561 1.97,28.5996 11.4061,11.6057 10.0465,-11.0178 22.1839,-19.9823 32.9841,-30.2067 12.0689,-10.2801 22.3548,-22.4515 33.0167,-34.0827 -5.7349,-16.3035 -27.3407,-3.7138 -39.8254,-2.0716 -15.396,1.4151 -22.2993,15.0757 -32.873,23.9737 -16.833,13.6822 -38.5475,18.9793 -56.3326,31.2087 -13.7771,6.7056 -29.4658,9.5032 -44.217,13.3119 -16.0251,2.0388 -32.1128,3.631 -48.1278,5.6087 -19.9377,-0.4559 -41.0299,-2.4004 -58.0794,-13.7748 -8.3109,-3.2641 -18.9564,-15.51 -20.6234,-0.2402 -7.8825,25.4849 -14.3514,51.513 -20.5594,77.4659 -2.5886,21.6299 -7.0397,43.1381 -8.3824,64.8566 l 0.1739,2.7053 0.276,1.8856 0,0 z m 2.8042,-312.2352 c 9.4491,7.5874 13.16,-8.6425 1.9035,-6.1895 -1.9366,1.28 -3.036,4.0121 -1.9035,6.1895 z m 12.4976,-13.7357 c 12.1099,10.1281 11.7048,-12.0472 -0.1916,-5.8141 -1.832,1.3815 -1.6916,4.5081 0.1916,5.8141 z m 18.4708,0.2805 c 17.9039,-0.4512 35.3236,-6.2204 52.3381,-11.4457 10.2927,-1.4966 24.2635,-15.3896 16.2881,-20.6071 -16.2348,2.6929 -31.2657,9.2787 -46.377,15.6474 -7.0634,4.7751 -23.3983,5.8104 -22.2492,16.4054 z m 68.8911,-66.5394 c 6.8357,9.698 4.0306,25.2002 12.2454,32.5668 16.4311,2.1837 32.7249,-2.2052 49.1971,-1.4258 2.4111,-7.3111 5.7053,-19.8028 10.2183,-29.152 10.3592,-19.2222 -13.5714,-0.7573 -20.4688,-0.5136 -3.3707,-8.8011 -2.2553,-25.3152 -5.8733,-30.4337 -9.1829,10.6457 -13.4298,32.1152 -26.6283,35.2659 -3.3115,-2.4281 -18.2518,-10.5724 -18.6904,-6.3076 z m 3.3701,0.5261 c 1.3971,2.7635 -1.7669,-1.1944 0,0 z m 0.7532,5.2319 c 1.1267,0.8024 -1.1268,0.8024 0,0 z m 56.4895,19.9209 c 1.9897,-2.5796 -1.2504,3.8054 0,0 z m -55.8648,13.7639 c 6.7131,3.3137 -1.1335,-4.8225 0,0 z m 5.9142,8.2042 c 19.8047,9.9655 41.5347,16.2056 63.5792,18.3514 9.3413,0.2728 37.1539,-2.8062 31.7418,-12.313 -8.5329,-8.3234 -20.0037,-14.2243 -33.0041,-16.9739 -19.2874,2.9891 -39.3619,0.9563 -58.9624,2.3387 0.7929,5.3133 7.6249,11.5063 -1.5534,4.5542 -1.1233,0.5494 -5.1148,2.733 -1.8011,4.0426 z m 92.4192,590.6413 c 19.2292,-0.4263 38.3291,2.3438 57.2486,4.9038 21.545,-1.6485 -5.7149,-14.0502 -13.1751,-16.0629 -18.2376,-1.0038 -36.9523,3.4182 -53.5194,10.8417 3.1128,0.5855 6.3022,0.2234 9.4459,0.3174 z m 3.3914,-590.7962 c 8.5418,7.1326 20.2325,-3.9877 4.1731,-4.7306 -2.374,-1.2612 -6.9818,2.4896 -4.1731,4.7306 z m 16.1922,11.3742 c 10.8011,12.0186 17.3163,-11.8875 3.3138,-4.7117 -1.0938,0.793 -4.7464,2.7773 -3.3138,4.7117 z m 30.4664,308.2235 c 12.4562,6.7508 22.0438,21.0799 37.2937,21.0503 18.2173,-1.3762 23.7152,-21.9465 18.0015,-36.7391 -5.3159,-23.1935 -23.339,-40.8658 -40.8127,-55.8849 -7.8941,-6.3929 -17.0719,-10.5877 -14.1771,3.5305 -0.09,13.6307 2.9072,27.3237 1.0776,41.1001 1.2912,8.8092 -4.1841,19.2714 -1.383,26.9431 z m 0.5775,-86.1676 c 11.3155,7.1848 24.5111,6.4573 36.2747,-0.3414 16.5999,-7.2492 34.1709,-17.9842 39.2462,-36.5945 6.2072,-13.5121 5.6762,-29.0807 4.4474,-43.4165 -5.0591,-16.1749 -15.611,7.7493 -22.6077,12.3888 -11.5064,11.3174 -23.5401,22.1562 -36.1093,32.2437 -9.74,9.8136 -25.556,19.7205 -21.2513,35.7199 z m 76.3298,-239.5956 c 8.1428,10.2793 22.2252,18.7023 9.4929,31.5646 -1.3534,6.0183 -14.1024,21.4416 -0.801,11.4232 12.2884,-3.5375 22.7628,-19.9136 33.3618,-7.786 8.4925,0.6742 25.9548,20.9523 21.4575,2.815 -6.0924,-12.7466 -7.9476,-26.6111 7.4912,-32.7587 7.7069,-5.1416 20.3244,-14.5635 3.0278,-11.9557 -8.2251,-1.4662 -24.6037,4.6249 -21.9864,-6.8998 -7.349,-4.6305 -14.2384,-35.0017 -19.4729,-13.9913 -2.6638,17.6326 -16.9592,24.7664 -33.6064,25.988 l 1.0355,1.6007 0,0 z m 6.6457,151.009 c 4.3682,11.3449 4.556,-7.8967 -1.5477,-3.1827 l 1.5477,3.1826 0,10e-5 z m 2.2793,-9.9271 c 9.7142,17.4478 36.2062,-4.814 20.4394,-17.5699 -2.4802,10.9458 -11.8093,21.2909 -21.3958,14.9875 l 0.9564,2.5824 0,0 z m 2.053,-8.8341 c 12.7553,11.2405 10.9243,-25.0669 0.1579,-7.3225 -0.5665,2.2742 -3.4618,5.783 -0.1579,7.3225 z m 2.9171,41.1508 c 11.0249,4.5259 15.2075,-16.6601 1.8422,-7.3983 -0.4675,1.6952 -4.3457,5.6669 -1.8422,7.3983 z m 2.2152,-87.5115 c 2.7244,14.4267 8.3637,-24.7054 -0.326,-6.532 -0.871,2.1163 0.1002,4.4232 0.326,6.532 z m 1.4828,-19.2967 c 5.3853,1.9811 10.9406,-15.6808 0.9161,-5.782 -2.2408,1.0625 -2.3477,4.1047 -0.9161,5.782 z m 3.2177,45.5449 c 10.5453,2.5519 6.8859,-11.4175 0,0 z m 2.5228,91.9308 c 3.2075,5.2587 7.1051,17.8344 10.5969,3.9567 -3.2507,-5.7536 1.7014,-14.7965 -5.089,-6.5055 -3.5624,-1.8872 -9.6408,-4.107 -5.5079,2.5488 z m 3.4135,-111.2254 c 10.0383,-3.3913 3.5521,-8.384 0,0 z m 1.9719,-24.2924 c 13.8988,-3.9758 -2.0097,-6.3983 0,0 z m 4.6672,-21.9031 c 9.3873,-2.7718 -1.7095,-13.2803 0,0 z m -311.705,103.4064 c 4.6663,-4.7435 17.7897,-23.9852 11.9241,-6.2998 13.6221,5.6167 28.6701,7.3759 43.0456,10.5689 21.8812,2.6701 45.4034,4.4473 66.2161,-4.1121 8.8303,-4.3495 19.074,-12.347 7.2286,-18.5975 4.349,-8.9731 30.9027,16.6918 11.2039,10.1174 -14.1863,17.0012 -37.3517,20.7407 -58.3008,20.5513 -23.1732,0.9516 -45.7919,-5.1031 -67.8598,-11.3767 -5.3922,-9.5609 -13.199,11.0105 -13.4577,-0.8515 z m 29.0836,-60.73 c 13.2581,-17.4623 10.1519,21.4943 -0.01,1.6586 l 0.01,-1.6586 z m 31.6971,33.5104 c 4.892,-0.6186 27.6429,-3.9968 13.3105,3.3035 -3.5674,0.5043 -13.7472,3.2156 -13.3105,-3.3035 z m 43.6516,-35.439 c 9.093,-11.827 14.5245,15.4792 0.4557,5.5904 l -0.5118,-2.7732 0.056,-2.8172 0,0 z m 268.5569,-95.0872 c 5.5065,-1.3458 -3.0678,4.5495 0,0 z m 0.5591,1.2914 c 1.648,-0.7455 -1.659,-0.2718 0,0 z"
     id="path2982"
     inkscape:connector-curvature="0" />
</svg>
