<?xml version="1.0" encoding="UTF-8" standalone="no"?>
<!-- Generator: Adobe Illustrator 16.0.0, SVG Export Plug-In . SVG Version: 6.00 Build 0)  -->

<svg
   xmlns:dc="http://purl.org/dc/elements/1.1/"
   xmlns:cc="http://creativecommons.org/ns#"
   xmlns:rdf="http://www.w3.org/1999/02/22-rdf-syntax-ns#"
   xmlns:svg="http://www.w3.org/2000/svg"
   xmlns="http://www.w3.org/2000/svg"
   xmlns:sodipodi="http://sodipodi.sourceforge.net/DTD/sodipodi-0.dtd"
   xmlns:inkscape="http://www.inkscape.org/namespaces/inkscape"
   version="1.1"
   id="Capa_1"
   x="0px"
   y="0px"
   width="396.454px"
   height="396.454px"
   viewBox="0 0 396.454 396.454"
   style="enable-background:new 0 0 396.454 396.454;"
   xml:space="preserve"
   inkscape:version="0.48.4 r9939"
   sodipodi:docname="phone.svg"><metadata
     id="metadata41"><rdf:RDF><cc:Work
         rdf:about=""><dc:format>image/svg+xml</dc:format><dc:type
           rdf:resource="http://purl.org/dc/dcmitype/StillImage" /></cc:Work></rdf:RDF></metadata><defs
     id="defs39" /><sodipodi:namedview
     pagecolor="#ffffff"
     bordercolor="#666666"
     borderopacity="1"
     objecttolerance="10"
     gridtolerance="10"
     guidetolerance="10"
     inkscape:pageopacity="0"
     inkscape:pageshadow="2"
     inkscape:window-width="769"
     inkscape:window-height="480"
     id="namedview37"
     showgrid="false"
     inkscape:zoom="0.59527712"
     inkscape:cx="198.22701"
     inkscape:cy="198.22701"
     inkscape:window-x="10"
     inkscape:window-y="34"
     inkscape:window-maximized="0"
     inkscape:current-layer="Capa_1" /><g
     id="g3"
     style="fill:#ffffff;fill-opacity:1"><path
       d="M332.821,367.991c-11.233,12.985-92.111,94.404-213.951-95.18C-9.557,72.934,67.444,18.2,100.847,4.695l0.005-0.043   c0.53-0.214,1.059-0.378,1.597-0.583c0.936-0.359,1.814-0.673,2.67-0.971c0.367-0.118,0.752-0.263,1.123-0.381   c4.699-1.545,7.692-2.049,7.692-2.049s-0.021,0.088-0.037,0.23c22.136-3.875,42.897,4.896,46.869,24.295l6.982,44.047   c4.748,23.136-13.581,50.933-40.933,62.112l-2.213,0.897c14.472,50.233,43.696,108.053,100.981,160.677l4.213-3.666   c22.285-19.409,55.352-23.245,73.878-8.611l32.559,28.295C354.3,323.231,353.613,348.688,332.821,367.991z"
       id="path5"
       style="fill:#ffffff;fill-opacity:1" /></g><g
     id="g7" /><g
     id="g9" /><g
     id="g11" /><g
     id="g13" /><g
     id="g15" /><g
     id="g17" /><g
     id="g19" /><g
     id="g21" /><g
     id="g23" /><g
     id="g25" /><g
     id="g27" /><g
     id="g29" /><g
     id="g31" /><g
     id="g33" /><g
     id="g35" /></svg>